<svg width="42" height="42" viewBox="0 0 42 42" fill="none" xmlns="http://www.w3.org/2000/svg">
<rect width="42" height="42" rx="4" fill="#FFCA28" fill-opacity="0.2"/>
<path fill-rule="evenodd" clip-rule="evenodd" d="M19.9253 18.1739C19.9635 18.2121 19.994 18.2581 20.0147 18.3089C20.0355 18.3597 20.0463 18.4144 20.0463 18.4697C20.0463 18.5249 20.0355 18.5796 20.0147 18.6305C19.994 18.6813 19.9635 18.7272 19.9253 18.7654C19.8468 18.8439 19.7423 18.8878 19.6336 18.8878C19.5249 18.8878 19.4204 18.8439 19.3419 18.7654L17.5714 16.9706C17.5332 16.9323 17.5028 16.8864 17.4821 16.8356C17.4614 16.7848 17.4507 16.7301 17.4507 16.6749C17.4507 16.6196 17.4614 16.565 17.4821 16.5141C17.5028 16.4633 17.5332 16.4174 17.5714 16.3791L19.3419 14.5843C19.4203 14.5056 19.5248 14.4617 19.6336 14.4617C19.7423 14.4617 19.8469 14.5056 19.9253 14.5843C19.9635 14.6225 19.994 14.6685 20.0147 14.7193C20.0355 14.7701 20.0463 14.8248 20.0463 14.8801C20.0463 14.9353 20.0355 14.99 20.0147 15.0409C19.994 15.0917 19.9635 15.1376 19.9253 15.1758L18.4466 16.6749L19.9253 18.1739ZM23.7093 18.8272C23.6309 18.9058 23.5263 18.9496 23.4176 18.9496C23.3089 18.9496 23.2044 18.9058 23.1259 18.8272C23.0878 18.789 23.0574 18.743 23.0367 18.6922C23.0159 18.6414 23.0052 18.5867 23.0052 18.5315C23.0052 18.4762 23.0159 18.4216 23.0367 18.3708C23.0574 18.3199 23.0878 18.274 23.1259 18.2357L24.605 16.7367L23.1259 15.2376C23.0878 15.1994 23.0574 15.1534 23.0367 15.1026C23.0159 15.0518 23.0052 14.9971 23.0052 14.9419C23.0052 14.8866 23.0159 14.832 23.0367 14.7812C23.0574 14.7303 23.0878 14.6844 23.1259 14.6461C23.2043 14.5674 23.3089 14.5235 23.4176 14.5235C23.5264 14.5235 23.6309 14.5674 23.7093 14.6461L25.4798 16.4409C25.5181 16.4792 25.5485 16.5251 25.5693 16.5759C25.5901 16.6267 25.6008 16.6814 25.6008 16.7367C25.6008 16.7919 25.5901 16.8466 25.5693 16.8975C25.5485 16.9483 25.5181 16.9942 25.4798 17.0324L23.7093 18.8272ZM21.1871 19.5989C21.1569 19.7073 21.0871 19.799 20.9928 19.8544C20.8985 19.9097 20.7871 19.9241 20.6827 19.8947C20.6311 19.8816 20.5825 19.8579 20.5398 19.825C20.4971 19.7921 20.4611 19.7506 20.4339 19.703C20.4068 19.6554 20.389 19.6026 20.3817 19.5478C20.3743 19.4929 20.3775 19.437 20.3912 19.3835L21.8638 13.8123C21.8941 13.7039 21.964 13.6122 22.0583 13.5569C22.1527 13.5017 22.264 13.4871 22.3685 13.5165C22.42 13.5299 22.4685 13.5538 22.511 13.5868C22.5536 13.6198 22.5895 13.6613 22.6167 13.7088C22.6438 13.7564 22.6616 13.8091 22.6691 13.8639C22.6766 13.9187 22.6737 13.9745 22.6604 14.0281L21.1877 19.5989H21.1871ZM16.4244 12.6558C15.9008 13.3273 15.5128 14.1024 15.2839 14.9344C15.055 15.7664 14.9898 16.6382 15.0923 17.4972C15.1976 18.3603 15.4677 19.1925 15.8865 19.9449C16.3053 20.6972 16.8645 21.3543 17.5309 21.8774C18.8944 22.9572 20.607 23.4414 22.3066 23.2276C24.0018 23.0264 25.5534 22.1387 26.6275 20.7558C27.1512 20.0843 27.5393 19.3093 27.7682 18.4772C27.9972 17.6452 28.0624 16.7734 27.9599 15.9144C27.8546 15.0513 27.5846 14.219 27.1657 13.4667C26.7469 12.7144 26.1877 12.0573 25.5213 11.5342C24.1579 10.4543 22.4454 9.96998 20.7459 10.1836C19.0506 10.3849 17.4985 11.2727 16.4244 12.6558ZM20.8423 11.0146C19.3638 11.189 18.01 11.962 17.0723 13.1673C16.6151 13.7544 16.2765 14.432 16.0769 15.1593C15.8773 15.8866 15.8208 16.6485 15.911 17.3991C16.0027 18.1519 16.2381 18.8779 16.6033 19.5343C16.9684 20.1906 17.4559 20.764 18.0369 21.2205C19.2286 22.1633 20.7252 22.5855 22.2099 22.3976C23.6886 22.2227 25.0423 21.4489 25.9795 20.2428C26.4367 19.656 26.7753 18.9786 26.9749 18.2516C27.1745 17.5245 27.231 16.7629 27.1409 16.0125C27.0495 15.2593 26.8142 14.5329 26.449 13.8763C26.0837 13.2197 25.596 12.6462 25.0146 12.1896C23.823 11.2468 22.3266 10.8245 20.842 11.0122L20.8423 11.0146ZM16.1037 11.6309C15.4474 12.3359 14.9344 13.1721 14.5957 14.0893C14.257 15.0064 14.0995 15.9855 14.1328 16.9677C14.166 17.9499 14.3893 18.915 14.7891 19.8049C15.1889 20.6949 15.7571 21.4912 16.4595 22.1462C17.695 23.3128 19.2712 24.0109 20.9337 24.1278C22.6033 24.2535 24.2653 23.7928 25.6549 22.8191C25.7355 22.7624 25.8325 22.7366 25.9293 22.746C26.0261 22.7554 26.1169 22.7995 26.186 22.8708L26.491 23.1592C26.5406 23.2066 26.6061 23.2317 26.6734 23.229C26.7392 23.2271 26.8017 23.1983 26.8474 23.1487L28.1745 21.7076C28.197 21.6834 28.2147 21.6547 28.2263 21.6233C28.238 21.5918 28.2435 21.5582 28.2424 21.5244C28.2414 21.4907 28.2338 21.4575 28.2201 21.4269C28.2065 21.3963 28.1871 21.3689 28.1631 21.3462L27.8421 21.0425C27.7713 20.9765 27.7258 20.8861 27.7141 20.7878C27.7023 20.6896 27.7251 20.5903 27.7782 20.5082C28.6316 19.0528 28.9687 17.3312 28.7308 15.6431C28.4928 13.9551 27.6949 12.4076 26.4759 11.2702C25.0371 9.92107 23.1537 9.20514 21.2202 9.27237C19.2868 9.33961 17.4532 10.1848 16.1037 11.6309ZM28.6437 24.2242L27.7558 23.3862L28.4854 22.5939L29.3656 23.4249C29.123 23.684 28.881 23.9581 28.6427 24.2242H28.6437ZM30.276 23.6746C30.2979 23.6516 30.3273 23.6381 30.3583 23.6369C30.3905 23.6356 30.4218 23.6472 30.446 23.6694L34.5628 27.5802C34.5998 27.6149 34.6298 27.6571 34.6509 27.7041C34.672 27.7512 34.6838 27.8022 34.6857 27.8541C34.6875 27.9061 34.6793 27.9578 34.6616 28.0064C34.6439 28.055 34.617 28.0993 34.5825 28.1368L33.6049 29.2018C33.5344 29.2764 33.4391 29.32 33.3388 29.3233C33.2384 29.3267 33.1406 29.2897 33.0657 29.22L28.9489 25.3091C28.937 25.2981 28.9273 25.2846 28.9205 25.2695C28.9136 25.2545 28.9098 25.2381 28.9091 25.2215C28.9085 25.2046 28.9112 25.1877 28.9169 25.1719C28.9227 25.156 28.9314 25.1416 28.9426 25.1293L30.2777 23.6735L30.276 23.6746ZM30.0779 32.9831H13.0486V34.1648H30.0779V32.9831ZM25.5438 32.1468C25.3323 31.9955 25.1336 31.8256 24.9497 31.6391C24.2058 30.8929 23.7422 29.8938 23.6424 28.8223H19.4841C19.3841 29.8937 18.9204 30.8927 18.1768 31.6391C17.9935 31.8255 17.7953 31.9954 17.5844 32.1468H25.5438ZM24.4728 28.8223H31.4407C31.7955 29.1589 32.1505 29.4951 32.5057 29.831C32.7423 30.051 33.051 30.1675 33.3677 30.1565C33.6844 30.1456 33.9849 30.0079 34.207 29.772C34.4992 29.4791 34.7937 29.1383 35.0772 28.8223H35.2425C35.7059 28.8231 36.1513 28.6352 36.4839 28.2985C36.6464 28.1358 36.7758 27.9407 36.8645 27.7247C36.9531 27.5087 36.9992 27.2764 37 27.0414V7.78084C36.9992 7.54589 36.9531 7.31352 36.8645 7.09755C36.7758 6.88158 36.6464 6.68645 36.4839 6.52378C36.1513 6.1871 35.7059 5.99917 35.2425 6H7.75748C7.29399 5.99923 6.8485 6.18714 6.51576 6.52378C6.35339 6.68652 6.22405 6.88167 6.13544 7.09763C6.04684 7.31358 6.00078 7.54593 6 7.78084V27.0404C6.00078 27.2753 6.04684 27.5076 6.13544 27.7236C6.22405 27.9395 6.35339 28.1347 6.51576 28.2974C6.8485 28.6341 7.29399 28.822 7.75748 28.8212H18.6554C18.5587 29.6687 18.1837 30.4551 17.5941 31.0469C16.8961 31.7532 15.9616 32.1474 14.9892 32.1458H12.7601C12.6188 32.1452 12.4828 32.2023 12.3813 32.305C12.3317 32.3547 12.2921 32.4143 12.2651 32.4803C12.2381 32.5463 12.2241 32.6173 12.224 32.6891V34.4567C12.2243 34.5285 12.2384 34.5995 12.2656 34.6655C12.2927 34.7314 12.3323 34.7911 12.3819 34.8408C12.4834 34.9434 12.6194 35.0006 12.7608 35H30.367C30.5084 35.0005 30.6444 34.9434 30.7459 34.8408C30.7956 34.7911 30.8352 34.7314 30.8623 34.6655C30.8894 34.5995 30.9036 34.5285 30.9039 34.4567V32.6902C30.9038 32.6184 30.8898 32.5474 30.8627 32.4814C30.8357 32.4154 30.7962 32.3558 30.7466 32.306C30.6451 32.2034 30.5091 32.1463 30.3677 32.1468H28.1387C27.1663 32.1485 26.2317 31.7543 25.5337 31.0479C24.9442 30.4562 24.5695 29.6698 24.4728 28.8223ZM36.1767 26.3937H34.5226L35.1284 26.9695C35.2435 27.0782 35.3364 27.2099 35.4018 27.3568C35.4672 27.5037 35.5036 27.6628 35.5089 27.8246C35.5089 27.8655 35.5089 27.906 35.5073 27.9468C35.6554 27.9019 35.7906 27.8198 35.9012 27.7077C35.9876 27.6214 36.0564 27.5178 36.1036 27.4032C36.1507 27.2885 36.1752 27.1651 36.1757 27.0404V26.3937H36.1767ZM28.886 26.3937H6.82502V27.0404C6.82543 27.1651 6.84994 27.2885 6.8971 27.4032C6.94426 27.5178 7.01308 27.6214 7.09947 27.7077C7.27541 27.8869 7.51159 27.9871 7.75748 27.987H30.5588L28.8854 26.3947L28.886 26.3937ZM6.82502 25.5574H28.1467C28.1103 25.4587 28.0899 25.3544 28.0861 25.2487C28.0821 25.1266 28.1008 25.0048 28.1413 24.8901L27.1439 23.9473C27.0051 24.0169 26.8538 24.0554 26.6998 24.0604C26.4167 24.0718 26.1405 23.9675 25.93 23.7696L25.847 23.691C24.3576 24.6461 22.6186 25.0897 20.8748 24.9592C19.0255 24.8292 17.2722 24.0528 15.8979 22.7552C15.117 22.0266 14.4853 21.1409 14.0407 20.1513C13.5961 19.1616 13.3478 18.0884 13.3106 16.9962C13.2735 15.9039 13.4483 14.8151 13.8246 13.795C14.2009 12.775 14.7708 11.8448 15.5003 11.0604C17.0013 9.45232 19.0404 8.51236 21.1907 8.43725C23.341 8.36215 25.4357 9.15771 27.0365 10.6574C28.3932 11.9303 29.2811 13.6577 29.5467 15.5411C29.7932 17.3035 29.4741 19.1016 28.6394 20.6552L28.7224 20.7334C28.879 20.8802 28.9887 21.0737 29.0366 21.2876C29.0845 21.5016 29.0683 21.7257 28.9901 21.9297L29.9942 22.8771C30.1018 22.8311 30.2164 22.8055 30.3326 22.8016C30.5807 22.792 30.8226 22.8834 31.0073 23.0565C31.8873 23.8876 32.7656 24.721 33.642 25.5567H36.1746V7.78084C36.1742 7.65608 36.1496 7.53271 36.1025 7.41806C36.0553 7.30342 35.9865 7.19986 35.9002 7.11355C35.7242 6.93446 35.4881 6.83421 35.2422 6.8342H7.75748C7.51161 6.83421 7.27549 6.93446 7.09947 7.11355C7.01313 7.19986 6.94433 7.30342 6.89718 7.41806C6.85003 7.53271 6.82549 7.65608 6.82502 7.78084V25.5574Z" fill="#FF9900"/>
</svg>
