<svg width="42" height="42" viewBox="0 0 42 42" fill="none" xmlns="http://www.w3.org/2000/svg">
<rect width="42" height="42" rx="4" fill="#FFCA28" fill-opacity="0.2"/>
<g clip-path="url(#clip0_2022_30176)">
<path d="M18.8125 22.75C19.0544 22.75 19.25 22.554 19.25 22.3125C19.25 22.071 19.0544 21.875 18.8125 21.875H7.875V8.3125C7.875 8.07144 8.071 7.875 8.3125 7.875H27.5625C27.804 7.875 28 8.07144 28 8.3125V11.8125C28 12.054 28.1956 12.25 28.4375 12.25C28.6794 12.25 28.875 12.054 28.875 11.8125V8.3125C28.875 7.58887 28.2861 7 27.5625 7H8.3125C7.58887 7 7 7.58887 7 8.3125V24.9375C7 25.6611 7.58887 26.25 8.3125 26.25H15.75V26.8153C15.75 28.4585 14.8369 29.9364 13.3669 30.6709C13.1854 30.7619 13.09 30.9654 13.1368 31.1631C13.1836 31.3604 13.3599 31.5 13.5629 31.5H18.8129C19.0549 31.5 19.2504 31.304 19.2504 31.0625C19.2504 30.821 19.0549 30.625 18.8129 30.625H14.9625C16.0112 29.6599 16.6254 28.2936 16.6254 26.8153V26.25H18.8129C19.0549 26.25 19.2504 26.054 19.2504 25.8125C19.2504 25.571 19.0549 25.375 18.8129 25.375H8.3125C8.071 25.375 7.875 25.1786 7.875 24.9375V22.75H18.8125Z" fill="#FF9900"/>
<path d="M34.5625 18.375H31.5V17.0625C31.5 14.8916 29.7338 13.125 27.5625 13.125C25.3912 13.125 23.625 14.8916 23.625 17.0625V18.375H20.5625C20.3206 18.375 20.125 18.571 20.125 18.8125V32.8125C20.125 34.1823 20.7791 35 21.875 35H32.8125C34.0187 35 35 34.0187 35 32.8125V18.8125C35 18.571 34.8044 18.375 34.5625 18.375ZM24.5 17.0625C24.5 15.3737 25.8742 14 27.5625 14C29.2508 14 30.625 15.3737 30.625 17.0625V18.375H24.5V17.0625ZM34.125 32.8125C34.125 33.5361 33.5361 34.125 32.8125 34.125H21.875C21.6584 34.125 21 34.125 21 32.8125V19.25H23.625V21H23.1875C22.9456 21 22.75 21.196 22.75 21.4375C22.75 21.679 22.9456 21.875 23.1875 21.875H24.9375C25.1794 21.875 25.375 21.679 25.375 21.4375C25.375 21.196 25.1794 21 24.9375 21H24.5V19.25H30.625V21H30.1875C29.9456 21 29.75 21.196 29.75 21.4375C29.75 21.679 29.9456 21.875 30.1875 21.875H31.9375C32.1794 21.875 32.375 21.679 32.375 21.4375C32.375 21.196 32.1794 21 31.9375 21H31.5V19.25H34.125V32.8125Z" fill="#FF9900"/>
<path d="M13.125 8.75C11.9188 8.75 10.9375 9.73131 10.9375 10.9375V11.375H9.1875C8.94556 11.375 8.75 11.571 8.75 11.8125V18.8125C8.75 20.0187 9.73131 21 10.9375 21H15.3125C16.5187 21 17.5 20.0187 17.5 18.8125V11.8125C17.5 11.571 17.3044 11.375 17.0625 11.375H15.3125V10.9375C15.3125 9.73131 14.3312 8.75 13.125 8.75ZM11.8125 10.9375C11.8125 10.2139 12.4014 9.625 13.125 9.625C13.8486 9.625 14.4375 10.2139 14.4375 10.9375V11.375H11.8125V10.9375ZM16.625 12.25V18.8125C16.625 19.5361 16.0361 20.125 15.3125 20.125H10.9375C10.2139 20.125 9.625 19.5361 9.625 18.8125V12.25H10.9375V13.5625C10.9375 13.804 11.1331 14 11.375 14C11.6169 14 11.8125 13.804 11.8125 13.5625V12.25H14.4375V13.5625C14.4375 13.804 14.6331 14 14.875 14C15.1169 14 15.3125 13.804 15.3125 13.5625V12.25H16.625Z" fill="#FF9900"/>
<path d="M25.375 10.0625C25.375 9.821 25.1794 9.625 24.9375 9.625H19.6875C19.4456 9.625 19.25 9.821 19.25 10.0625C19.25 10.304 19.4456 10.5 19.6875 10.5H24.9375C25.1794 10.5 25.375 10.304 25.375 10.0625Z" fill="#FF9900"/>
<path d="M19.6875 11.375C19.4456 11.375 19.25 11.571 19.25 11.8125C19.25 12.054 19.4456 12.25 19.6875 12.25H24.0625C24.3044 12.25 24.5 12.054 24.5 11.8125C24.5 11.571 24.3044 11.375 24.0625 11.375H19.6875Z" fill="#FF9900"/>
<path d="M23.625 13.5625C23.625 13.321 23.4294 13.125 23.1875 13.125H19.6875C19.4456 13.125 19.25 13.321 19.25 13.5625C19.25 13.804 19.4456 14 19.6875 14H23.1875C23.4294 14 23.625 13.804 23.625 13.5625Z" fill="#FF9900"/>
</g>
<defs>
<clipPath id="clip0_2022_30176">
<rect width="28" height="28" fill="white" transform="translate(7 7)"/>
</clipPath>
</defs>
</svg>
