<svg width="42" height="42" viewBox="0 0 42 42" fill="none" xmlns="http://www.w3.org/2000/svg">
<rect width="42" height="42" rx="4" fill="#FFCA28" fill-opacity="0.2"/>
<path fill-rule="evenodd" clip-rule="evenodd" d="M21.0003 12.8902C20.2681 12.8902 19.6715 12.2976 19.6715 11.5702C19.6715 10.8429 20.2681 10.2503 21.0003 10.2503C21.7325 10.2503 22.3276 10.8429 22.3276 11.5702C22.329 12.2976 21.7325 12.8902 21.0003 12.8902ZM21.0003 9.28239C19.7299 9.28239 18.6958 10.3082 18.6958 11.5702C18.6958 12.8323 19.7299 13.8581 21.0003 13.8581C22.2707 13.8581 23.3048 12.8323 23.3048 11.5702C23.3048 10.3082 22.2707 9.28239 21.0003 9.28239ZM33.0244 14.423V13.671C33.0244 13.5001 32.9457 13.3653 32.7881 13.2624L21.5966 6.14517C21.2276 5.9119 20.7711 5.9119 20.4036 6.14517L9.21208 13.2624C9.05456 13.3638 8.9758 13.5 8.9758 13.671V14.423C8.9758 14.6968 9.22813 14.9214 9.53733 14.9214H32.4625C32.7717 14.9214 33.024 14.6954 33.024 14.423H33.0244ZM30.6032 28.3704C30.6032 28.6761 30.3509 28.9253 30.0417 28.9253H28.7392L26.3035 18.8147C26.3035 18.8147 26.302 18.8147 26.302 18.8104C26.1474 18.1772 25.5713 17.7034 24.8843 17.7034H17.1145C16.4305 17.7034 15.8544 18.1729 15.6983 18.8061H15.6968L13.2611 28.9267H11.96C11.6494 28.9267 11.3985 28.6774 11.3985 28.3717V15.8935H30.6032L30.6032 28.3704ZM28.3527 33.4646C28.5992 33.4038 28.7524 33.1546 28.6926 32.9097L26.3429 23.15V33.9646L28.3527 33.4646ZM25.3671 35.5525V19.1492C25.3671 18.8884 25.1512 18.6711 24.8843 18.6711H17.1145C16.8491 18.6711 16.6317 18.887 16.6317 19.1492V35.5525C16.6317 35.8133 16.8491 36.0307 17.1145 36.0307H24.8843C25.1498 36.0307 25.3671 35.8148 25.3671 35.5525ZM13.6476 33.4574L15.6546 33.9558V23.1498L13.3063 32.9024C13.248 33.1458 13.4012 33.3951 13.6476 33.4574ZM33.3146 12.4495L22.1231 5.32818C21.4303 4.89061 20.5683 4.89061 19.877 5.32818L8.6855 12.4495C8.24938 12.7234 8 13.1725 8 13.671V14.4229C8 15.2314 8.6899 15.8936 9.5373 15.8936H10.4212V28.3717C10.4212 29.2135 11.1111 29.9003 11.9599 29.9003H13.0276L12.3596 32.6779C12.1758 33.4371 12.6484 34.2094 13.4126 34.3978L15.6559 34.957V35.554C15.6559 36.3509 16.3107 37 17.1144 37H24.8842C25.6893 37 26.3427 36.3509 26.3427 35.554V34.9658L28.5888 34.4108C29.3531 34.2181 29.8257 33.4473 29.6419 32.6866L28.9709 29.9004H30.0415C30.8889 29.9004 31.5788 29.2136 31.5788 28.3718V15.8936H32.4627C33.3101 15.8936 34 15.2314 34 14.423V13.671C34 13.1725 33.7507 12.7234 33.3146 12.4495ZM20.9989 28.1907C21.467 28.1907 21.8463 27.8154 21.8463 27.3489C21.8463 26.8867 21.4656 26.5071 20.9989 26.5071C20.5321 26.5071 20.1515 26.8867 20.1515 27.3489C20.1515 27.8154 20.5321 28.1907 20.9989 28.1907ZM20.9989 25.5392C19.9939 25.5392 19.1757 26.352 19.1757 27.3489C19.1757 28.3501 19.9939 29.1629 20.9989 29.1629C22.0038 29.1629 22.822 28.3501 22.822 27.3489C22.822 26.352 22.0038 25.5392 20.9989 25.5392ZM23.7584 32.9213V21.7806C23.1137 21.6097 22.6047 21.1026 22.4311 20.4607H19.568C19.3944 21.1026 18.8854 21.6082 18.2393 21.7806V32.9213C18.884 33.0922 19.3945 33.5993 19.568 34.2412H22.4311C22.6047 33.5993 23.1137 33.0937 23.7584 32.9213ZM24.247 20.8737C23.7482 20.8737 23.3427 20.4695 23.3427 19.9754C23.3427 19.7102 23.1254 19.4929 22.8541 19.4929H19.1436C18.8738 19.4929 18.655 19.7088 18.655 19.9754C18.655 20.4695 18.2495 20.8737 17.7507 20.8737C17.4808 20.8737 17.2621 21.0896 17.2621 21.3606V33.3432C17.2621 33.6127 17.4808 33.83 17.7507 33.83C18.2495 33.83 18.655 34.2299 18.655 34.7284C18.655 34.9935 18.8738 35.2109 19.1436 35.2109H22.8556C23.1254 35.2109 23.3442 34.995 23.3442 34.7284C23.3442 34.2299 23.7496 33.83 24.2485 33.83C24.5183 33.83 24.7371 33.6141 24.7371 33.3432L24.7356 21.3591C24.7356 21.0896 24.5168 20.8737 24.247 20.8737Z" fill="#FF9900"/>
</svg>
