<svg width="42" height="42" viewBox="0 0 42 42" fill="none" xmlns="http://www.w3.org/2000/svg">
<rect width="42" height="42" rx="4" fill="#FFCA28" fill-opacity="0.2"/>
<path d="M31.4284 29.3065H24.7002V30.9438H25.0851C26.0117 30.9438 26.8546 31.334 27.4646 31.9617C28.0747 32.5894 28.4539 33.4568 28.4539 34.4103V34.4689C28.4539 34.762 28.2226 35 27.9377 35H12.2675C11.9826 35 11.7514 34.762 11.7514 34.4689V34.4103C11.7514 33.4568 12.1306 32.5894 12.7406 31.9617C13.3506 31.334 14.1935 30.9438 15.1202 30.9438H15.5042V29.3065H7.26536C6.62851 29.3065 6.05302 28.9966 5.64011 28.4985C5.24507 28.0238 5 27.3735 5 26.6638V9.64392C5 8.93589 5.24507 8.28558 5.63889 7.80924C6.0514 7.30948 6.62688 7 7.26536 7H32.9752C33.6117 7 34.1872 7.31031 34.6001 7.8084C34.9947 8.28307 35.2398 8.93464 35.2398 9.64392V9.83923V9.85303V9.86683V24.6296L35.9669 25.0617C36.4615 25.3544 36.7927 25.8278 36.9293 26.3531C37.0658 26.8784 37.0085 27.458 36.7236 27.9657L35.8681 29.4888C35.584 29.9974 35.124 30.3386 34.6131 30.4791C34.103 30.6197 33.5393 30.5607 33.046 30.2675L31.4284 29.3065ZM20.1028 15.6561C21.0778 15.6561 21.9618 16.0634 22.6007 16.7209C23.2395 17.3783 23.6354 18.2879 23.6354 19.2912C23.6354 20.2945 23.2395 21.2037 22.6007 21.8611C21.9618 22.5185 21.0778 22.9259 20.1028 22.9259C19.1278 22.9259 18.2439 22.5185 17.605 21.8611C16.9661 21.2037 16.5703 20.2945 16.5703 19.2912C16.5703 18.2879 16.9661 17.3783 17.605 16.7209C18.2439 16.0634 19.1278 15.6561 20.1028 15.6561ZM21.8707 17.472C21.4188 17.0069 20.7929 16.7184 20.1028 16.7184C19.4127 16.7184 18.7869 17.0069 18.3349 17.472C17.883 17.937 17.6026 18.5811 17.6026 19.2912C17.6026 20.0013 17.883 20.6449 18.3349 21.11C18.7869 21.575 19.4127 21.8636 20.1028 21.8636C20.7929 21.8636 21.4188 21.575 21.8707 21.11C22.3227 20.6449 22.6031 20.0013 22.6031 19.2912C22.6031 18.5811 22.3227 17.937 21.8707 17.472ZM18.6003 12.2134C19.1006 12.1005 19.6029 12.0449 20.0988 12.0449C20.6052 12.0474 21.1103 12.1043 21.6033 12.2155L22.4869 10.9496C22.6466 10.7212 22.951 10.6627 23.179 10.8116L25.7187 12.3201C25.9499 12.4564 26.0385 12.7508 25.9308 12.9955L25.3098 14.4149C25.4374 14.5596 25.5606 14.7101 25.6776 14.8669C25.8666 15.1195 26.0414 15.3876 26.1991 15.6687C26.3568 15.9497 26.4953 16.2399 26.614 16.5356C26.6876 16.7188 26.753 16.9041 26.8111 17.0897L28.3137 17.2445C28.586 17.2721 28.7879 17.5142 28.7774 17.7923L28.7778 20.8106C28.7778 21.0849 28.5742 21.3111 28.3141 21.3371L27.1566 21.4567L28.4917 22.2496C28.7274 22.0434 29.0029 21.8971 29.2947 21.8163C29.8048 21.6758 30.3689 21.7348 30.8623 22.028L34.2075 24.0161V10.3842H12.5801C12.374 10.3842 12.1956 10.2595 12.1131 10.0793L11.03 8.06225H7.26536C6.94267 8.06225 6.64273 8.2287 6.42083 8.49636C6.18105 8.78492 6.0323 9.19142 6.0323 9.64392V26.6638C6.0323 27.1151 6.18145 27.5207 6.42124 27.8101C6.64151 28.0786 6.94145 28.2442 7.26536 28.2442H29.6406L27.9036 27.2121C27.4313 26.9181 27.1123 26.4551 26.979 25.9428C26.9298 25.7538 26.9062 25.5585 26.9087 25.3611L25.4537 24.4962L25.9316 25.5861C26.0467 25.8491 25.9361 26.1586 25.6841 26.2824L23.1599 27.7817C22.9295 27.9176 22.6385 27.8499 22.4869 27.632L21.6045 26.3698C21.1075 26.4815 20.6039 26.5363 20.1057 26.5358C19.5985 26.5379 19.0937 26.4806 18.6007 26.3698L17.7196 27.632C17.5599 27.8603 17.2555 27.9189 17.0275 27.77L14.4874 26.2619C14.2561 26.1256 14.1675 25.8312 14.2752 25.5865L14.8954 24.1684C14.7678 24.0237 14.6447 23.8723 14.5272 23.7154C14.3411 23.467 14.1659 23.1985 14.0058 22.9125C13.8461 22.6273 13.7067 22.337 13.5904 22.0459C13.5173 21.8628 13.4514 21.6779 13.3937 21.4922L11.8916 21.3375C11.6262 21.3107 11.4275 21.0795 11.4275 20.8106L11.4258 17.7718C11.4258 17.4824 11.651 17.247 11.931 17.2407L13.3961 17.0902C13.5486 16.5979 13.7538 16.1203 14.0074 15.6674C14.2573 15.2208 14.5548 14.7996 14.8958 14.4144L14.2736 12.9967C14.1586 12.7337 14.2691 12.4242 14.5211 12.3004L17.0454 10.8011C17.2758 10.6652 17.5668 10.7329 17.7184 10.9508L18.6003 12.2134ZM26.5096 22.2931C26.4161 22.5051 26.3116 22.713 26.1983 22.9154C26.0861 23.1153 25.9646 23.3098 25.8341 23.4988L27.1968 24.3089L27.2025 24.298L27.8739 23.1036L26.5096 22.2931ZM20.0988 13.105C19.5733 13.1071 19.049 13.1761 18.5402 13.3171C18.3341 13.384 18.1008 13.3116 17.9679 13.1213L17.1551 11.9566L15.4043 12.9967L15.9781 14.304C16.0631 14.4998 16.0273 14.7377 15.8712 14.8975C15.4863 15.2898 15.1596 15.7276 14.8983 16.1943C14.6317 16.6707 14.4268 17.1838 14.2911 17.7162C14.2374 17.9241 14.0635 18.0863 13.8436 18.1085L12.4581 18.2511V20.3317L13.8286 20.4726C14.0419 20.4889 14.2313 20.6416 14.2886 20.8662C14.3557 21.1292 14.4406 21.3898 14.5422 21.6436C14.6438 21.8979 14.7629 22.1467 14.8966 22.3855C15.0291 22.6218 15.1787 22.8502 15.3417 23.068C15.4998 23.2797 15.6713 23.48 15.8517 23.6661C16.0147 23.8162 16.072 24.0634 15.9777 24.2792L15.4043 25.5857L17.1559 26.6258L17.9448 25.4962C18.0606 25.2979 18.2943 25.1938 18.5219 25.2574C19.0352 25.4012 19.5688 25.4757 20.1057 25.4757C20.6259 25.4778 21.1514 25.4084 21.6647 25.2662C21.8707 25.1992 22.104 25.2716 22.2369 25.4619L23.0502 26.6262L24.8006 25.5861L24.2271 24.2792C24.1422 24.0835 24.178 23.8455 24.334 23.6857C24.7193 23.2935 25.0457 22.8556 25.3074 22.3885C25.5744 21.9121 25.7788 21.3994 25.915 20.8666C25.9686 20.6587 26.1426 20.4965 26.3624 20.4743L27.7495 20.3313L27.7491 18.2507L26.3763 18.1093C26.1629 18.093 25.9735 17.9404 25.9162 17.7158C25.8491 17.4532 25.7642 17.1926 25.6622 16.9379C25.5626 16.6895 25.4444 16.4423 25.3082 16.1998C25.1721 15.9568 25.0225 15.7276 24.8632 15.5143C24.7055 15.3036 24.5344 15.1037 24.3539 14.918C24.191 14.7678 24.1333 14.5207 24.2275 14.3045L24.8018 12.9963L23.0506 11.9558L22.2357 13.123C22.1138 13.2966 21.8959 13.3836 21.6834 13.3242C21.1697 13.1799 20.6352 13.105 20.0988 13.105ZM28.9314 23.3361L28.0755 24.8618C27.9341 25.1135 27.906 25.4046 27.9747 25.6693C28.0426 25.9294 28.2051 26.1649 28.4457 26.3113L33.5621 29.3508C33.8072 29.4964 34.0904 29.5252 34.3473 29.4545C34.6038 29.3839 34.8354 29.2128 34.9772 28.9598L35.8328 27.4346C35.9742 27.1824 36.0022 26.8909 35.9335 26.6266C35.8649 26.3623 35.6986 26.1243 35.4528 25.9784L30.3461 22.9447C30.1011 22.7991 29.8174 22.7703 29.5605 22.841C29.3114 22.91 29.0867 23.0722 28.9444 23.3114L28.9314 23.3361ZM10.7175 9.96595C10.4326 9.96595 10.2013 9.72798 10.2013 9.43482C10.2013 9.14165 10.4326 8.90369 10.7175 8.90369C11.0028 8.90369 11.234 9.14165 11.234 9.43482C11.234 9.72798 11.0028 9.96595 10.7175 9.96595ZM8.93451 9.96595C8.64921 9.96595 8.41796 9.72798 8.41796 9.43482C8.41796 9.14165 8.64921 8.90369 8.93411 8.90369C9.21982 8.90369 9.45107 9.14165 9.45107 9.43482C9.45107 9.72798 9.21982 9.96595 8.93451 9.96595ZM7.15075 9.96595C6.86586 9.96595 6.63461 9.72798 6.63461 9.43482C6.63461 9.14165 6.86586 8.90369 7.15075 8.90369C7.43606 8.90369 7.66731 9.14165 7.66731 9.43482C7.66731 9.72798 7.43606 9.96595 7.15075 9.96595ZM34.1815 9.3219C34.1291 9.00072 33.9998 8.71508 33.819 8.49677C33.5987 8.22828 33.2983 8.06225 32.9752 8.06225H12.207L12.8833 9.3219H34.1815ZM23.6679 30.9438V29.3065H16.5365V30.9438H23.6679ZM25.0851 32.006H15.1202C14.4784 32.006 13.894 32.277 13.4705 32.7128C13.1507 33.0419 12.9223 33.4656 12.8296 33.9377H27.3756C27.283 33.4656 27.0546 33.0419 26.7347 32.7128C26.3112 32.277 25.7268 32.006 25.0851 32.006Z" fill="#FF9900"/>
</svg>
