<svg width="42" height="42" viewBox="0 0 42 42" fill="none" xmlns="http://www.w3.org/2000/svg">
<rect width="42" height="42" rx="4" fill="#FFCA28" fill-opacity="0.2"/>
<path d="M15.2978 20.638H25.6991C25.9377 20.638 26.1314 20.4398 26.1314 20.1943V17.4409V17.4246C26.0721 15.7284 24.8043 14.4078 22.7616 13.837C23.3297 13.2485 23.681 12.4425 23.681 11.5523C23.681 9.75702 22.2541 8.29596 20.4991 8.29596C18.7441 8.29596 17.3172 9.75702 17.3172 11.5523C17.3172 12.4425 17.6685 13.2485 18.2367 13.837C16.1925 14.4078 14.9261 15.7284 14.8668 17.4246V17.4409V20.1943C14.8668 20.4383 15.0606 20.638 15.2991 20.638H15.2978ZM20.4994 9.18169C21.7774 9.18169 22.8168 10.2449 22.8168 11.5537C22.8168 12.8609 21.7774 13.9242 20.4994 13.9242C19.2215 13.9242 18.182 12.8609 18.182 11.5537C18.182 10.2464 19.2215 9.18169 20.4994 9.18169ZM15.7316 17.4497C15.7981 15.7076 17.5502 14.8056 19.2142 14.5276C19.6074 14.7065 20.0425 14.8071 20.4994 14.8071C20.9577 14.8071 21.3914 14.705 21.7846 14.5276C23.4471 14.8041 25.2007 15.7076 25.2672 17.4497V19.7521H15.73V17.4497H15.7316ZM29.8238 31.7687L34.7652 26.7156C35.7526 25.7041 36.1689 24.3362 35.9376 22.8632L34.9068 16.247C34.7666 15.3419 33.9816 14.9412 33.279 15.0122C32.5866 15.0817 31.9028 15.6244 31.9375 16.5279L32.0951 20.7172C32.004 20.6625 31.9071 20.6152 31.8059 20.5752C31.0975 20.2987 30.3256 20.4658 29.7921 21.0114L26.6522 24.2234L26.0609 24.3861C25.3453 24.5813 24.7641 24.9229 24.235 25.4641L22.7807 26.9533C22.0015 27.7474 21.5996 28.7367 21.5866 29.8931L21.5475 33.3268C21.0806 33.4895 20.7408 33.9376 20.7408 34.4699V35.7861C20.7408 36.4545 21.2728 36.9972 21.9248 36.9972H29.0231C29.6765 36.9972 30.2071 36.453 30.2071 35.7861V34.4699C30.2071 33.9243 29.85 33.4659 29.3628 33.315L29.3469 33.0784C29.3122 32.5712 29.4727 32.1305 29.824 31.7697L29.8238 31.7687ZM23.3905 27.5795L24.8449 26.0903C25.2684 25.6585 25.7108 25.3983 26.2833 25.2415L26.9873 25.0478C27.061 25.0271 27.1275 24.9886 27.181 24.9339L30.4034 21.6377C30.6968 21.3375 31.1059 21.2503 31.4963 21.4026C31.8866 21.5549 32.1324 21.8994 32.1555 22.3224C32.1728 22.6211 32.063 22.9139 31.8577 23.1239L28.8392 26.2146C28.67 26.3876 28.67 26.6671 28.8392 26.8401C28.923 26.9258 29.0343 26.9702 29.1456 26.9702C29.257 26.9702 29.3668 26.9273 29.4521 26.8401L32.4706 23.7494C32.8479 23.3634 33.0474 22.8281 33.02 22.281V22.278L32.8031 16.49C32.7829 15.9754 33.2672 15.9 33.3655 15.8897C33.4276 15.8837 33.9698 15.8453 34.0536 16.3836L35.0844 22.9999C35.2723 24.2021 34.9514 25.2698 34.1548 26.0876L29.2123 31.1422C28.6832 31.6849 28.4317 32.3755 28.4837 33.1371L28.4909 33.2569H22.4119L22.4509 29.903C22.4625 28.9743 22.7689 28.2142 23.392 27.5783L23.3905 27.5795ZM29.3393 35.7854C29.3393 35.9658 29.1962 36.1122 29.0198 36.1122H21.9216C21.7452 36.1122 21.6021 35.9658 21.6021 35.7854V34.4692C21.6021 34.2888 21.7452 34.1424 21.9216 34.1424H29.0198C29.1962 34.1424 29.3393 34.2888 29.3393 34.4692V35.7854ZM19.4539 33.3276L19.4149 29.8939C19.4019 28.7374 19 27.7496 18.2208 26.9555L16.765 25.4649C16.2359 24.9251 15.6562 24.5835 14.9406 24.3883L14.3478 24.2256L11.2079 21.0137C10.6744 20.468 9.90246 20.3009 9.19408 20.5775C9.09288 20.6174 8.99602 20.6647 8.90495 20.7194L9.06252 16.5302C9.09722 15.6266 8.41343 15.0839 7.72096 15.0144C7.01838 14.9449 6.23339 15.3457 6.09317 16.2492L5.0624 22.8655C4.8311 24.3383 5.24744 25.7077 6.23484 26.7193L11.1762 31.7725C11.5275 32.1333 11.6894 32.574 11.6533 33.0827L11.6389 33.3178C11.1517 33.4686 10.7946 33.9256 10.7946 34.4727V35.7889C10.7946 36.4573 11.3266 37 11.9786 37H19.0769C19.7303 37 20.2609 36.4558 20.2609 35.7889V34.4727C20.2609 33.9404 19.9211 33.4923 19.4542 33.3296L19.4539 33.3276ZM6.84653 26.0905C6.04999 25.2742 5.72761 24.2065 5.91554 23.0028L6.94631 16.3865C7.03015 15.8482 7.57227 15.8867 7.63445 15.894C7.73131 15.9044 8.21559 15.9783 8.19679 16.4944L7.97994 22.2824V22.2853C7.95248 22.8325 8.15198 23.3664 8.5293 23.7538L11.5478 26.8445C11.6317 26.9317 11.743 26.9746 11.8543 26.9746C11.9656 26.9746 12.0755 26.9317 12.1608 26.8445C12.3299 26.6715 12.3299 26.392 12.1608 26.219L9.14226 23.1283C8.93697 22.9168 8.8271 22.6255 8.84445 22.3268C8.86758 21.9023 9.11334 21.5593 9.50365 21.4069C9.89542 21.2546 10.3031 21.3419 10.5966 21.6421L13.8189 24.9383C13.8724 24.993 13.9389 25.0329 14.0126 25.0522L14.7181 25.2459C15.2891 25.4012 15.7329 25.6629 16.1551 26.0932L17.6108 27.5839C18.2325 28.2183 18.5404 28.9784 18.5505 29.907L18.5896 33.2609H12.5105L12.5177 33.1426C12.5698 32.3796 12.3182 31.689 11.7891 31.1463L6.8477 26.0931L6.84653 26.0905ZM19.3947 35.7853C19.3947 35.9657 19.2516 36.1121 19.0752 36.1121H11.9769C11.8006 36.1121 11.6575 35.9657 11.6575 35.7853V34.4691C11.6575 34.2887 11.8006 34.1423 11.9769 34.1423H19.0752C19.2516 34.1423 19.3947 34.2887 19.3947 34.4691V35.7853ZM10.8727 14.8458C10.8727 13.4971 11.143 12.1855 11.6534 10.97C11.464 11.0735 11.2255 11.0262 11.0982 10.8428C10.9609 10.6432 11.0072 10.3666 11.2023 10.2262L12.6653 9.1688C12.6682 9.16585 12.6725 9.16585 12.6754 9.16289C12.6856 9.15697 12.6957 9.15254 12.7044 9.1481C12.739 9.1274 12.7752 9.11261 12.8142 9.10374C12.8287 9.10078 12.8417 9.09782 12.8561 9.09486C12.8981 9.08895 12.9414 9.08895 12.9834 9.09634C12.9906 9.09782 12.9978 9.09634 13.005 9.09782C13.047 9.10669 13.0875 9.12148 13.125 9.14366C13.1323 9.1481 13.1366 9.15401 13.1438 9.15845C13.1482 9.16141 13.154 9.16141 13.1583 9.16437C13.1655 9.17028 13.1699 9.17767 13.1771 9.18359C13.2103 9.20873 13.2378 9.2383 13.2609 9.27232C13.2682 9.28267 13.2768 9.29302 13.2826 9.30337C13.3072 9.34626 13.326 9.39358 13.3361 9.44238C13.3375 9.45125 13.3375 9.46013 13.3375 9.469C13.3419 9.49858 13.3462 9.52815 13.3433 9.55773L13.2204 11.3855C13.2045 11.6192 13.0152 11.7981 12.7896 11.7981C12.7795 11.7981 12.7694 11.7981 12.7593 11.7966C12.5757 11.7833 12.4282 11.6546 12.3776 11.4846C11.3006 14.2262 11.5955 17.419 13.2681 19.9108C13.404 20.1119 13.3534 20.3884 13.1568 20.526C13.0817 20.5792 12.9964 20.6043 12.9125 20.6043C12.7752 20.6043 12.6393 20.5378 12.5554 20.4121C11.4538 18.7707 10.8712 16.8452 10.8712 14.8429L10.8727 14.8458ZM14.9422 7.33798C14.8063 7.13686 14.8569 6.86033 15.0535 6.7228C16.6582 5.59595 18.5404 5 20.4979 5C21.8163 5 23.0986 5.27653 24.2868 5.79708C24.1856 5.60336 24.2319 5.35938 24.4111 5.22922C24.6063 5.08874 24.8766 5.13606 25.014 5.33422L26.0491 6.83074C26.052 6.8337 26.052 6.83814 26.0548 6.8411C26.0606 6.85145 26.065 6.8618 26.0707 6.87215C26.091 6.90764 26.1054 6.94461 26.1141 6.98454C26.117 6.99933 26.1199 7.01264 26.1228 7.02743C26.1286 7.07031 26.1286 7.11319 26.1213 7.15756C26.1199 7.16495 26.1213 7.17235 26.1199 7.18122C26.1112 7.2241 26.0968 7.26551 26.0751 7.30396C26.0708 7.31135 26.065 7.31727 26.0606 7.32466C26.0577 7.3291 26.0577 7.33354 26.0548 7.33797C26.0462 7.3498 26.0361 7.36015 26.0259 7.37051C26.0158 7.38381 26.0057 7.39564 25.9941 7.40747C25.9782 7.42374 25.9594 7.43557 25.9421 7.44888C25.9305 7.45776 25.919 7.46663 25.9059 7.47402C25.8843 7.48585 25.8626 7.49472 25.8409 7.50212C25.8293 7.50656 25.8178 7.51247 25.8062 7.51543C25.7715 7.5243 25.7368 7.52874 25.7021 7.53022H25.6978C25.6877 7.53022 25.679 7.53022 25.6689 7.52874L23.8792 7.40452C23.6406 7.38825 23.4599 7.17679 23.4758 6.93278C23.4888 6.74202 23.6175 6.59266 23.7867 6.5424C21.105 5.43921 17.9807 5.73942 15.5448 7.45184C15.3482 7.59085 15.0779 7.53909 14.9434 7.33798L14.9422 7.33798ZM25.9423 22.9673C24.3376 24.0956 22.4554 24.6915 20.4979 24.6915C19.1795 24.6915 17.8972 24.415 16.709 23.893C16.8116 24.0867 16.7654 24.3307 16.5847 24.4623C16.5095 24.517 16.4213 24.5436 16.3346 24.5436C16.1987 24.5436 16.0657 24.4786 15.9804 24.3573L14.9453 22.8593C14.9424 22.8564 14.9424 22.8519 14.9395 22.849C14.9337 22.8386 14.9294 22.8283 14.925 22.8194C14.9048 22.7839 14.8903 22.7469 14.8817 22.707C14.8788 22.6922 14.8759 22.6789 14.873 22.6641C14.8672 22.6212 14.8672 22.5783 14.8744 22.5355C14.8759 22.5281 14.8744 22.5207 14.8759 22.5118C14.8846 22.4689 14.899 22.4275 14.9207 22.3891C14.925 22.3817 14.9308 22.3772 14.9352 22.3698C14.938 22.3654 14.938 22.3595 14.9409 22.355C14.9467 22.3476 14.9539 22.3432 14.9597 22.3358C14.9843 22.3033 15.0132 22.2752 15.0465 22.25C15.0566 22.2427 15.0667 22.2338 15.0783 22.2264C15.1202 22.2013 15.165 22.182 15.2142 22.1717C15.2243 22.1702 15.233 22.1702 15.2431 22.1687C15.2705 22.1643 15.2995 22.1598 15.3284 22.1628L17.1181 22.2885C17.3566 22.3048 17.5373 22.5162 17.52 22.7602C17.5069 22.9495 17.3797 23.0989 17.212 23.1506C19.8923 24.2538 23.0165 23.9521 25.4524 22.2397C25.649 22.1007 25.9193 22.1525 26.0538 22.3536C26.1897 22.5547 26.1391 22.8312 25.9425 22.9687L25.9423 22.9673ZM28.6168 18.2041C29.6938 15.4624 29.3989 12.2681 27.7263 9.77786C27.5904 9.57675 27.641 9.30022 27.8376 9.16269C28.0342 9.02368 28.3045 9.07544 28.439 9.27655C29.5406 10.9165 30.1232 12.8419 30.1232 14.8442C30.1232 16.1928 29.8528 17.5045 29.3439 18.72C29.5333 18.6165 29.7718 18.6638 29.8991 18.8472C30.0364 19.0468 29.9901 19.3233 29.7964 19.4638L28.3334 20.5226C28.3277 20.5271 28.3204 20.5286 28.3132 20.533C28.2886 20.5493 28.2626 20.5626 28.2351 20.5729C28.2236 20.5774 28.2134 20.5818 28.2019 20.5862C28.1643 20.5966 28.1253 20.604 28.0848 20.604H28.0833H28.0804C28.0414 20.604 28.0024 20.5981 27.9648 20.5862C27.9518 20.5818 27.9402 20.5759 27.9272 20.5714C27.9084 20.5641 27.8882 20.5581 27.8694 20.5478C27.8636 20.5448 27.8593 20.5389 27.8535 20.536C27.8477 20.533 27.8419 20.5315 27.8361 20.5271C27.8289 20.5212 27.8246 20.5138 27.8173 20.5079C27.7855 20.4827 27.7566 20.4531 27.7335 20.4191C27.7263 20.4088 27.7176 20.3984 27.7104 20.3881C27.6858 20.3452 27.667 20.2979 27.6569 20.2491C27.6554 20.2402 27.6554 20.2313 27.6554 20.2225C27.6511 20.1929 27.6467 20.1633 27.6496 20.1337L27.7725 18.303C27.7884 18.059 27.9952 17.8741 28.2337 17.8919C28.4173 17.9052 28.5647 18.0353 28.6153 18.2054L28.6168 18.2041Z" fill="#FF9900"/>
</svg>
