<svg width="42" height="42" viewBox="0 0 42 42" fill="none" xmlns="http://www.w3.org/2000/svg">
<rect width="42" height="42" rx="4" fill="#FFCA28" fill-opacity="0.2"/>
<path d="M27.9987 14.332C27.9987 14.0668 27.8933 13.8125 27.7058 13.6249C27.5183 13.4374 27.2639 13.332 26.9987 13.332C26.7335 13.332 26.4791 13.4374 26.2916 13.6249C26.1041 13.8125 25.9987 14.0668 25.9987 14.332V15.9987H24.332C24.0668 15.9987 23.8125 16.1041 23.6249 16.2916C23.4374 16.4791 23.332 16.7335 23.332 16.9987C23.332 17.2639 23.4374 17.5183 23.6249 17.7058C23.8125 17.8933 24.0668 17.9987 24.332 17.9987H25.9987V19.6654C25.9987 19.9306 26.1041 20.1849 26.2916 20.3725C26.4791 20.56 26.7335 20.6654 26.9987 20.6654C27.2639 20.6654 27.5183 20.56 27.7058 20.3725C27.8933 20.1849 27.9987 19.9306 27.9987 19.6654V17.9987H29.6654C29.9306 17.9987 30.1849 17.8933 30.3725 17.7058C30.56 17.5183 30.6654 17.2639 30.6654 16.9987C30.6654 16.7335 30.56 16.4791 30.3725 16.2916C30.1849 16.1041 29.9306 15.9987 29.6654 15.9987H27.9987V14.332Z" fill="#FF9900"/>
<path fill-rule="evenodd" clip-rule="evenodd" d="M35.3327 17.4221C35.3327 12.9874 33.3567 9.67808 30.2793 8.47408C27.4327 7.35808 24.0153 8.19275 20.9993 11.0154C17.9833 8.19275 14.566 7.35808 11.7193 8.47408C8.64202 9.67808 6.66602 12.9874 6.66602 17.4207C6.66602 20.2461 8.17268 23.0247 10.0487 25.4167C11.9447 27.8341 14.3287 29.9981 16.318 31.6127L16.4967 31.7594C18.0967 33.0594 19.254 33.9994 20.9993 33.9994C22.746 33.9994 23.9007 33.0594 25.502 31.7594L25.6807 31.6127C27.67 29.9994 30.054 27.8341 31.95 25.4167C33.826 23.0247 35.3327 20.2461 35.3327 17.4221ZM21.73 13.1141C24.546 10.1021 27.4647 9.51941 29.5513 10.3354C31.642 11.1541 33.3327 13.5487 33.3327 17.4221C33.3327 19.5701 32.1593 21.9074 30.3753 24.1821C28.61 26.4354 26.354 28.4914 24.4207 30.0607C22.5633 31.5674 21.9633 31.9981 20.9993 31.9981C20.0353 31.9981 19.4353 31.5674 17.578 30.0594C15.6447 28.4914 13.3887 26.4341 11.6233 24.1834C9.83802 21.9074 8.66602 19.5701 8.66602 17.4221C8.66602 13.5487 10.3567 11.1554 12.4473 10.3354C14.534 9.51941 17.4527 10.1021 20.2687 13.1141C20.3622 13.2142 20.4754 13.294 20.6011 13.3486C20.7268 13.4032 20.8623 13.4313 20.9993 13.4313C21.1364 13.4313 21.2719 13.4032 21.3976 13.3486C21.5233 13.294 21.6365 13.2142 21.73 13.1141Z" fill="#FF9900"/>
</svg>
