<svg width="191" height="52" viewBox="0 0 191 52" fill="none" xmlns="http://www.w3.org/2000/svg">
<path d="M0 35.0394V7.92962H4.09472V31.5183H16.3921V35.0394H0Z" fill="#03294F"/>
<path d="M20.7453 35.0394V14.7071H24.7075V35.0394H20.7453ZM22.7462 11.5699C22.0572 11.5699 21.4653 11.3404 20.9705 10.8815C20.4847 10.4138 20.2417 9.85784 20.2417 9.21363C20.2417 8.56059 20.4847 8.00463 20.9705 7.54574C21.4653 7.07803 22.0572 6.84417 22.7462 6.84417C23.4353 6.84417 24.0228 7.07803 24.5087 7.54574C25.0034 8.00463 25.2508 8.56059 25.2508 9.21363C25.2508 9.85784 25.0034 10.4138 24.5087 10.8815C24.0228 11.3404 23.4353 11.5699 22.7462 11.5699Z" fill="#03294F"/>
<path d="M34.0001 22.9671V35.0394H30.0379V14.7071H33.8411V18.0164H34.0929C34.5611 16.9397 35.2943 16.0749 36.2926 15.4219C37.2997 14.7688 38.5675 14.4423 40.0958 14.4423C41.4828 14.4423 42.6975 14.7335 43.74 15.316C44.7824 15.8896 45.5908 16.7456 46.165 17.884C46.7392 19.0224 47.0264 20.43 47.0264 22.1067V35.0394H43.0642V22.5832C43.0642 21.1095 42.6799 19.9578 41.9113 19.1283C41.1427 18.2899 40.087 17.8708 38.7441 17.8708C37.8254 17.8708 37.0082 18.0693 36.2926 18.4664C35.5859 18.8636 35.0249 19.446 34.6097 20.2137C34.2033 20.9727 34.0001 21.8905 34.0001 22.9671Z" fill="#03294F"/>
<path d="M55.9844 28.1428L55.9579 23.3113H56.647L64.7569 14.7071H69.5009L60.2514 24.5026H59.6286L55.9844 28.1428ZM52.3402 35.0394V7.92962H56.3024V35.0394H52.3402ZM65.1942 35.0394L57.9059 25.3763L60.6357 22.6097L70.0575 35.0394H65.1942Z" fill="#03294F"/>
<path d="M81.0463 35.4498C79.0409 35.4498 77.3138 35.0218 75.865 34.1658C74.425 33.3009 73.3119 32.0875 72.5256 30.5255C71.7482 28.9547 71.3595 27.1147 71.3595 25.0056C71.3595 22.923 71.7482 21.0874 72.5256 19.4989C73.3119 17.9105 74.4073 16.6706 75.812 15.7793C77.2255 14.888 78.8775 14.4423 80.7681 14.4423C81.9165 14.4423 83.0297 14.6321 84.1074 15.0115C85.1852 15.391 86.1526 15.9867 87.0095 16.7986C87.8665 17.6104 88.5423 18.665 89.037 19.9622C89.5317 21.2507 89.7791 22.8171 89.7791 24.6615V26.0646H73.599V23.0995H85.8964C85.8964 22.0581 85.6844 21.1359 85.2603 20.3329C84.8363 19.521 84.24 18.8812 83.4714 18.4135C82.7116 17.9458 81.8193 17.7119 80.7946 17.7119C79.6814 17.7119 78.7096 17.9855 77.8792 18.5326C77.0576 19.0709 76.4216 19.7769 75.971 20.6506C75.5293 21.5154 75.3084 22.4553 75.3084 23.4701V25.7866C75.3084 27.1456 75.547 28.3017 76.024 29.2548C76.5099 30.2078 77.1857 30.9359 78.0515 31.4389C78.9173 31.9331 79.9288 32.1802 81.0861 32.1802C81.837 32.1802 82.5217 32.0743 83.1401 31.8625C83.7585 31.6419 84.293 31.3154 84.7435 30.8829C85.1941 30.4505 85.5386 29.9166 85.7771 29.2812L89.5273 29.9563C89.2269 31.0594 88.688 32.0258 87.9106 32.8553C87.142 33.676 86.1747 34.3158 85.0085 34.7747C83.8512 35.2247 82.5305 35.4498 81.0463 35.4498Z" fill="#03294F"/>
<path d="M101.795 35.4365C100.152 35.4365 98.6852 35.0174 97.3954 34.179C96.1144 33.3318 95.1073 32.1272 94.3741 30.5652C93.6496 28.9944 93.2874 27.1103 93.2874 24.913C93.2874 22.7156 93.6541 20.8359 94.3873 19.2739C95.1294 17.7119 96.1453 16.5162 97.4352 15.6866C98.725 14.8571 100.187 14.4423 101.821 14.4423C103.085 14.4423 104.101 14.6541 104.869 15.0777C105.647 15.4925 106.247 15.9778 106.671 16.5338C107.104 17.0898 107.44 17.5795 107.679 18.0031H107.917V7.92962H111.879V35.0394H108.01V31.8757H107.679C107.44 32.3081 107.096 32.8023 106.645 33.3583C106.203 33.9143 105.594 34.3996 104.816 34.8144C104.039 35.2292 103.032 35.4365 101.795 35.4365ZM102.67 32.0611C103.809 32.0611 104.772 31.761 105.558 31.1609C106.353 30.552 106.954 29.7092 107.361 28.6326C107.776 27.556 107.983 26.3029 107.983 24.8732C107.983 23.4613 107.78 22.2258 107.374 21.1668C106.967 20.1079 106.371 19.2827 105.585 18.6915C104.799 18.1002 103.827 17.8046 102.67 17.8046C101.477 17.8046 100.483 18.1134 99.6879 18.7312C98.8928 19.3489 98.2921 20.1917 97.8857 21.2595C97.4882 22.3273 97.2894 23.5319 97.2894 24.8732C97.2894 26.2323 97.4926 27.4545 97.899 28.54C98.3054 29.6254 98.9061 30.4858 99.7012 31.1212C100.505 31.7478 101.495 32.0611 102.67 32.0611Z" fill="#03294F"/>
<path d="M147.307 26.8014C147.63 26.8014 147.879 26.963 148.053 27.286C148.252 27.5842 148.352 27.9694 148.352 28.4416C148.352 29.0131 148.264 29.4605 148.09 29.7835C147.916 30.1066 147.643 30.3924 147.269 30.6409C145.802 31.61 143.463 33.2005 140.254 35.4122C139.284 40.5563 138.027 44.6069 136.485 47.5642C134.943 50.5214 132.99 52 130.626 52C129.358 52 128.325 51.6024 127.529 50.8072C126.733 50.0368 126.335 49.0179 126.335 47.7505C126.335 46.5826 126.596 45.4021 127.119 44.2093C127.641 43.0165 128.611 41.6373 130.029 40.0717C131.472 38.5061 133.5 36.7168 136.112 34.7039L136.224 33.9957C134.258 34.8158 132.33 35.2258 130.44 35.2258C127.653 35.2258 125.203 34.6915 123.088 33.6229C120.974 32.5295 119.332 30.9888 118.163 29.0007C116.993 27.0127 116.409 24.7016 116.409 22.0674C116.409 18.3895 117.105 15.1465 118.499 12.3384C119.892 9.50537 121.807 7.31852 124.245 5.77778C126.708 4.21219 129.457 3.42939 132.492 3.42939C135.403 3.42939 137.58 4.11278 139.022 5.47957C140.49 6.82151 141.224 8.61075 141.224 10.8473C141.224 12.3135 140.95 13.4939 140.403 14.3885C139.881 15.2583 139.122 15.6932 138.127 15.6932C137.455 15.6932 136.908 15.5317 136.485 15.2086C136.087 14.8855 135.888 14.4382 135.888 13.8667C135.888 13.6182 135.938 13.1957 136.037 12.5993C136.186 11.9035 136.261 11.3567 136.261 10.9591C136.261 9.91541 135.938 9.10777 135.291 8.5362C134.669 7.96464 133.612 7.67885 132.119 7.67885C130.303 7.67885 128.611 8.20072 127.044 9.24444C125.502 10.2882 124.258 11.8538 123.312 13.9412C122.367 16.0038 121.894 18.4889 121.894 21.3964C121.894 24.3785 122.703 26.6896 124.32 28.3297C125.962 29.945 128.325 30.7527 131.41 30.7527C133.126 30.7527 134.918 30.3675 136.783 29.5971L137.306 25.0495H133.5C132.803 25.0495 132.268 24.8879 131.895 24.5649C131.522 24.217 131.335 23.6578 131.335 22.8875C131.335 22.1916 131.522 21.6449 131.895 21.2473C132.268 20.8497 132.766 20.6509 133.388 20.6509H140.366C140.913 20.6509 141.361 20.8373 141.709 21.21C142.082 21.5579 142.232 22.0674 142.157 22.7383C142.082 23.5336 141.834 25.3352 141.411 28.1434L141 30.9763C142.99 29.4853 144.806 28.1931 146.448 27.0996C146.772 26.9008 147.058 26.8014 147.307 26.8014ZM131.037 48.3842C131.684 48.3842 132.393 47.6511 133.164 46.1849C133.935 44.7188 134.656 42.3579 135.328 39.1025C133.437 40.7178 132.069 42.1716 131.223 43.4638C130.402 44.7809 129.992 45.9364 129.992 46.9305C129.992 47.8996 130.34 48.3842 131.037 48.3842Z" fill="#8BFF58"/>
<path d="M165.09 23.5957C165.413 23.5957 165.662 23.7572 165.836 24.0803C166.01 24.4033 166.097 24.8134 166.097 25.3104C166.097 26.5032 165.736 27.2115 165.015 27.4351C163.522 27.957 161.88 28.2552 160.089 28.3297C159.617 30.4172 158.684 32.0946 157.291 33.362C155.897 34.6045 154.318 35.2258 152.551 35.2258C151.059 35.2258 149.778 34.8655 148.708 34.1448C147.663 33.4241 146.867 32.4674 146.32 31.2746C145.772 30.0817 145.499 28.7895 145.499 27.3978C145.499 25.5092 145.859 23.8318 146.581 22.3656C147.302 20.8746 148.297 19.719 149.566 18.8989C150.835 18.054 152.24 17.6315 153.783 17.6315C155.673 17.6315 157.191 18.2901 158.335 19.6072C159.505 20.8994 160.189 22.5023 160.388 24.4158C161.557 24.3412 162.95 24.0927 164.567 23.6702C164.766 23.6205 164.94 23.5957 165.09 23.5957ZM152.85 31.2746C153.646 31.2746 154.33 30.9515 154.902 30.3054C155.499 29.6593 155.897 28.7274 156.096 27.5097C155.325 26.9878 154.728 26.3044 154.305 25.4595C153.907 24.6146 153.708 23.7199 153.708 22.7756C153.708 22.378 153.745 21.9804 153.82 21.5828H153.634C152.638 21.5828 151.805 22.0674 151.133 23.0366C150.487 23.9809 150.163 25.3228 150.163 27.0624C150.163 28.4292 150.424 29.4729 150.947 30.1935C151.494 30.9142 152.128 31.2746 152.85 31.2746Z" fill="#8BFF58"/>
<path d="M177.037 26.7269C177.361 26.7269 177.609 26.876 177.784 27.1742C177.983 27.4724 178.082 27.8824 178.082 28.4043C178.082 29.3983 177.846 30.1687 177.373 30.7154C176.303 32.0325 175.134 33.1135 173.865 33.9584C172.622 34.8033 171.204 35.2258 169.611 35.2258C167.422 35.2258 165.793 34.2318 164.723 32.2437C163.678 30.2557 163.156 27.6836 163.156 24.5276C163.156 21.4958 163.541 18.0416 164.312 14.1649C165.109 10.2882 166.265 6.95818 167.783 4.17491C169.325 1.39164 171.154 0 173.268 0C174.462 0 175.395 0.55914 176.067 1.67742C176.764 2.77085 177.112 4.34887 177.112 6.41147C177.112 9.3687 176.291 12.7981 174.649 16.6996C173.007 20.6012 170.781 24.4655 167.969 28.2925C168.144 29.3113 168.43 30.0444 168.828 30.4918C169.226 30.9142 169.748 31.1254 170.395 31.1254C171.415 31.1254 172.311 30.8397 173.082 30.2681C173.853 29.6717 174.836 28.6652 176.03 27.2487C176.328 26.9008 176.664 26.7269 177.037 26.7269ZM172.447 3.69032C171.875 3.69032 171.228 4.72163 170.507 6.78423C169.785 8.84683 169.151 11.4065 168.604 14.4631C168.057 17.5197 167.758 20.4521 167.708 23.2602C169.475 20.3527 170.88 17.4452 171.925 14.5376C172.97 11.6053 173.492 8.93381 173.492 6.5233C173.492 4.63465 173.144 3.69032 172.447 3.69032Z" fill="#8BFF58"/>
<path d="M189.955 24.6021C190.652 24.6021 191 25.124 191 26.1677C191 28.1309 189.458 29.1125 186.373 29.1125C185.776 29.1125 184.917 29.0007 183.798 28.7771C184.121 30.3178 184.383 32.0325 184.582 33.9211C184.805 35.7849 184.917 37.3257 184.917 38.5434C184.917 41.2272 184.482 43.2774 183.611 44.6939C182.741 46.1104 181.596 46.8186 180.178 46.8186C178.387 46.8186 177.106 45.5513 176.335 43.0165C175.588 40.4817 175.215 36.6547 175.215 31.5355C175.215 26.7642 175.725 21.9307 176.745 17.0351C177.79 12.1147 179.208 8.05161 180.999 4.84588C182.815 1.61529 184.805 0 186.97 0C188.139 0 189.047 0.521864 189.694 1.56559C190.366 2.60932 190.701 4.01338 190.701 5.77778C190.701 11.6177 187.206 17.9795 180.216 24.8631C179.967 27.2984 179.842 29.4356 179.842 31.2746C179.842 33.8342 179.929 36.4559 180.104 39.1398C180.278 41.8485 180.564 43.2029 180.962 43.2029C181.708 43.2029 182.081 41.9106 182.081 39.3262C182.081 37.3878 181.945 35.5116 181.671 33.6975C181.422 31.8834 181.074 29.9699 180.626 27.957C180.601 27.6339 180.701 27.2239 180.925 26.7269C181.173 26.2299 181.472 25.795 181.82 25.4222C182.168 25.0495 182.479 24.8631 182.753 24.8631C183.251 24.8631 183.848 24.8879 184.544 24.9376C184.768 24.9625 185.029 24.9749 185.328 24.9749C186.323 24.9749 187.43 24.8879 188.649 24.714C188.848 24.6891 189.06 24.6643 189.283 24.6394C189.507 24.6146 189.731 24.6021 189.955 24.6021ZM186.186 3.69032C185.738 3.69032 185.179 4.44827 184.507 5.96416C183.86 7.48005 183.213 9.49295 182.567 12.0029C181.92 14.4879 181.36 17.1221 180.887 19.9054C182.877 17.644 184.407 15.2956 185.477 12.8602C186.547 10.4 187.094 8.10131 187.119 5.96416C187.119 4.44827 186.808 3.69032 186.186 3.69032Z" fill="#8BFF58"/>
</svg>
