<svg width="42" height="42" viewBox="0 0 42 42" fill="none" xmlns="http://www.w3.org/2000/svg">
<rect width="42" height="42" rx="4" fill="#FFCA28" fill-opacity="0.2"/>
<g clip-path="url(#clip0_1633_10163)">
<path d="M23.6245 8.73463C24.3202 8.73221 24.3235 7.67071 23.6245 7.66797L17.6245 7.66797C16.9289 7.67039 16.9256 8.73189 17.6246 8.73463L23.6245 8.73463Z" fill="#FF9900"/>
<path d="M15.5965 26.352L13.2428 25.4176C13.1746 25.3906 13.1444 25.2973 13.1777 25.2145L15.1683 20.2C15.5132 19.3851 15.1063 18.3534 14.2756 18.0427C14.2746 18.0422 14.2262 18.0229 14.2251 18.0224C13.4194 17.7015 12.4944 18.0906 12.122 18.9104L9.87409 23.9864L9.86993 22.4437C9.81548 21.9089 9.62032 21.4049 9.34233 20.9697C9.07618 20.5541 8.70899 20.1953 8.28243 19.9333C7.64368 19.4996 6.67638 20.0018 6.61838 20.7406L5.76995 25.1812C5.76422 25.2119 5.76109 25.2432 5.76057 25.2749L5.71317 29.3942L5.86057 31.6338L5.38713 33.8249C5.33193 34.0796 5.46943 34.3369 5.71161 34.4332L12.0824 36.9629C12.3199 37.0582 12.6013 36.9677 12.7361 36.7426L13.9142 34.791L16.0038 32.2207C16.5056 31.6234 16.6898 29.3051 16.8741 28.5645C16.9923 27.6077 16.4668 26.6978 15.5965 26.352ZM15.3532 31.0556C15.3183 31.2551 15.2392 31.4494 15.1501 31.5827L13.0631 34.1473C13.0475 34.1666 13.0329 34.1869 13.0199 34.2082L12.0564 35.8046L6.52515 33.6082C6.52565 33.5681 6.9778 31.6116 6.92984 31.6385L6.77879 29.3655L6.82671 25.3348L7.67254 20.9C7.67775 20.852 7.71108 20.8442 7.72254 20.8416C8.31299 21.2029 8.69294 21.8022 8.80326 22.4874L8.81212 25.813C8.81212 26.1359 9.03295 26.4088 9.34909 26.476C9.66316 26.54 9.97826 26.3843 10.11 26.0874L13.0949 19.3468C13.2298 19.05 13.5532 18.9036 13.8298 19.013L13.8798 19.0333C14.175 19.1462 14.2995 19.5178 14.1767 19.8062L12.1861 24.8208C11.9361 25.452 12.2329 26.1645 12.8491 26.4093L15.2027 27.3437C15.622 27.5103 15.8741 27.9588 15.8199 28.4067L15.3532 31.0556Z" fill="#FF9900"/>
<path d="M29.6937 11.4C29.5167 11.4 29.3385 11.4087 29.1603 11.4226V7.86926C29.1603 6.28697 27.9379 5 26.4354 5H14.8193C13.3167 5 12.0938 6.28697 12.0938 7.86926V16.477C12.0938 16.7718 12.3323 17.0104 12.6271 17.0104C12.9219 17.0104 13.1604 16.7718 13.1604 16.477V7.86926C13.1604 6.87551 13.9047 6.06666 14.8193 6.06666H26.4354C27.3499 6.06666 28.0937 6.87551 28.0937 7.86926V11.593C21.0189 13.3199 21.0238 23.3496 28.0937 25.0737V27.3999H18.4724C18.1776 27.3999 17.939 27.6384 17.939 27.9332C17.939 28.228 18.1776 28.4666 18.4724 28.4666H28.0937C28.216 29.5392 27.4935 30.6148 26.4353 30.5999L18.051 30.5999C17.3545 30.6095 17.3464 31.655 18.051 31.6665L26.4354 31.6665C27.9379 31.6665 29.1603 30.3796 29.1603 28.7973C29.1612 28.2131 29.1598 25.8692 29.1603 25.2439C33.1561 25.5748 36.645 22.3419 36.627 18.3333C36.627 14.5104 33.5166 11.4 29.6937 11.4ZM29.6937 24.1999C26.4864 24.221 23.7963 21.5541 23.8271 18.3333C24.123 10.5462 35.2517 10.5594 35.5603 18.3333C35.5603 21.5682 32.9286 24.1999 29.6937 24.1999Z" fill="#FF9900"/>
<path d="M28.0901 16.7325C28.0901 16.4378 27.8516 16.1992 27.5568 16.1992H26.338C26.0432 16.1992 25.8047 16.4378 25.8047 16.7325C25.8047 17.0273 26.0432 17.2659 26.338 17.2659H27.5568C27.8516 17.2659 28.0901 17.0273 28.0901 16.7325Z" fill="#FF9900"/>
<path d="M33.0456 16.1992H31.8263C31.5315 16.1992 31.293 16.4378 31.293 16.7325C31.293 17.0273 31.5315 17.2659 31.8263 17.2659H33.0456C33.7427 17.2632 33.7433 16.2019 33.0456 16.1992Z" fill="#FF9900"/>
<path d="M32.3571 18.8672H27.0238C26.729 18.8672 26.4905 19.1057 26.4905 19.4005C26.3523 20.7095 27.0196 21.9035 28.4431 22.3875C30.3233 23.1473 32.9603 21.8576 32.8904 19.9338L32.8904 19.4005C32.8904 19.1057 32.6519 18.8672 32.3571 18.8672ZM29.6904 21.5338C28.7297 21.5786 27.5193 20.8559 27.5571 19.9338H31.8238C31.8238 20.8161 30.867 21.5338 29.6904 21.5338Z" fill="#FF9900"/>
<path d="M15.2887 15.6648C14.5929 15.6665 14.5901 16.7293 15.2888 16.7315L20.622 16.7315C20.9168 16.7315 21.1554 16.4929 21.1554 16.1982V12.9982C21.1554 12.7034 20.9168 12.4648 20.622 12.4648H15.2887C14.5924 12.4681 14.5901 13.5283 15.2888 13.5315L20.0887 13.5315V15.6648H15.2887Z" fill="#FF9900"/>
</g>
<defs>
<clipPath id="clip0_1633_10163">
<rect width="32" height="32" fill="white" transform="translate(5 5)"/>
</clipPath>
</defs>
</svg>
