<svg width="42" height="42" viewBox="0 0 42 42" fill="none" xmlns="http://www.w3.org/2000/svg">
<rect width="42" height="42" rx="4" fill="#FFCA28" fill-opacity="0.2"/>
<path d="M26.7406 17.9285H21.1007C20.8893 17.9285 20.7187 18.0993 20.7187 18.3108V24.4186C20.7187 24.6301 20.8893 24.8009 21.1007 24.8009H26.7406C26.9519 24.8009 27.1225 24.6301 27.1225 24.4186V18.3108C27.1225 18.0993 26.9519 17.9285 26.7406 17.9285ZM26.3586 24.0347H21.4825V18.6934H26.3586V24.0347ZM14.6684 21.9382C14.6481 22.7483 14.1315 23.585 13.3018 24.0566C12.9058 24.2822 12.4894 24.3919 12.0824 24.3919C11.486 24.3919 10.9084 24.1553 10.4388 23.6946C10.2885 23.5473 10.2854 23.3045 10.4341 23.1525C10.5812 23.0021 10.8238 22.9989 10.9757 23.1478C11.7615 23.9202 12.6021 23.574 12.9262 23.3906C13.5194 23.0538 13.9045 22.4521 13.9108 21.9053C12.6741 21.6922 11.3232 20.6596 11.3232 18.3517C11.3232 18.1401 11.4938 17.9693 11.7052 17.9693C11.9165 17.9693 12.0871 18.1401 12.0871 18.3517C12.0871 20.2726 13.1719 21.0686 14.1863 21.172C14.2019 21.1735 14.2176 21.1735 14.2332 21.1751C14.2708 21.1735 14.3084 21.1735 14.3444 21.1814C15.3493 21.2158 16.4952 20.6048 16.7582 19.334C16.8004 19.1272 17.0039 18.994 17.2106 19.0363C17.4172 19.0786 17.5502 19.2823 17.508 19.4892C17.1886 21.0293 15.9019 21.841 14.67 21.9397L14.6684 21.9382ZM15.1944 26.3645C15.2054 26.576 15.0441 26.7562 14.8328 26.7672C13.975 26.8126 13.5273 27.56 13.4725 28.2337C13.4177 28.9153 13.7292 29.7238 14.7655 29.951C14.9721 29.9964 15.1021 30.2001 15.0582 30.4069C15.0191 30.5855 14.861 30.7078 14.6857 30.7078C14.6591 30.7078 14.6309 30.7046 14.6043 30.6984C13.1814 30.3881 12.6272 29.2051 12.7117 28.1726C12.7916 27.1776 13.4772 26.0746 14.7937 26.0041C15.005 25.9931 15.185 26.1545 15.196 26.366L15.1944 26.3645ZM35.2656 21.5933C34.5565 21.5933 33.9647 22.0821 33.7941 22.7386H29.0354V21.7468H31.2253C31.4366 21.7468 31.6073 21.576 31.6073 21.3645C31.6073 21.153 31.4366 20.9822 31.2253 20.9822H29.0354V19.9434H32.0972C32.2084 19.9434 32.3148 19.8948 32.3868 19.8102L34.8805 16.9006C35.0636 16.9773 35.264 17.0212 35.4738 17.0212C36.316 17.0212 37 16.3365 37 15.4935C37 14.6505 36.316 13.9658 35.4738 13.9658C34.6316 13.9658 33.9475 14.6505 33.9475 15.4935C33.9475 15.8476 34.0743 16.1704 34.2763 16.4289L31.9204 19.1772H29.0339V17.9989H30.9342C31.1455 17.9989 31.3162 17.8281 31.3162 17.6166V13.6744C31.972 13.5036 32.4605 12.9114 32.4605 12.2016C32.4605 11.3586 31.7764 10.6739 30.9342 10.6739C30.092 10.6739 29.408 11.3586 29.408 12.2016C29.408 12.9114 29.8964 13.5036 30.5523 13.6744V17.2327H29.0339V16.9084C29.0339 16.3287 28.5627 15.8571 27.9835 15.8571H26.055V13.043H27.4841C27.6955 13.043 27.8661 12.8722 27.8661 12.6607V9.00053C28.522 8.82974 29.0104 8.23749 29.0104 7.52768C29.0104 6.6847 28.3263 6 27.4842 6C26.642 6 25.9579 6.6847 25.9579 7.52768C25.9579 8.23745 26.4463 8.82974 27.1022 9.00053V12.2768H25.673C25.4617 12.2768 25.2911 12.4476 25.2911 12.6591V15.8555H24.3018V13.8186C24.3018 13.6071 24.1311 13.4363 23.9198 13.4363C23.7085 13.4363 23.5379 13.6071 23.5379 13.8186V15.8555H22.5485V9.48625C23.2044 9.31546 23.6928 8.72321 23.6928 8.0134C23.6928 7.17042 23.0088 6.48572 22.1666 6.48572C21.3244 6.48572 20.6404 7.17042 20.6404 8.0134C20.6404 8.72317 21.1288 9.31545 21.7846 9.48625V15.8555H19.8561C19.7481 15.8555 19.6464 15.8759 19.5493 15.9072L19.529 10.6033C19.529 10.5735 19.5258 10.5422 19.518 10.514C18.9795 8.31883 17.1559 7.54167 15.7454 7.54167H15.722C14.418 7.5495 13.233 8.37053 12.7744 9.58326C12.718 9.73367 12.6758 9.88409 12.6444 10.0345C11.7428 9.67257 10.586 10.0345 9.7485 10.9809C8.90944 11.9288 8.71068 13.104 9.18811 14.0864C8.68407 14.3481 8.23949 14.7131 7.90608 15.1628C7.12028 16.2267 7.0827 17.5946 7.77929 18.9859C6.84634 19.1191 6.07461 19.6502 5.57056 20.523C4.75815 21.9269 4.81919 23.9638 5.71614 25.366C6.048 25.8831 6.47064 26.2827 6.96218 26.5662C6.25465 27.7085 6.63346 29.1515 7.40051 30.1621C8.28649 31.3279 9.83464 32.1677 11.4515 31.6334C11.7787 34.1263 13.7479 35.2419 15.6841 35.2419H15.7436C17.6048 35.22 19.5944 34.12 19.6131 32.127V32.1223V32.1207L19.5928 26.8325C19.6773 26.8544 19.765 26.8701 19.8573 26.8701H21.443V32.7973C20.7872 32.9681 20.2987 33.5604 20.2987 34.2702C20.2987 35.1131 20.9828 35.7978 21.825 35.7978C22.6672 35.7978 23.3512 35.1131 23.3512 34.2702C23.3512 33.5604 22.8628 32.9681 22.2069 32.7973V26.8701H23.539V29.3441C23.539 29.5556 23.7097 29.7264 23.921 29.7264C24.1323 29.7264 24.3029 29.5556 24.3029 29.3441V26.8701H25.8135V31.6128C25.8135 31.7162 25.8558 31.815 25.9293 31.887L27.9909 33.8942C27.9173 34.0728 27.8751 34.2686 27.8751 34.4723C27.8751 35.3153 28.5591 36 29.4013 36C30.2435 36 30.9275 35.3153 30.9275 34.4723C30.9275 33.6293 30.2435 32.9446 29.4013 32.9446C29.0444 32.9446 28.7188 33.0731 28.4589 33.2799L26.5789 31.4499V26.8683H27.9878C28.5669 26.8683 29.0381 26.3967 29.0381 25.817V25.5663H30.5565V29.1246C29.9007 29.2954 29.4123 29.8876 29.4123 30.5975C29.4123 31.4404 30.0963 32.1251 30.9385 32.1251C31.7807 32.1251 32.4647 31.4404 32.4647 30.5975C32.4647 29.8877 31.9763 29.2954 31.3204 29.1246V25.1824C31.3204 24.9709 31.1498 24.8001 30.9385 24.8001H29.0381V23.5012H33.7968C33.9675 24.1577 34.5592 24.6466 35.2683 24.6466C36.1105 24.6466 36.7945 23.9619 36.7945 23.1189C36.7945 22.2759 36.1105 21.5912 35.2683 21.5912L35.2656 21.5933ZM35.4753 14.7306C35.8948 14.7306 36.2361 15.0722 36.2361 15.4921C36.2361 15.912 35.8948 16.2536 35.4753 16.2536C35.0558 16.2536 34.7146 15.912 34.7146 15.4921C34.7146 15.0722 35.0558 14.7306 35.4753 14.7306ZM30.1748 12.2001C30.1748 11.7802 30.5161 11.4387 30.9356 11.4387C31.3551 11.4387 31.6963 11.7802 31.6963 12.2001C31.6963 12.62 31.3551 12.9616 30.9356 12.9616C30.5161 12.9616 30.1748 12.62 30.1748 12.2001ZM26.7247 7.52797C26.7247 7.10804 27.066 6.7665 27.4855 6.7665C27.905 6.7665 28.2462 7.10807 28.2462 7.52797C28.2462 7.94787 27.905 8.28944 27.4855 8.28944C27.066 8.28944 26.7247 7.94787 26.7247 7.52797ZM21.4042 8.01368C21.4042 7.59375 21.7454 7.2522 22.1649 7.2522C22.5844 7.2522 22.9257 7.59378 22.9257 8.01368C22.9257 8.43358 22.5844 8.77515 22.1649 8.77515C21.7454 8.77515 21.4042 8.43358 21.4042 8.01368ZM22.5845 34.2726C22.5845 34.6925 22.2432 35.0341 21.8237 35.0341C21.4042 35.0341 21.063 34.6925 21.063 34.2726C21.063 33.8527 21.4042 33.5111 21.8237 33.5111C22.2432 33.5111 22.5845 33.8527 22.5845 34.2726ZM29.4018 33.7132C29.8213 33.7132 30.1625 34.0548 30.1625 34.4747C30.1625 34.8946 29.8213 35.2362 29.4018 35.2362C28.9823 35.2362 28.641 34.8946 28.641 34.4747C28.641 34.0548 28.9823 33.7132 29.4018 33.7132ZM31.6982 30.6015C31.6982 31.0214 31.3569 31.3629 30.9374 31.3629C30.5179 31.3629 30.1767 31.0214 30.1767 30.6015C30.1767 30.1816 30.5179 29.84 30.9374 29.84C31.3569 29.84 31.6982 30.1816 31.6982 30.6015ZM15.4604 29.1239C15.5215 29.326 15.7344 29.4404 15.9363 29.3809C16.6595 29.1631 17.3764 29.2649 17.904 29.6614C18.5301 30.1314 18.8557 30.9822 18.8448 32.1197V32.1229C18.8307 33.6302 17.2309 34.4622 15.7313 34.4794C14.1393 34.4982 12.253 33.6161 12.1701 31.0684C12.1654 30.9368 12.0949 30.8177 11.9822 30.7503C11.8695 30.6845 11.7302 30.6798 11.6128 30.7393C10.2118 31.4585 8.79355 30.7362 8.00775 29.7021C7.38786 28.8858 7.07168 27.7294 7.6712 26.8786C8.04689 26.9961 8.44762 27.0619 8.87497 27.0619C9.02367 27.0619 9.17552 27.0541 9.32892 27.04C9.53868 27.0196 9.69365 26.8332 9.6733 26.6232C9.65295 26.4132 9.46667 26.2581 9.2569 26.2785C7.65709 26.4289 6.79771 25.6424 6.35783 24.9561C5.60645 23.7825 5.55167 22.0793 6.22947 20.9104C6.56132 20.337 7.20626 19.6663 8.39908 19.7259C8.54153 19.7322 8.67772 19.6585 8.74973 19.5348C8.82173 19.411 8.81704 19.2559 8.74033 19.1352C7.89502 17.8206 7.81676 16.5719 8.51805 15.6208C9.24282 14.6384 10.7002 14.1526 11.9071 14.4926C12.995 14.7982 13.6587 15.6944 13.7761 17.0153C13.7949 17.2252 13.9812 17.3804 14.191 17.3631C14.4007 17.3443 14.5573 17.1579 14.5385 16.9479C14.3929 15.3121 13.51 14.1479 12.1137 13.7562C11.3905 13.5525 10.6141 13.5823 9.89557 13.8001C9.45256 12.9603 9.80165 12.0734 10.3167 11.4906C10.8755 10.8591 11.7975 10.4173 12.4769 10.7949C12.5144 10.8153 12.5551 10.8247 12.5958 10.8325C12.66 11.5861 13.0279 12.31 13.6822 12.8945C13.8403 13.0355 14.0813 13.0214 14.2222 12.8647C14.3631 12.7064 14.349 12.4651 14.1925 12.3241C13.4145 11.6269 13.1578 10.7275 13.4865 9.85634C13.834 8.93658 14.7326 8.31454 15.7234 8.30828C16.1335 8.30514 18.1826 8.40856 18.7602 10.6539L18.8025 21.3648V25.8208C18.8025 25.8819 18.8103 25.9414 18.8213 25.9994L18.8354 29.506C18.6804 29.3164 18.5176 29.1644 18.3626 29.0469C17.6379 28.5032 16.6736 28.3575 15.7156 28.6458C15.5136 28.7069 15.3994 28.92 15.4589 29.1221L15.4604 29.1239ZM28.2715 25.821C28.2715 25.9792 28.1431 26.1062 27.9866 26.1062H19.8561C19.7293 26.1062 19.626 26.0216 19.5884 25.9087L19.5712 21.3665V16.909C19.5712 16.7507 19.6996 16.6238 19.8561 16.6238H27.9866C28.1447 16.6238 28.2715 16.7523 28.2715 16.909V25.821ZM35.2655 23.8844C34.846 23.8844 34.5047 23.5428 34.5047 23.1229C34.5047 22.703 34.846 22.3614 35.2655 22.3614C35.685 22.3614 36.0263 22.703 36.0263 23.1229C36.0263 23.5428 35.685 23.8844 35.2655 23.8844Z" fill="#FF9900"/>
</svg>
