<svg width="42" height="42" viewBox="0 0 42 42" fill="none" xmlns="http://www.w3.org/2000/svg">
<rect width="42" height="42" rx="4" fill="#FFCA28" fill-opacity="0.2"/>
<path d="M21.0003 14.9321C19.3628 14.9321 17.7925 15.5708 16.6331 16.7086C15.4753 17.8479 14.8253 19.3911 14.8253 21.0003C14.8253 22.6095 15.4753 24.1526 16.6331 25.2919C17.7925 26.4297 19.3628 27.0684 21.0003 27.0684C22.6378 27.0684 24.2081 26.4297 25.3675 25.2919C26.5253 24.1526 27.1753 22.6095 27.1753 21.0003C27.1738 19.3911 26.5222 17.8495 25.3644 16.7117C24.2066 15.574 22.6378 14.9336 21.0003 14.9321ZM21.0003 26.1946C18.8628 26.1946 16.9347 24.9294 16.1159 22.9886C15.2987 21.0462 15.7503 18.8121 17.2628 17.3274C18.7737 15.8411 21.0472 15.3973 23.0236 16.2004C24.9986 17.005 26.2861 18.8998 26.2861 21.0003C26.283 23.8686 23.9191 26.1915 21.0003 26.1946ZM18.5956 21.0001C18.5925 22.1179 19.3987 23.0791 20.5159 23.2894C21.6332 23.4998 22.7425 22.8979 23.1597 21.8584C23.2503 21.6342 23.5097 21.5252 23.7378 21.6143C23.966 21.7033 24.0769 21.9582 23.9863 22.1824C23.6722 22.9639 23.0566 23.5935 22.2738 23.9313V24.7527C22.266 24.9877 22.0691 25.1765 21.8285 25.1765C21.5878 25.1765 21.3909 24.9876 21.3847 24.7527V24.1708C21.1035 24.2076 20.8206 24.2076 20.5394 24.1708V24.7527C20.5394 24.9938 20.3409 25.1888 20.0956 25.1888C19.8503 25.1888 19.6519 24.9938 19.6519 24.7527V23.9266C18.4706 23.4168 17.7081 22.2699 17.7081 21.0016C17.7081 19.7348 18.4706 18.5863 19.6519 18.0765V17.2566C19.6519 17.0155 19.8503 16.8205 20.0956 16.8205C20.3409 16.8205 20.5394 17.0155 20.5394 17.2566V17.8323C20.8206 17.7955 21.1035 17.7955 21.3847 17.8323V17.2566C21.391 17.0201 21.5878 16.8328 21.8285 16.8328C22.0691 16.8328 22.266 17.0201 22.2738 17.2566V18.0719C23.0566 18.4097 23.6707 19.0392 23.9847 19.8208C24.0753 20.045 23.9644 20.2983 23.7363 20.3874C23.5082 20.4764 23.2488 20.3674 23.1582 20.1432C22.9003 19.4999 22.3644 19.0039 21.6941 18.792H21.6909H21.6925C20.9722 18.5632 20.1847 18.6845 19.5722 19.1221C18.9597 19.5582 18.5972 20.2569 18.5956 21.0001ZM35.2049 19.2358C34.3846 19.2358 33.6674 19.7824 33.4642 20.564H29.1954C29.1564 19.8469 29.0189 19.1375 28.7892 18.4573H31.1251C31.2439 18.4573 31.3564 18.4097 31.4407 18.3268L32.4657 17.3195C33.2439 17.774 34.2454 17.5867 34.8001 16.8834C35.3548 16.1802 35.2923 15.1806 34.6517 14.5526C34.011 13.923 32.9939 13.8616 32.2782 14.4067C31.5641 14.9533 31.3735 15.9376 31.836 16.7022L30.9407 17.5821H28.4329C27.6141 15.8731 26.2157 14.4988 24.4766 13.6943V11.953L25.372 11.0732C26.1516 11.5277 27.1563 11.3419 27.7126 10.6371C28.2689 9.93385 28.2064 8.93122 27.5642 8.30166C26.922 7.67057 25.9032 7.60763 25.186 8.15579C24.4704 8.70241 24.2798 9.68818 24.7438 10.4559L23.7204 11.4647C23.636 11.5461 23.5891 11.6567 23.5891 11.7734V13.3457C22.8969 13.1185 22.1751 12.9849 21.4454 12.9465V9.4748C22.3235 9.25522 22.8969 8.42759 22.7829 7.54469C22.6704 6.66179 21.9063 6 21.0017 6C20.097 6 19.3329 6.66179 19.2204 7.54469C19.1063 8.42759 19.6798 9.25522 20.5579 9.4748V12.9465C19.8282 12.9849 19.1064 13.1185 18.4142 13.3457V11.7734C18.4142 11.6582 18.3673 11.5461 18.2845 11.4647L17.2595 10.4575H17.2579C17.722 9.68975 17.5313 8.70398 16.8157 8.15732C16.0985 7.6107 15.0798 7.6721 14.4376 8.30319C13.7954 8.93428 13.7329 9.93538 14.2891 10.6386C14.8454 11.3434 15.8501 11.5307 16.6298 11.0747L17.5251 11.9546V13.6958C15.786 14.5004 14.3876 15.8746 13.5689 17.5836H11.0595L10.1642 16.7038C10.6282 15.9376 10.4392 14.9518 9.72196 14.4036C9.00631 13.8555 7.98603 13.9184 7.34539 14.5495C6.70318 15.179 6.63914 16.1801 7.19539 16.8849C7.75163 17.5897 8.75475 17.7755 9.53604 17.321L10.5595 18.3283C10.6439 18.4112 10.7564 18.4573 10.8735 18.4573H13.2095C12.9798 19.1375 12.8423 19.8469 12.8048 20.5639H8.53598C8.31254 19.701 7.47033 19.1375 6.57189 19.2496C5.67344 19.3601 5 20.111 5 21C5 21.889 5.67344 22.6399 6.57189 22.7504C7.47033 22.8625 8.31253 22.299 8.53598 21.436H12.8048C12.8439 22.1531 12.9814 22.8625 13.211 23.5427H10.8751C10.7579 23.5427 10.6439 23.5888 10.561 23.6717L9.53604 24.679C8.75635 24.2245 7.75635 24.4118 7.20011 25.115C6.64542 25.8183 6.70946 26.8163 7.35011 27.4459C7.99075 28.0754 9.00791 28.1368 9.722 27.5918C10.4376 27.0451 10.6267 26.0609 10.1642 25.2962L11.0595 24.4164H13.5673C14.3845 26.1254 15.7845 27.5012 17.5236 28.3042V30.0454L16.6283 30.9253C15.8486 30.4708 14.8439 30.6566 14.2876 31.3614C13.7314 32.0646 13.7939 33.0673 14.4361 33.6968C15.0783 34.3279 16.097 34.3908 16.8142 33.8427C17.5298 33.2961 17.7204 32.3103 17.2564 31.5425L18.2814 30.5353C18.3658 30.4539 18.4126 30.3433 18.4126 30.2266V28.6543C19.1048 28.8816 19.8267 29.0151 20.5564 29.0535V32.5252C19.6783 32.7448 19.1048 33.5724 19.2189 34.4553C19.3314 35.3382 20.0954 36 21.0001 36C21.9048 36 22.6689 35.3382 22.7814 34.4553C22.8954 33.5724 22.322 32.7448 21.4439 32.5252V29.0535C22.1735 29.0151 22.8954 28.8815 23.5876 28.6543V30.2266C23.5876 30.3418 23.6345 30.4539 23.7189 30.5353L24.7439 31.5425C24.2798 32.3103 24.4704 33.296 25.1861 33.8427C25.9033 34.3893 26.922 34.3279 27.5642 33.6968C28.2064 33.0657 28.2689 32.0646 27.7126 31.3614C27.1564 30.6566 26.1517 30.4693 25.372 30.9253L24.4767 30.0454V28.3042C26.2158 27.4996 27.6142 26.1254 28.4329 24.4164H30.9407L31.8361 25.2962C31.372 26.0624 31.5611 27.0482 32.2783 27.5964C32.9939 28.143 34.0142 28.0816 34.6548 27.4505C35.297 26.821 35.3611 25.8183 34.8048 25.1151C34.2486 24.4103 33.2455 24.223 32.4642 24.679L31.4407 23.6733C31.3564 23.5903 31.2439 23.5443 31.1251 23.5443H28.7892C29.0204 22.864 29.1564 22.1547 29.1954 21.4376H33.4643C33.633 22.0917 34.1658 22.5923 34.8377 22.7305C35.5096 22.8671 36.2018 22.6169 36.6221 22.0856C37.0424 21.5528 37.1189 20.8311 36.8174 20.2261C36.5158 19.6211 35.8893 19.2373 35.2049 19.2373L35.2049 19.2358ZM33.3799 14.9119C33.7471 14.9119 34.0783 15.1284 34.219 15.4616C34.358 15.7948 34.2815 16.1787 34.0221 16.4336C33.7627 16.6885 33.3721 16.7637 33.033 16.627C32.6939 16.4888 32.4736 16.1633 32.4736 15.8025C32.4736 15.3111 32.8799 14.9134 33.3799 14.9119ZM26.2878 8.66546C26.655 8.66546 26.9863 8.88196 27.1269 9.21515C27.2675 9.54835 27.1894 9.9322 26.93 10.1871C26.6706 10.442 26.28 10.5188 25.9409 10.3806C25.6019 10.2424 25.38 9.9184 25.38 9.55755C25.3816 9.06467 25.7878 8.66546 26.2878 8.66546ZM14.805 9.55756C14.805 9.19672 15.0268 8.8712 15.3659 8.73299C15.705 8.5948 16.094 8.67157 16.3534 8.92646C16.6143 9.18135 16.6909 9.56522 16.5503 9.89843C16.4097 10.2316 16.08 10.4481 15.7128 10.4481C15.2112 10.4481 14.8065 10.0489 14.805 9.55756ZM7.71293 15.804C7.71293 15.4432 7.93481 15.1176 8.27385 14.981C8.61292 14.8428 9.00198 14.918 9.26138 15.1729C9.52076 15.4278 9.59888 15.8117 9.45826 16.1449C9.31763 16.4781 8.98793 16.6961 8.62073 16.6961C8.11917 16.6946 7.71293 16.2954 7.71293 15.804ZM8.62074 27.0882C8.25355 27.0882 7.92229 26.8701 7.78165 26.537C7.64259 26.2038 7.71915 25.8214 7.97853 25.5665C8.23791 25.3101 8.62853 25.2349 8.96761 25.3731C9.30668 25.5112 9.52698 25.8352 9.52698 26.1961C9.52698 26.689 9.12074 27.0866 8.62074 27.0882ZM15.7128 33.3346C15.3456 33.3346 15.0143 33.1181 14.8737 32.7849C14.7331 32.4517 14.8112 32.0679 15.0706 31.813C15.3299 31.5581 15.7206 31.4813 16.0596 31.6195C16.3987 31.7577 16.6206 32.0817 16.6206 32.4425C16.619 32.9354 16.2143 33.3346 15.7128 33.3346ZM27.1956 32.4425C27.1956 32.8034 26.9753 33.1289 26.6363 33.2671C26.2956 33.4053 25.9066 33.3301 25.6456 33.0736C25.3862 32.8187 25.3081 32.4364 25.4487 32.1017C25.5894 31.7685 25.9206 31.552 26.2878 31.552C26.7894 31.552 27.1941 31.9512 27.1956 32.4425ZM34.2877 26.1961C34.2877 26.5569 34.0658 26.8824 33.7267 27.0191C33.3877 27.1573 32.9986 27.0821 32.7392 26.8272C32.4798 26.5723 32.4017 26.1884 32.5423 25.8552C32.683 25.522 33.0126 25.304 33.3799 25.304C33.8814 25.3055 34.2877 25.7047 34.2877 26.1961ZM20.0924 7.76413C20.094 7.40329 20.3143 7.0793 20.6533 6.94109C20.9924 6.80444 21.383 6.88121 21.6424 7.1361C21.9018 7.39099 21.9783 7.77332 21.8377 8.10654C21.6971 8.43974 21.3674 8.65775 21.0002 8.65775C20.4986 8.65622 20.0924 8.25701 20.0924 7.76413ZM6.79553 21.8918C6.4299 21.8918 6.09864 21.6738 5.958 21.3406C5.81738 21.0074 5.8955 20.6251 6.15488 20.3687C6.41426 20.1138 6.80488 20.0385 7.14396 20.1767C7.48303 20.3134 7.70333 20.6389 7.70333 20.9998C7.70333 21.4911 7.29709 21.8903 6.79553 21.8918ZM21.9064 34.2338H21.908C21.908 34.5946 21.6861 34.9202 21.347 35.0568C21.008 35.195 20.6189 35.1198 20.358 34.8649C20.0986 34.61 20.022 34.2261 20.1626 33.8929C20.3017 33.5597 20.633 33.3417 21.0002 33.3417C21.5017 33.3432 21.908 33.7425 21.908 34.2353L21.9064 34.2338ZM21.0002 28.1933C18.3845 28.1933 15.9689 26.8221 14.6609 24.5957C13.3531 22.3708 13.3531 19.6284 14.6609 17.4035C15.9687 15.1771 18.3844 13.8059 21.0002 13.8059C23.6159 13.8059 26.0314 15.1771 27.3394 17.4035C28.6472 19.6284 28.6472 22.3709 27.3394 24.5957C26.0316 26.8222 23.6159 28.1933 21.0002 28.1933ZM35.205 21.8918C34.8378 21.8918 34.5066 21.6738 34.3659 21.3406C34.2253 21.0074 34.3034 20.6251 34.5628 20.3687C34.8222 20.1138 35.2128 20.0385 35.5519 20.1767C35.891 20.3134 36.1113 20.6389 36.1113 20.9998C36.1113 21.4926 35.705 21.8903 35.205 21.8918Z" fill="#FF9900"/>
</svg>
