<svg width="42" height="42" viewBox="0 0 42 42" fill="none" xmlns="http://www.w3.org/2000/svg">
<rect width="42" height="42" rx="4" fill="#FFCA28" fill-opacity="0.2"/>
<path fill-rule="evenodd" clip-rule="evenodd" d="M6.35312 28.4191H10.4086C10.6042 28.4191 10.7618 28.572 10.7618 28.7588V32.6603C10.7618 32.8484 10.6029 33 10.4086 33H6.35312C6.15754 33 6 32.8471 6 32.6603V28.7588C6 28.5707 6.15755 28.4191 6.35312 28.4191ZM6.13445 24.7946L16.0111 11.5262L13.9888 9.58072C13.8502 9.44745 13.8502 9.23185 13.9888 9.09989C14.0675 9.02411 14.1748 8.99145 14.2767 9.0019L22.4774 9.21879C22.6649 9.22402 22.8156 9.36905 22.8197 9.54806C22.8958 12.1861 22.9705 14.8253 23.0452 17.4633C23.0506 17.6502 22.8971 17.807 22.7029 17.8109C22.6024 17.8135 22.51 17.7756 22.4435 17.7116L22.4421 17.7129L20.4198 15.7674L6.62323 25.2742C6.46432 25.3839 6.24431 25.3487 6.1302 25.1958C6.03784 25.073 6.04345 24.9096 6.13445 24.7946ZM16.7597 11.6868L7.94907 23.5246L20.2446 15.0541C20.3832 14.9521 20.5828 14.9626 20.7091 15.0841L22.3159 16.6298L22.1244 9.88789L15.1162 9.70366L16.7229 11.2494C16.8438 11.3643 16.8629 11.5496 16.7597 11.6868ZM30.5914 10.2025H34.6469C34.8425 10.2025 35 10.3554 35 10.5422V32.6601C35 32.8483 34.8411 32.9998 34.6469 32.9998H30.5914C30.3958 32.9998 30.2382 32.847 30.2382 32.6601V10.5422C30.2382 10.3541 30.3958 10.2025 30.5914 10.2025ZM34.2926 10.8832H30.9447V32.3205H34.2926V10.8832ZM24.5328 16.2076H28.5883C28.7839 16.2076 28.9414 16.3605 28.9414 16.5473V32.6589C28.9414 32.847 28.7825 32.9986 28.5883 32.9986L24.5328 32.9999C24.3372 32.9999 24.1796 32.847 24.1796 32.6602V16.5486C24.1783 16.3605 24.3372 16.2076 24.5328 16.2076ZM28.234 16.8883H24.8861V32.3192H28.234V16.8883ZM18.4728 21.0564C18.2772 21.0564 18.1197 21.2093 18.1197 21.3961V32.6589C18.1197 32.8471 18.2786 32.9986 18.4728 32.9986H22.5283C22.7239 32.9986 22.8814 32.8458 22.8814 32.6589V21.3974C22.8814 21.2093 22.7225 21.0577 22.5283 21.0577L18.4728 21.0564ZM22.174 21.7371H18.8261V32.3193H22.174V21.7371ZM12.4142 25.6021H16.4697C16.6653 25.6021 16.8228 25.755 16.8228 25.9418V32.659C16.8228 32.8471 16.6639 32.9987 16.4697 32.9987L12.4142 33C12.2186 33 12.0611 32.8471 12.0611 32.6603L12.0597 25.9418C12.0597 25.755 12.2186 25.6021 12.4142 25.6021ZM16.1154 26.2829H12.7675V32.3194H16.1154V26.2829ZM10.0551 29.0999H6.70714V32.3206H10.0551V29.0999Z" fill="#FF9900"/>
</svg>
