<svg width="42" height="42" viewBox="0 0 42 42" fill="none" xmlns="http://www.w3.org/2000/svg">
<rect width="42" height="42" rx="4" fill="#FFCA28" fill-opacity="0.2"/>
<path d="M37 7.93548V20.5161C37 21.5836 36.103 22.4516 35 22.4516H30.669L22.3038 28.6422C22.2618 28.6739 22.2145 28.698 22.1642 28.715L12.1482 32.0859L12.4694 32.9295C12.5636 33.1776 12.4347 33.4535 12.1799 33.5485L5.6799 35.9679C5.62082 35.9896 5.55978 36 5.50021 36C5.29953 36 5.11008 35.8823 5.03342 35.69C4.9343 35.4405 5.0632 35.1603 5.32053 35.0644L11.3605 32.8166L8.19844 24.5104L5.65841 25.3298C5.39426 25.4149 5.1135 25.2773 5.02609 25.0241C4.93869 24.7703 5.08029 24.4963 5.34201 24.4121L8.34199 23.4444C8.59785 23.3603 8.87617 23.4907 8.96943 23.736L9.18509 24.3024L10.1047 24.0048L10.2604 23.5517C11.0685 21.2079 13.2951 19.6169 15.8346 19.5507L18.6813 17.5501C19.4562 17.0019 20.4069 16.7893 21.3536 16.9533C22.3019 17.1167 23.1178 17.6337 23.6515 18.4096C23.7672 18.5863 23.8253 18.7796 23.8253 18.9776C23.8253 19.2663 23.7008 19.5422 23.4835 19.7355L18.3366 24.2614C18.132 24.441 17.816 24.4268 17.63 24.2288C17.4445 24.0308 17.4596 23.7246 17.6637 23.545L22.8087 19.021C22.8194 19.0116 22.8253 18.9917 22.8253 18.9776C22.4381 18.3921 21.8556 18.0226 21.1783 17.9059C20.5035 17.7906 19.8243 17.9404 19.2701 18.3326L16.2941 20.424C16.2086 20.484 16.1056 20.5161 16.0001 20.5161C13.8234 20.5161 11.8981 21.8591 11.2092 23.8579L10.9748 24.5402C10.925 24.6843 10.8078 24.7977 10.6589 24.8459L9.53092 25.2109L11.8026 31.1779L21.7599 27.8266L29.0233 22.4516H22.4303C22.1539 22.4516 21.9303 22.2352 21.9303 21.9677C21.9303 21.7003 22.1539 21.4839 22.4303 21.4839H35C35.5513 21.4839 36 21.0496 36 20.5161V7.93548C36 7.402 35.5513 6.96774 35 6.96774H11.0002C10.4489 6.96774 10.0002 7.402 10.0002 7.93548V20.5161C10.0002 20.8266 10.1457 21.1073 10.4001 21.2868C10.6227 21.4442 10.6721 21.7471 10.509 21.963C10.3469 22.178 10.0349 22.2262 9.81024 22.0684C9.2956 21.705 9.00019 21.1389 9.00019 20.5161V7.93548C9.00019 6.86804 9.89716 6 11.0002 6H35C36.103 6 37 6.86804 37 7.93548ZM24.5152 20.5161H32.5C32.7764 20.5161 33 20.2997 33 20.0323C33 19.2318 33.6729 18.5806 34.5 18.5806C34.7764 18.5806 35 18.3642 35 18.0968V10.3548C35 10.0874 34.7764 9.87097 34.5 9.87097C33.6729 9.87097 33 9.21982 33 8.41935C33 8.1519 32.7764 7.93548 32.5 7.93548H13.5002C13.2238 7.93548 13.0002 8.1519 13.0002 8.41935C13.0002 9.21982 12.3273 9.87097 11.5002 9.87097C11.2238 9.87097 11.0002 10.0874 11.0002 10.3548V18.0968C11.0002 18.3642 11.2238 18.5806 11.5002 18.5806C12.0534 18.5806 12.5612 18.8746 12.8254 19.3476C12.9567 19.5829 13.2604 19.6717 13.5026 19.5437C13.7458 19.4166 13.8366 19.1231 13.7052 18.8883C13.3473 18.2466 12.7194 17.8033 12.0002 17.6616V10.79C12.9782 10.5972 13.7506 9.8497 13.9499 8.90323H32.0503C32.2495 9.8497 33.022 10.5972 34 10.79V17.6616C33.022 17.8544 32.2495 18.6019 32.0503 19.5484H24.5152C24.2389 19.5484 24.0152 19.7648 24.0152 20.0323C24.0152 20.2997 24.2389 20.5161 24.5152 20.5161ZM24.0631 17.2873C23.8331 17.4352 23.7706 17.7358 23.9234 17.9583C24.0201 18.0987 24.1788 18.1743 24.3404 18.1743C24.4356 18.1743 24.5318 18.1483 24.6168 18.0935C25.7784 17.3459 26.5001 15.8636 26.5001 14.2258C26.5001 11.8244 24.9298 9.87097 23.0001 9.87097C21.0704 9.87097 19.5001 11.8244 19.5001 14.2258C19.5001 14.8788 19.6197 15.5347 19.8468 16.1225C19.943 16.373 20.2316 16.5001 20.4899 16.4065C20.7486 16.3134 20.88 16.0347 20.7833 15.7842C20.5983 15.3036 20.5001 14.7645 20.5001 14.2258C20.5001 12.3584 21.6217 10.8387 23.0001 10.8387C24.3785 10.8387 25.5001 12.3584 25.5001 14.2258C25.5001 15.5238 24.9361 16.7255 24.0631 17.2873ZM15.5001 13.7419C15.2238 13.7419 15.0001 13.9584 15.0001 14.2258C15.0001 14.4933 15.2238 14.7097 15.5001 14.7097H17.5001C17.7765 14.7097 18.0001 14.4933 18.0001 14.2258C18.0001 13.9584 17.7765 13.7419 17.5001 13.7419H15.5001ZM30.5 14.7097C30.7764 14.7097 31 14.4933 31 14.2258C31 13.9584 30.7764 13.7419 30.5 13.7419H28.5001C28.2237 13.7419 28.0001 13.9584 28.0001 14.2258C28.0001 14.4933 28.2237 14.7097 28.5001 14.7097H30.5Z" fill="#FF9900"/>
</svg>
