<svg xmlns="http://www.w3.org/2000/svg" xmlns:xlink="http://www.w3.org/1999/xlink" width="645" zoomAndPan="magnify" viewBox="80 340 645 108" height="108" preserveAspectRatio="xMidYMid meet" version="1.0"><defs><clipPath id="4b2ae5963c"><path d="M 81 346.183594 L 178.582031 346.183594 L 178.582031 442.023438 L 81 442.023438 Z M 81 346.183594 " clip-rule="nonzero"></path></clipPath><clipPath id="1b8e6bb776"><path d="M 101 365 L 159 365 L 159 423 L 101 423 Z M 101 365 " clip-rule="nonzero"></path></clipPath><clipPath id="7baa67f7e5"><path d="M 101.113281 377.320312 L 146.574219 365.425781 L 158.46875 410.886719 L 113.007812 422.78125 Z M 101.113281 377.320312 " clip-rule="nonzero"></path></clipPath><clipPath id="fb550dd037"><path d="M 101.113281 377.320312 L 146.574219 365.425781 L 158.46875 410.886719 L 113.007812 422.78125 Z M 101.113281 377.320312 " clip-rule="nonzero"></path></clipPath><clipPath id="f82801033a"><path d="M 343 344 L 440 344 L 440 442.976562 L 343 442.976562 Z M 343 344 " clip-rule="nonzero"></path></clipPath><clipPath id="6ee94fef63"><path d="M 623 344 L 648.511719 344 L 648.511719 369 L 623 369 Z M 623 344 " clip-rule="nonzero"></path></clipPath><clipPath id="c81d7f01b7"><path d="M 623.28125 349.195312 L 643.0625 344.007812 L 648.246094 363.792969 L 628.464844 368.976562 Z M 623.28125 349.195312 " clip-rule="nonzero"></path></clipPath><clipPath id="8b9ec977a1"><path d="M 623.28125 349.195312 L 643.0625 344.007812 L 648.246094 363.792969 L 628.464844 368.976562 Z M 623.28125 349.195312 " clip-rule="nonzero"></path></clipPath><clipPath id="5750741207"><path d="M 625.539062 376.710938 L 645.988281 376.710938 L 645.988281 441.453125 L 625.539062 441.453125 Z M 625.539062 376.710938 " clip-rule="nonzero"></path></clipPath></defs><g clip-path="url(#4b2ae5963c)"><path fill="#18b0e6" d="M 81 346.183594 L 178.582031 346.183594 L 178.582031 442.023438 L 81 442.023438 Z M 81 346.183594 " fill-opacity="1" fill-rule="nonzero"></path></g><g clip-path="url(#1b8e6bb776)"><g clip-path="url(#7baa67f7e5)"><g clip-path="url(#fb550dd037)"><path fill="#ffffff" d="M 101.113281 377.320312 L 146.574219 365.425781 L 158.46875 410.886719 L 113.007812 422.78125 Z M 101.113281 377.320312 " fill-opacity="1" fill-rule="nonzero"></path></g></g></g><path fill="#FFFFFF" d="M 263.140625 346.105469 L 189.394531 346.105469 L 189.394531 365.324219 L 215.976562 365.324219 L 215.976562 441.523438 L 236.558594 441.523438 L 236.558594 365.324219 L 263.140625 365.324219 Z M 263.140625 346.105469 " fill-opacity="1" fill-rule="nonzero"></path><path fill="#FFFFFF" d="M 295.3125 422.4375 L 295.3125 402.808594 L 328.433594 402.808594 L 328.433594 384.132812 L 295.3125 384.132812 L 295.3125 365.1875 L 331.980469 365.1875 L 331.980469 346.105469 L 274.730469 346.105469 L 274.730469 441.523438 L 333.476562 441.523438 L 333.476562 422.4375 Z M 295.3125 422.4375 " fill-opacity="1" fill-rule="nonzero"></path><g clip-path="url(#f82801033a)"><path fill="#FFFFFF" d="M 392.871094 443.699219 C 416.457031 443.699219 434.992188 427.890625 439.355469 404.308594 L 418.5 404.308594 C 415.09375 416.304688 405.414062 423.9375 392.871094 423.9375 C 376.652344 423.9375 364.519531 411.125 364.519531 393.949219 C 364.519531 376.773438 376.652344 363.824219 392.871094 363.824219 C 404.867188 363.824219 414.410156 370.914062 418.363281 382.089844 L 438.945312 382.089844 C 434.582031 359.460938 416.046875 344.058594 392.871094 344.058594 C 364.792969 344.058594 343.527344 365.59375 343.527344 393.949219 C 343.527344 422.164062 364.792969 443.699219 392.871094 443.699219 Z M 392.871094 443.699219 " fill-opacity="1" fill-rule="nonzero"></path></g><path fill="#FFFFFF" d="M 507.734375 346.105469 L 507.734375 382.90625 L 471.75 382.90625 L 471.75 346.105469 L 451.167969 346.105469 L 451.167969 441.523438 L 471.75 441.523438 L 471.75 402.128906 L 507.734375 402.128906 L 507.734375 441.523438 L 528.320312 441.523438 L 528.320312 346.105469 Z M 507.734375 346.105469 " fill-opacity="1" fill-rule="nonzero"></path><path fill="#FFFFFF" d="M 686.40625 422.4375 L 725.796875 349.921875 L 725.796875 346.105469 L 657.507812 346.105469 L 657.507812 365.324219 L 695.125 365.324219 L 655.324219 438.519531 L 655.324219 441.523438 L 727.433594 441.523438 L 727.433594 422.4375 Z M 686.40625 422.4375 " fill-opacity="1" fill-rule="nonzero"></path><path fill="#FFFFFF" d="M 613.84375 346.105469 L 540.097656 346.105469 L 540.097656 365.324219 L 566.679688 365.324219 L 566.679688 441.523438 L 587.261719 441.523438 L 587.261719 365.324219 L 613.84375 365.324219 Z M 613.84375 346.105469 " fill-opacity="1" fill-rule="nonzero"></path><g clip-path="url(#6ee94fef63)"><g clip-path="url(#c81d7f01b7)"><g clip-path="url(#8b9ec977a1)"><path fill="#18b0e6" d="M 623.28125 349.195312 L 643.0625 344.007812 L 648.246094 363.792969 L 628.464844 368.976562 Z M 623.28125 349.195312 " fill-opacity="1" fill-rule="nonzero"></path></g></g></g><g clip-path="url(#5750741207)"><path fill="#FFFFFF" d="M 625.539062 376.710938 L 645.988281 376.710938 L 645.988281 441.453125 L 625.539062 441.453125 Z M 625.539062 376.710938 " fill-opacity="1" fill-rule="nonzero"></path></g></svg>