<svg xmlns="http://www.w3.org/2000/svg" xmlns:xlink="http://www.w3.org/1999/xlink" width="1080" zoomAndPan="magnify" viewBox="0 0 810 809.999993" height="1080" preserveAspectRatio="xMidYMid meet" version="1.0"><defs><clipPath id="c261bfae46"><path d="M 255 326 L 380 326 L 380 453.878906 L 255 453.878906 Z M 255 326 " clip-rule="nonzero"></path></clipPath><clipPath id="8dd4708d9e"><path d="M 618 326 L 650.855469 326 L 650.855469 359 L 618 359 Z M 618 326 " clip-rule="nonzero"></path></clipPath><clipPath id="0b0f8ef17e"><path d="M 618.167969 332.882812 L 643.796875 326.160156 L 650.515625 351.789062 L 624.882812 358.507812 Z M 618.167969 332.882812 " clip-rule="nonzero"></path></clipPath><clipPath id="d703cd2c78"><path d="M 618.167969 332.882812 L 643.796875 326.160156 L 650.515625 351.789062 L 624.882812 358.507812 Z M 618.167969 332.882812 " clip-rule="nonzero"></path></clipPath><clipPath id="e65c701639"><path d="M 621.09375 368.527344 L 647.589844 368.527344 L 647.589844 452.402344 L 621.09375 452.402344 Z M 621.09375 368.527344 " clip-rule="nonzero"></path></clipPath></defs><path fill="#153a5f" d="M 151.582031 328.875 L 56.039062 328.875 L 56.039062 353.773438 L 90.476562 353.773438 L 90.476562 452.496094 L 117.144531 452.496094 L 117.144531 353.773438 L 151.582031 353.773438 Z M 151.582031 328.875 " fill-opacity="1" fill-rule="nonzero"></path><path fill="#153a5f" d="M 193.261719 427.769531 L 193.261719 402.339844 L 236.175781 402.339844 L 236.175781 378.144531 L 193.261719 378.144531 L 193.261719 353.597656 L 240.769531 353.597656 L 240.769531 328.875 L 166.59375 328.875 L 166.59375 452.496094 L 242.707031 452.496094 L 242.707031 427.769531 Z M 193.261719 427.769531 " fill-opacity="1" fill-rule="nonzero"></path><g clip-path="url(#c261bfae46)"><path fill="#153a5f" d="M 319.65625 455.316406 C 350.210938 455.316406 374.230469 434.832031 379.878906 404.285156 L 352.859375 404.285156 C 348.445312 419.824219 335.90625 429.714844 319.65625 429.714844 C 298.640625 429.714844 282.921875 413.113281 282.921875 390.863281 C 282.921875 368.609375 298.640625 351.832031 319.65625 351.832031 C 335.199219 351.832031 347.5625 361.015625 352.683594 375.496094 L 379.347656 375.496094 C 373.699219 346.179688 349.679688 326.226562 319.65625 326.226562 C 283.28125 326.226562 255.726562 354.128906 255.726562 390.863281 C 255.726562 427.417969 283.28125 455.316406 319.65625 455.316406 Z M 319.65625 455.316406 " fill-opacity="1" fill-rule="nonzero"></path></g><path fill="#153a5f" d="M 468.46875 328.875 L 468.46875 376.558594 L 421.847656 376.558594 L 421.847656 328.875 L 395.183594 328.875 L 395.183594 452.496094 L 421.847656 452.496094 L 421.847656 401.457031 L 468.46875 401.457031 L 468.46875 452.496094 L 495.140625 452.496094 L 495.140625 328.875 Z M 468.46875 328.875 " fill-opacity="1" fill-rule="nonzero"></path><path fill="#153a5f" d="M 699.949219 427.769531 L 750.984375 333.820312 L 750.984375 328.875 L 662.511719 328.875 L 662.511719 353.773438 L 711.25 353.773438 L 659.683594 448.605469 L 659.683594 452.496094 L 753.109375 452.496094 L 753.109375 427.769531 Z M 699.949219 427.769531 " fill-opacity="1" fill-rule="nonzero"></path><path fill="#153a5f" d="M 605.941406 328.875 L 510.398438 328.875 L 510.398438 353.773438 L 544.835938 353.773438 L 544.835938 452.496094 L 571.503906 452.496094 L 571.503906 353.773438 L 605.941406 353.773438 Z M 605.941406 328.875 " fill-opacity="1" fill-rule="nonzero"></path><g clip-path="url(#8dd4708d9e)"><g clip-path="url(#0b0f8ef17e)"><g clip-path="url(#d703cd2c78)"><path fill="#18b0e6" d="M 618.167969 332.882812 L 643.796875 326.160156 L 650.515625 351.789062 L 624.882812 358.507812 Z M 618.167969 332.882812 " fill-opacity="1" fill-rule="nonzero"></path></g></g></g><g clip-path="url(#e65c701639)"><path fill="#153a5f" d="M 621.09375 368.527344 L 647.589844 368.527344 L 647.589844 452.402344 L 621.09375 452.402344 Z M 621.09375 368.527344 " fill-opacity="1" fill-rule="nonzero"></path></g></svg>