<svg width="269" height="238" viewBox="0 0 269 238" fill="none" xmlns="http://www.w3.org/2000/svg">
<path fill-rule="evenodd" clip-rule="evenodd" d="M56.1548 196.411C55.2469 199.078 54.7537 201.947 54.7537 204.928C54.7537 212.235 57.7127 218.847 62.4989 223.632C67.2852 228.417 73.8985 231.376 81.2064 231.376C88.5143 231.376 95.1279 228.417 99.9138 223.632C104.7 218.847 107.659 212.234 107.659 204.928C107.659 197.621 104.7 191.009 99.9138 186.224C95.1276 181.438 88.5143 178.48 81.2064 178.48C73.8985 178.48 67.2849 181.438 62.4989 186.224C59.6631 189.059 57.4661 192.533 56.1548 196.411ZM50.9427 41.9583C49.6537 43.247 47.5688 43.247 46.291 41.9583C45.002 40.6695 45.002 38.585 46.291 37.3074C50.7522 32.8471 56.0988 29.2497 62.0507 26.7841C67.7784 24.4083 74.0442 23.097 80.59 23.097C87.1358 23.097 93.4015 24.4082 99.1293 26.7841C105.081 29.2497 110.428 32.8471 114.889 37.3074C116.178 38.5962 116.178 40.6807 114.889 41.9583C113.6 43.247 111.515 43.247 110.237 41.9583C106.359 38.0806 101.741 34.9652 96.6409 32.8471C91.7203 30.8074 86.295 29.6866 80.6012 29.6866C74.8958 29.6866 69.482 30.8185 64.5615 32.8471C59.4389 34.9652 54.8211 38.0806 50.9427 41.9583ZM61.3221 52.3358C63.8441 49.8142 66.8481 47.7859 70.1546 46.4074C73.3492 45.085 76.8686 44.3566 80.59 44.3566C84.3002 44.3566 87.8308 45.085 91.0253 46.4074C94.3318 47.7746 97.3358 49.8031 99.8578 52.3358C101.147 53.6246 103.232 53.6246 104.521 52.3358C105.81 51.047 105.81 48.9625 104.521 47.6849C101.416 44.5808 97.6833 42.0704 93.5249 40.3445C89.5235 38.6859 85.163 37.7781 80.6012 37.7781C76.0393 37.7781 71.6677 38.6971 67.6774 40.3445C63.519 42.0703 59.7864 44.5808 56.6816 47.6849C55.3926 48.9737 55.3926 51.0582 56.6816 52.3358C57.9482 53.6134 60.0332 53.6246 61.3221 52.3358ZM72.1162 62.4781C70.8271 63.7668 68.7423 63.7668 67.4645 62.4781C66.1755 61.1893 66.1755 59.1048 67.4645 57.8272C69.157 56.135 71.2083 54.7566 73.5061 53.8041C75.703 52.8964 78.1019 52.392 80.5903 52.392C83.0786 52.392 85.4772 52.8964 87.6744 53.8041C89.9722 54.7567 92.0121 56.1239 93.716 57.8272C95.005 59.116 95.005 61.2005 93.716 62.4781C92.427 63.7668 90.3421 63.7668 89.0643 62.4781C87.9435 61.3574 86.632 60.472 85.186 59.8669C83.7849 59.2841 82.2382 58.9703 80.5903 58.9703C78.9426 58.9703 77.3957 59.2953 75.9945 59.8669C74.5486 60.4608 73.2372 61.3574 72.1162 62.4781ZM80.59 82.3701C83.6164 82.3701 86.0824 79.9159 86.0824 76.8787C86.0824 73.8528 83.6277 71.3873 80.59 71.3873C77.5636 71.3873 75.0975 73.8416 75.0975 76.8787C75.0975 79.9046 77.5523 82.3701 80.59 82.3701ZM80.59 0C95.6658 0 109.319 6.10769 119.204 15.992C128.362 25.148 134.28 37.5315 135.099 51.2944H157.897C159.713 51.2944 161.193 52.7625 161.193 54.5891V69.0459C162.986 68.071 165.037 67.5106 167.212 67.5106H175.002H175.148H175.293H220.51C223.223 67.5106 225.767 68.127 228.031 69.3037C230.307 70.4804 232.28 72.2174 233.837 74.4365L268.294 123.432L268.339 123.477L268.372 123.533L268.44 123.6C268.462 123.634 268.496 123.679 268.518 123.712L268.585 123.813L268.619 123.869L268.641 123.903L268.653 123.925V123.937L268.686 124.037V124.049L268.709 124.093V124.105L268.821 124.441V124.452L268.832 124.474L268.877 124.609V124.62L268.888 124.643L268.933 124.777L268.944 124.844V124.867L268.955 124.912V124.934L268.966 125.012L268.978 125.08V125.181L268.989 125.248V125.259C268.989 125.315 269 125.371 269 125.427V212.124C269 214.813 267.902 217.256 266.131 219.027C264.36 220.798 261.916 221.896 259.226 221.896H234.365C232.964 224.249 231.271 226.412 229.343 228.329C223.369 234.302 215.108 238 205.984 238C196.86 238 188.599 234.302 182.625 228.329C180.697 226.401 179.016 224.238 177.603 221.896L109.577 221.851C108.176 224.204 106.484 226.367 104.556 228.284C98.5814 234.257 90.3205 237.955 81.1964 237.955C72.0724 237.955 63.8115 234.257 57.8373 228.284C55.9094 226.356 54.2281 224.193 52.8158 221.851H10.2559C7.56583 221.851 5.1222 220.753 3.35145 218.982C1.58045 217.211 0.481995 214.768 0.481995 212.079V195.268V195.28V195.212L0.493203 195.19V195.123L0 54.4558C0 52.6403 1.46836 51.1723 3.2841 51.1723L26.0828 51.2059C26.9347 37.5001 32.8418 25.1614 41.9658 16.0384C51.8632 6.1205 65.5138 0 80.59 0ZM135.098 57.8837H154.602V192.064H111.637C109.967 188.119 107.546 184.556 104.565 181.575C98.5904 175.602 90.3295 171.903 81.2055 171.903C72.0815 171.903 63.8206 175.602 57.8463 181.575C54.8647 184.556 52.4437 188.119 50.7737 192.064H7.04888L6.57811 57.6944L26.0704 57.7168C26.855 71.546 32.7843 84.0081 41.9758 93.197C51.8619 103.081 65.503 109.189 80.5901 109.189C95.6659 109.189 109.319 103.081 119.204 93.197C128.351 84.0411 134.269 71.6469 135.098 57.8837ZM114.541 20.6535C105.854 11.9684 93.8497 6.58909 80.5897 6.58909C67.3296 6.58909 55.325 11.9572 46.6382 20.6535C37.9515 29.3386 32.5713 41.3411 32.5713 54.5988C32.5713 67.8565 37.9403 79.859 46.6382 88.5441C55.325 97.2293 67.3296 102.609 80.5897 102.609C93.8497 102.609 105.854 97.2404 114.541 88.5441C123.228 79.859 128.608 67.8565 128.608 54.5988V54.5876C128.597 41.3299 123.228 29.3384 114.541 20.6535ZM81.2066 213.567C78.8191 213.567 76.6559 212.603 75.0978 211.034C73.5398 209.476 72.5646 207.313 72.5646 204.926C72.5646 202.539 73.5286 200.377 75.0978 198.819C76.6559 197.261 78.8192 196.286 81.2066 196.286C83.594 196.286 85.7573 197.25 87.3154 198.819C88.8734 200.376 89.8486 202.539 89.8486 204.926C89.8486 207.313 88.8846 209.476 87.3154 211.034C85.7462 212.603 83.5828 213.567 81.2066 213.567ZM91.9671 215.696C89.2097 218.453 85.3986 220.156 81.1954 220.156C76.9922 220.156 73.181 218.453 70.4238 215.696C67.6664 212.939 65.9626 209.129 65.9626 204.926C65.9626 200.724 67.6664 196.913 70.4238 194.157C73.1811 191.4 76.9922 189.696 81.1954 189.696C85.3986 189.696 89.2098 191.4 91.9671 194.157C94.7245 196.914 96.4282 200.724 96.4282 204.926C96.4282 209.129 94.7245 212.939 91.9671 215.696ZM205.994 213.567C208.381 213.567 210.544 212.603 212.102 211.034C213.66 209.476 214.636 207.313 214.636 204.926C214.636 202.539 213.672 200.377 212.102 198.819C210.544 197.261 208.381 196.286 205.994 196.286C203.606 196.286 201.443 197.25 199.885 198.819C198.327 200.376 197.352 202.539 197.352 204.926C197.352 207.313 198.316 209.476 199.885 211.034C201.454 212.603 203.606 213.567 205.994 213.567ZM216.765 215.696C219.523 212.939 221.226 209.129 221.226 204.926C221.226 200.724 219.523 196.913 216.765 194.157C214.008 191.4 210.197 189.696 205.994 189.696C201.79 189.696 197.979 191.4 195.222 194.157C192.465 196.914 190.761 200.724 190.761 204.926C190.761 209.129 192.465 212.939 195.222 215.696C197.979 218.453 201.79 220.156 205.994 220.156C210.197 220.156 214.008 218.453 216.765 215.696ZM205.994 231.374C213.291 231.374 219.915 228.416 224.701 223.63C229.487 218.845 232.446 212.233 232.446 204.926C232.446 197.62 229.487 191.007 224.701 186.222C219.915 181.437 213.302 178.478 205.994 178.478C198.685 178.478 192.072 181.437 187.286 186.222C184.45 189.058 182.265 192.521 180.942 196.398V196.409C180.034 199.077 179.541 201.946 179.541 204.915C179.541 212.222 182.5 218.834 187.286 223.619C192.084 228.416 198.686 231.374 205.994 231.374ZM174.608 215.259C173.543 212.009 172.96 208.535 172.96 204.926C172.96 202.786 173.162 200.679 173.554 198.65H113.642C114.035 200.679 114.237 202.786 114.237 204.926C114.237 208.535 113.654 212.009 112.589 215.259H174.608ZM175.56 192.061C177.23 188.116 179.652 184.552 182.633 181.571C188.607 175.598 196.868 171.9 205.992 171.9C215.116 171.9 223.377 175.598 229.351 181.571C232.344 184.553 234.754 188.116 236.424 192.061H262.406V176.629H247.117C245.2 176.629 243.452 175.845 242.197 174.59C240.93 173.323 240.157 171.586 240.157 169.67V157.454C240.157 155.538 240.941 153.79 242.197 152.535L242.208 152.546L242.219 152.535C243.486 151.268 245.223 150.495 247.128 150.495H262.417V128.788L175.28 128.765C173.464 128.765 171.985 127.297 171.985 125.471V74.0878H167.199C165.551 74.0878 164.038 74.7714 162.95 75.8585C161.863 76.9456 161.179 78.4472 161.179 80.1059V192.061L175.56 192.061ZM238.43 198.651C238.822 200.679 239.024 202.786 239.024 204.926C239.024 208.535 238.441 212.009 237.377 215.259H259.234C260.108 215.259 260.904 214.901 261.475 214.318C262.047 213.746 262.406 212.951 262.406 212.076V198.639L238.43 198.651ZM48.7531 198.651H7.06847V212.088C7.06847 212.962 7.42716 213.757 7.99881 214.329C8.57046 214.9 9.36628 215.27 10.2406 215.27H49.7961C48.7313 212.02 48.1484 208.546 48.1484 204.937C48.1596 202.786 48.3608 200.679 48.7531 198.651ZM262.404 157.062H247.116C247.004 157.062 246.914 157.107 246.847 157.174L246.858 157.186C246.791 157.253 246.746 157.354 246.746 157.455V169.67C246.746 169.771 246.791 169.872 246.858 169.939C246.925 170.006 247.026 170.051 247.127 170.051H262.416V157.062L262.404 157.062ZM175.279 147.066H192.115C193.931 147.066 195.41 145.598 195.41 143.771C195.41 141.956 193.942 140.477 192.115 140.477H175.279C173.463 140.477 171.984 141.945 171.984 143.771C171.984 145.587 173.452 147.066 175.279 147.066ZM178.563 122.187H259.367L228.443 78.2116C227.49 76.8556 226.325 75.8245 225.002 75.141C223.679 74.4461 222.155 74.0875 220.496 74.0875H178.565L178.563 122.187Z" fill="white" fill-opacity="0.1"/>
</svg>
