<svg width="253" height="213" viewBox="0 0 253 213" fill="none" xmlns="http://www.w3.org/2000/svg">
<mask id="path-1-outside-1_514_7310" maskUnits="userSpaceOnUse" x="0" y="0" width="253" height="213" fill="black">
<rect fill="white" width="253" height="213"/>
<path d="M149.561 115.48C149.31 114.298 150.073 113.127 151.255 112.886L199.008 102.805C200.19 102.554 201.361 103.317 201.601 104.499C201.852 105.681 201.089 106.852 199.907 107.093L152.154 117.174C151.997 117.206 151.851 117.227 151.705 117.227C150.69 117.216 149.78 116.515 149.561 115.48ZM151.705 142.505C151.851 142.505 152.008 142.484 152.154 142.453L199.907 132.371C201.089 132.12 201.852 130.959 201.601 129.777C201.35 128.596 200.19 127.832 199.008 128.083L151.255 138.165C150.073 138.416 149.31 139.577 149.561 140.758C149.78 141.794 150.69 142.505 151.705 142.505ZM151.705 167.793C151.851 167.793 152.008 167.772 152.154 167.741L199.907 157.659C201.089 157.408 201.852 156.247 201.601 155.065C201.35 153.884 200.19 153.12 199.008 153.371L151.255 163.453C150.073 163.704 149.31 164.865 149.561 166.047C149.78 167.082 150.69 167.793 151.705 167.793ZM151.705 91.9391C151.851 91.9391 152.008 91.9182 152.154 91.8868L199.907 81.8051C201.089 81.5541 201.852 80.3932 201.601 79.2114C201.35 78.0296 200.19 77.2662 199.008 77.5172L151.255 87.599C150.073 87.85 149.31 89.0108 149.561 90.1926C149.78 91.228 150.69 91.9391 151.705 91.9391ZM52.3624 75.8543L100.115 106.194C100.481 106.424 100.889 106.539 101.287 106.539C102.008 106.539 102.719 106.183 103.138 105.524C103.786 104.5 103.483 103.15 102.458 102.502L54.705 72.1625C53.6801 71.5141 52.331 71.8174 51.6826 72.8423C51.0342 73.8568 51.3374 75.2163 52.3624 75.8543ZM102.469 127.77L54.705 97.4416C53.6801 96.7932 52.331 97.0965 51.6826 98.1214C51.0342 99.1463 51.3375 100.495 52.3624 101.144L100.115 131.473C100.481 131.703 100.889 131.818 101.287 131.818C102.008 131.818 102.719 131.462 103.138 130.803C103.797 129.778 103.483 128.419 102.469 127.77ZM102.469 153.059L54.705 122.73C53.6801 122.081 52.331 122.385 51.6826 123.41C51.0342 124.434 51.3375 125.784 52.3624 126.432L100.115 156.761C100.481 156.991 100.889 157.106 101.287 157.106C102.008 157.106 102.719 156.75 103.138 156.091C103.797 155.056 103.483 153.707 102.469 153.059ZM52.3624 50.5784L100.115 80.9072C100.481 81.1373 100.889 81.2523 101.287 81.2523C102.008 81.2523 102.719 80.8968 103.138 80.2379C103.786 79.213 103.483 77.8638 102.458 77.2154L54.705 46.876C53.6801 46.2275 52.331 46.5308 51.6826 47.5558C51.0342 48.5702 51.3374 49.93 52.3624 50.5784ZM252 67.0922V200.404C252 203.312 250.724 206.282 248.601 208.342C246.645 210.235 244.094 211.229 241.416 211.145L126.5 207.38L11.5837 211.156C11.4791 211.156 11.3641 211.166 11.2595 211.166C8.70771 211.166 6.2813 210.173 4.39887 208.353C2.27583 206.282 1 203.312 1 200.404V67.0922C1 63.6513 2.72562 60.5976 5.84222 58.4851C8.14306 56.9269 10.768 56.1425 13.5604 56.1425V42.3269C13.5604 38.886 15.286 35.8323 18.4026 33.7199C20.7035 32.1616 23.3284 31.3772 26.1208 31.3772V8.74548C26.1208 5.2106 27.721 2.6484 30.6179 1.52928C32.5004 0.79719 35.5753 0.462522 39.5704 3.0039L126.918 58.4862L214.151 40.0691C217.362 39.3893 220.415 40.1318 222.967 42.1921C225.279 44.0642 226.607 46.5741 226.826 49.4817C229.995 48.8437 233.007 49.5863 235.528 51.6256C237.076 52.8806 238.184 54.4181 238.812 56.1645C241.834 56.0286 244.679 56.8234 247.147 58.4967C250.274 60.5988 252 63.6516 252 67.0922ZM227.622 53.7787L226.869 53.9355V177.679C226.869 182.709 223.428 186.955 218.502 187.991L164.768 199.338L230.405 193.095C233.313 192.823 235.049 189.832 235.049 187.102V59.8032C235.049 57.8579 234.285 56.2474 232.769 55.0236C231.263 53.8 229.525 53.3812 227.622 53.7787ZM128.697 62.5847V202.486L217.603 183.713C220.479 183.107 222.487 180.628 222.487 177.689V52.1787V52.1682V50.3694C222.487 48.4241 221.724 46.8136 220.207 45.5898C218.691 44.366 216.965 43.9479 215.062 44.3453L128.697 62.5847ZM30.514 136.064C30.514 139.285 32.8776 143.123 36.1198 145.194L124.306 201.198V62.0096L37.2202 6.70668C36.1953 6.05826 34.8253 5.38892 33.4762 5.38892C33.0474 5.38892 32.6082 5.46213 32.2003 5.619C31.7401 5.7968 30.5061 6.27787 30.5061 8.74612L30.514 136.064ZM17.9536 42.336V57.9502C18.0373 58.2535 18.0687 58.5882 18.0059 58.9228C17.9954 58.9856 17.9745 59.0588 17.9536 59.1215V175.647C17.9536 178.669 20.5891 181.253 24.5214 182.058L115.269 200.653L33.7769 148.884C29.2067 145.976 26.1318 140.831 26.1318 136.051V35.7667C24.2179 35.7667 22.4191 36.3 20.8714 37.3563C18.9366 38.6636 17.9536 40.3385 17.9536 42.336ZM107.864 203.602L23.6429 186.346C17.6189 185.112 13.5716 180.814 13.5716 175.647L13.5612 60.5328C11.6473 60.5328 9.84853 61.0661 8.30076 62.1224C6.36596 63.4297 5.38301 65.1031 5.38301 67.1006V200.413C5.38301 202.138 6.17786 203.969 7.45376 205.203C8.22767 205.956 9.5768 206.834 11.4384 206.782L107.864 203.602ZM247.617 67.0906C247.617 65.1035 246.634 63.4197 244.7 62.1124C243.141 61.0561 241.353 60.5227 239.439 60.5227V187.099C239.439 192.537 235.737 196.982 230.832 197.453L160.855 204.115L241.552 206.771C243.456 206.834 244.763 205.945 245.537 205.192C246.813 203.958 247.608 202.117 247.608 200.402L247.617 67.0906Z"/>
</mask>
<path d="M149.561 115.48C149.31 114.298 150.073 113.127 151.255 112.886L199.008 102.805C200.19 102.554 201.361 103.317 201.601 104.499C201.852 105.681 201.089 106.852 199.907 107.093L152.154 117.174C151.997 117.206 151.851 117.227 151.705 117.227C150.69 117.216 149.78 116.515 149.561 115.48ZM151.705 142.505C151.851 142.505 152.008 142.484 152.154 142.453L199.907 132.371C201.089 132.12 201.852 130.959 201.601 129.777C201.35 128.596 200.19 127.832 199.008 128.083L151.255 138.165C150.073 138.416 149.31 139.577 149.561 140.758C149.78 141.794 150.69 142.505 151.705 142.505ZM151.705 167.793C151.851 167.793 152.008 167.772 152.154 167.741L199.907 157.659C201.089 157.408 201.852 156.247 201.601 155.065C201.35 153.884 200.19 153.12 199.008 153.371L151.255 163.453C150.073 163.704 149.31 164.865 149.561 166.047C149.78 167.082 150.69 167.793 151.705 167.793ZM151.705 91.9391C151.851 91.9391 152.008 91.9182 152.154 91.8868L199.907 81.8051C201.089 81.5541 201.852 80.3932 201.601 79.2114C201.35 78.0296 200.19 77.2662 199.008 77.5172L151.255 87.599C150.073 87.85 149.31 89.0108 149.561 90.1926C149.78 91.228 150.69 91.9391 151.705 91.9391ZM52.3624 75.8543L100.115 106.194C100.481 106.424 100.889 106.539 101.287 106.539C102.008 106.539 102.719 106.183 103.138 105.524C103.786 104.5 103.483 103.15 102.458 102.502L54.705 72.1625C53.6801 71.5141 52.331 71.8174 51.6826 72.8423C51.0342 73.8568 51.3374 75.2163 52.3624 75.8543ZM102.469 127.77L54.705 97.4416C53.6801 96.7932 52.331 97.0965 51.6826 98.1214C51.0342 99.1463 51.3375 100.495 52.3624 101.144L100.115 131.473C100.481 131.703 100.889 131.818 101.287 131.818C102.008 131.818 102.719 131.462 103.138 130.803C103.797 129.778 103.483 128.419 102.469 127.77ZM102.469 153.059L54.705 122.73C53.6801 122.081 52.331 122.385 51.6826 123.41C51.0342 124.434 51.3375 125.784 52.3624 126.432L100.115 156.761C100.481 156.991 100.889 157.106 101.287 157.106C102.008 157.106 102.719 156.75 103.138 156.091C103.797 155.056 103.483 153.707 102.469 153.059ZM52.3624 50.5784L100.115 80.9072C100.481 81.1373 100.889 81.2523 101.287 81.2523C102.008 81.2523 102.719 80.8968 103.138 80.2379C103.786 79.213 103.483 77.8638 102.458 77.2154L54.705 46.876C53.6801 46.2275 52.331 46.5308 51.6826 47.5558C51.0342 48.5702 51.3374 49.93 52.3624 50.5784ZM252 67.0922V200.404C252 203.312 250.724 206.282 248.601 208.342C246.645 210.235 244.094 211.229 241.416 211.145L126.5 207.38L11.5837 211.156C11.4791 211.156 11.3641 211.166 11.2595 211.166C8.70771 211.166 6.2813 210.173 4.39887 208.353C2.27583 206.282 1 203.312 1 200.404V67.0922C1 63.6513 2.72562 60.5976 5.84222 58.4851C8.14306 56.9269 10.768 56.1425 13.5604 56.1425V42.3269C13.5604 38.886 15.286 35.8323 18.4026 33.7199C20.7035 32.1616 23.3284 31.3772 26.1208 31.3772V8.74548C26.1208 5.2106 27.721 2.6484 30.6179 1.52928C32.5004 0.79719 35.5753 0.462522 39.5704 3.0039L126.918 58.4862L214.151 40.0691C217.362 39.3893 220.415 40.1318 222.967 42.1921C225.279 44.0642 226.607 46.5741 226.826 49.4817C229.995 48.8437 233.007 49.5863 235.528 51.6256C237.076 52.8806 238.184 54.4181 238.812 56.1645C241.834 56.0286 244.679 56.8234 247.147 58.4967C250.274 60.5988 252 63.6516 252 67.0922ZM227.622 53.7787L226.869 53.9355V177.679C226.869 182.709 223.428 186.955 218.502 187.991L164.768 199.338L230.405 193.095C233.313 192.823 235.049 189.832 235.049 187.102V59.8032C235.049 57.8579 234.285 56.2474 232.769 55.0236C231.263 53.8 229.525 53.3812 227.622 53.7787ZM128.697 62.5847V202.486L217.603 183.713C220.479 183.107 222.487 180.628 222.487 177.689V52.1787V52.1682V50.3694C222.487 48.4241 221.724 46.8136 220.207 45.5898C218.691 44.366 216.965 43.9479 215.062 44.3453L128.697 62.5847ZM30.514 136.064C30.514 139.285 32.8776 143.123 36.1198 145.194L124.306 201.198V62.0096L37.2202 6.70668C36.1953 6.05826 34.8253 5.38892 33.4762 5.38892C33.0474 5.38892 32.6082 5.46213 32.2003 5.619C31.7401 5.7968 30.5061 6.27787 30.5061 8.74612L30.514 136.064ZM17.9536 42.336V57.9502C18.0373 58.2535 18.0687 58.5882 18.0059 58.9228C17.9954 58.9856 17.9745 59.0588 17.9536 59.1215V175.647C17.9536 178.669 20.5891 181.253 24.5214 182.058L115.269 200.653L33.7769 148.884C29.2067 145.976 26.1318 140.831 26.1318 136.051V35.7667C24.2179 35.7667 22.4191 36.3 20.8714 37.3563C18.9366 38.6636 17.9536 40.3385 17.9536 42.336ZM107.864 203.602L23.6429 186.346C17.6189 185.112 13.5716 180.814 13.5716 175.647L13.5612 60.5328C11.6473 60.5328 9.84853 61.0661 8.30076 62.1224C6.36596 63.4297 5.38301 65.1031 5.38301 67.1006V200.413C5.38301 202.138 6.17786 203.969 7.45376 205.203C8.22767 205.956 9.5768 206.834 11.4384 206.782L107.864 203.602ZM247.617 67.0906C247.617 65.1035 246.634 63.4197 244.7 62.1124C243.141 61.0561 241.353 60.5227 239.439 60.5227V187.099C239.439 192.537 235.737 196.982 230.832 197.453L160.855 204.115L241.552 206.771C243.456 206.834 244.763 205.945 245.537 205.192C246.813 203.958 247.608 202.117 247.608 200.402L247.617 67.0906Z" fill="white" fill-opacity="0.07"/>
<path d="M149.561 115.48C149.31 114.298 150.073 113.127 151.255 112.886L199.008 102.805C200.19 102.554 201.361 103.317 201.601 104.499C201.852 105.681 201.089 106.852 199.907 107.093L152.154 117.174C151.997 117.206 151.851 117.227 151.705 117.227C150.69 117.216 149.78 116.515 149.561 115.48ZM151.705 142.505C151.851 142.505 152.008 142.484 152.154 142.453L199.907 132.371C201.089 132.12 201.852 130.959 201.601 129.777C201.35 128.596 200.19 127.832 199.008 128.083L151.255 138.165C150.073 138.416 149.31 139.577 149.561 140.758C149.78 141.794 150.69 142.505 151.705 142.505ZM151.705 167.793C151.851 167.793 152.008 167.772 152.154 167.741L199.907 157.659C201.089 157.408 201.852 156.247 201.601 155.065C201.35 153.884 200.19 153.12 199.008 153.371L151.255 163.453C150.073 163.704 149.31 164.865 149.561 166.047C149.78 167.082 150.69 167.793 151.705 167.793ZM151.705 91.9391C151.851 91.9391 152.008 91.9182 152.154 91.8868L199.907 81.8051C201.089 81.5541 201.852 80.3932 201.601 79.2114C201.35 78.0296 200.19 77.2662 199.008 77.5172L151.255 87.599C150.073 87.85 149.31 89.0108 149.561 90.1926C149.78 91.228 150.69 91.9391 151.705 91.9391ZM52.3624 75.8543L100.115 106.194C100.481 106.424 100.889 106.539 101.287 106.539C102.008 106.539 102.719 106.183 103.138 105.524C103.786 104.5 103.483 103.15 102.458 102.502L54.705 72.1625C53.6801 71.5141 52.331 71.8174 51.6826 72.8423C51.0342 73.8568 51.3374 75.2163 52.3624 75.8543ZM102.469 127.77L54.705 97.4416C53.6801 96.7932 52.331 97.0965 51.6826 98.1214C51.0342 99.1463 51.3375 100.495 52.3624 101.144L100.115 131.473C100.481 131.703 100.889 131.818 101.287 131.818C102.008 131.818 102.719 131.462 103.138 130.803C103.797 129.778 103.483 128.419 102.469 127.77ZM102.469 153.059L54.705 122.73C53.6801 122.081 52.331 122.385 51.6826 123.41C51.0342 124.434 51.3375 125.784 52.3624 126.432L100.115 156.761C100.481 156.991 100.889 157.106 101.287 157.106C102.008 157.106 102.719 156.75 103.138 156.091C103.797 155.056 103.483 153.707 102.469 153.059ZM52.3624 50.5784L100.115 80.9072C100.481 81.1373 100.889 81.2523 101.287 81.2523C102.008 81.2523 102.719 80.8968 103.138 80.2379C103.786 79.213 103.483 77.8638 102.458 77.2154L54.705 46.876C53.6801 46.2275 52.331 46.5308 51.6826 47.5558C51.0342 48.5702 51.3374 49.93 52.3624 50.5784ZM252 67.0922V200.404C252 203.312 250.724 206.282 248.601 208.342C246.645 210.235 244.094 211.229 241.416 211.145L126.5 207.38L11.5837 211.156C11.4791 211.156 11.3641 211.166 11.2595 211.166C8.70771 211.166 6.2813 210.173 4.39887 208.353C2.27583 206.282 1 203.312 1 200.404V67.0922C1 63.6513 2.72562 60.5976 5.84222 58.4851C8.14306 56.9269 10.768 56.1425 13.5604 56.1425V42.3269C13.5604 38.886 15.286 35.8323 18.4026 33.7199C20.7035 32.1616 23.3284 31.3772 26.1208 31.3772V8.74548C26.1208 5.2106 27.721 2.6484 30.6179 1.52928C32.5004 0.79719 35.5753 0.462522 39.5704 3.0039L126.918 58.4862L214.151 40.0691C217.362 39.3893 220.415 40.1318 222.967 42.1921C225.279 44.0642 226.607 46.5741 226.826 49.4817C229.995 48.8437 233.007 49.5863 235.528 51.6256C237.076 52.8806 238.184 54.4181 238.812 56.1645C241.834 56.0286 244.679 56.8234 247.147 58.4967C250.274 60.5988 252 63.6516 252 67.0922ZM227.622 53.7787L226.869 53.9355V177.679C226.869 182.709 223.428 186.955 218.502 187.991L164.768 199.338L230.405 193.095C233.313 192.823 235.049 189.832 235.049 187.102V59.8032C235.049 57.8579 234.285 56.2474 232.769 55.0236C231.263 53.8 229.525 53.3812 227.622 53.7787ZM128.697 62.5847V202.486L217.603 183.713C220.479 183.107 222.487 180.628 222.487 177.689V52.1787V52.1682V50.3694C222.487 48.4241 221.724 46.8136 220.207 45.5898C218.691 44.366 216.965 43.9479 215.062 44.3453L128.697 62.5847ZM30.514 136.064C30.514 139.285 32.8776 143.123 36.1198 145.194L124.306 201.198V62.0096L37.2202 6.70668C36.1953 6.05826 34.8253 5.38892 33.4762 5.38892C33.0474 5.38892 32.6082 5.46213 32.2003 5.619C31.7401 5.7968 30.5061 6.27787 30.5061 8.74612L30.514 136.064ZM17.9536 42.336V57.9502C18.0373 58.2535 18.0687 58.5882 18.0059 58.9228C17.9954 58.9856 17.9745 59.0588 17.9536 59.1215V175.647C17.9536 178.669 20.5891 181.253 24.5214 182.058L115.269 200.653L33.7769 148.884C29.2067 145.976 26.1318 140.831 26.1318 136.051V35.7667C24.2179 35.7667 22.4191 36.3 20.8714 37.3563C18.9366 38.6636 17.9536 40.3385 17.9536 42.336ZM107.864 203.602L23.6429 186.346C17.6189 185.112 13.5716 180.814 13.5716 175.647L13.5612 60.5328C11.6473 60.5328 9.84853 61.0661 8.30076 62.1224C6.36596 63.4297 5.38301 65.1031 5.38301 67.1006V200.413C5.38301 202.138 6.17786 203.969 7.45376 205.203C8.22767 205.956 9.5768 206.834 11.4384 206.782L107.864 203.602ZM247.617 67.0906C247.617 65.1035 246.634 63.4197 244.7 62.1124C243.141 61.0561 241.353 60.5227 239.439 60.5227V187.099C239.439 192.537 235.737 196.982 230.832 197.453L160.855 204.115L241.552 206.771C243.456 206.834 244.763 205.945 245.537 205.192C246.813 203.958 247.608 202.117 247.608 200.402L247.617 67.0906Z" stroke="white" stroke-opacity="0.07" strokeWidth="2" mask="url(#path-1-outside-1_514_7310)"/>
</svg>
