<svg width="298" height="287" viewBox="0 0 298 287" fill="none" xmlns="http://www.w3.org/2000/svg">
<path d="M277.506 0H120.843C115.41 0.00804316 110.202 2.16992 106.36 6.01174C102.518 9.85355 100.356 15.0619 100.348 20.495V106.459L82.3772 125.555L72.6163 93.2614C72.0061 90.3973 70.3175 87.8777 67.9002 86.2247C65.483 84.5716 62.5224 83.912 59.632 84.3823C56.5163 84.885 53.6583 86.4157 51.5131 88.7306C48.9919 91.3812 47.5779 94.8944 47.56 98.5524L47.1343 153.865L32.1128 176.914L29.4369 174.39C28.6393 173.651 27.5825 173.255 26.4954 173.289C25.4084 173.324 24.3785 173.785 23.6289 174.573L1.12698 198.534C0.756139 198.923 0.465786 199.381 0.272618 199.882C0.0794504 200.383 -0.0127198 200.917 0.00141025 201.454C0.0155403 201.991 0.135693 202.52 0.354953 203.011C0.574214 203.501 0.888256 203.943 1.27902 204.312L68.8457 267.804C69.2342 268.176 69.6933 268.468 70.1959 268.661C70.6986 268.853 71.2347 268.944 71.7728 268.927C72.3109 268.91 72.8402 268.786 73.3297 268.562C73.8192 268.337 74.2589 268.018 74.6232 267.621L97.3076 243.568C98.0373 242.75 98.4121 241.675 98.3493 240.58C98.2866 239.485 97.7916 238.46 96.9731 237.73L93.9323 234.689L100.348 230.128V266.435C100.356 271.868 102.518 277.077 106.36 280.918C110.202 284.76 115.41 286.922 120.843 286.93H277.506C282.939 286.922 288.147 284.76 291.989 280.918C295.831 277.077 297.993 271.868 298.001 266.435V20.495C297.993 15.0619 295.831 9.85355 291.989 6.01174C288.147 2.16992 282.939 0.00804316 277.506 0ZM71.4608 259.016L9.88449 201.24L26.7914 182.996L29.8322 186.036C29.8823 186.026 29.9341 186.026 29.9842 186.036L84.8099 237.73L88.3068 240.984L71.4608 259.016ZM38.164 182.479L53.9457 158.426C54.846 157.108 55.3329 155.552 55.3445 153.956L55.7702 98.6133C55.7557 97.1375 56.2783 95.7069 57.2405 94.588C58.2028 93.469 59.5391 92.7382 61.0004 92.5316C61.4069 92.4487 61.8261 92.4499 62.2322 92.5351C62.6383 92.6202 63.0226 92.7876 63.3616 93.0269C63.7006 93.2662 63.987 93.5723 64.2032 93.9264C64.4194 94.2805 64.5609 94.6751 64.6189 95.0859V95.5116L76.4781 134.768C76.4854 134.89 76.4854 135.012 76.4781 135.133V135.316C76.6802 135.756 76.9581 136.158 77.2991 136.502C77.8052 136.937 78.4111 137.24 79.0628 137.383C79.5014 137.543 79.9644 137.625 80.4311 137.627H80.6136C80.945 137.613 81.2728 137.552 81.5866 137.444L82.1036 137.383H82.3164C82.7431 137.173 83.1332 136.896 83.4719 136.562L132.733 84.139C133.777 83.0402 135.212 82.3981 136.727 82.3525C138.242 82.307 139.714 82.8616 140.821 83.8958C141.376 84.409 141.821 85.0292 142.129 85.7191C142.438 86.409 142.603 87.1541 142.616 87.9096C142.632 89.346 142.086 90.7319 141.095 91.7714L123.063 110.959L102.112 133.278L93.9627 141.945C93.6013 142.343 93.3223 142.809 93.1419 143.316C92.9615 143.822 92.8831 144.36 92.9114 144.897C92.9397 145.434 93.074 145.96 93.3066 146.445C93.5392 146.93 93.8656 147.364 94.2668 147.722C95.0321 148.443 96.0433 148.845 97.0947 148.847C97.6657 148.86 98.2327 148.75 98.7574 148.524C99.282 148.299 99.752 147.963 100.136 147.54L108.224 138.904L129.206 116.615C130.337 115.417 131.896 114.716 133.543 114.665C135.19 114.614 136.79 115.216 137.994 116.341C138.59 116.913 139.067 117.598 139.396 118.356C139.726 119.113 139.901 119.929 139.912 120.755C139.924 121.581 139.771 122.402 139.462 123.168C139.154 123.935 138.696 124.632 138.115 125.22L129.996 133.826L106.187 159.186C105.722 159.674 105.385 160.269 105.206 160.919C105.027 161.569 105.013 162.253 105.163 162.91C105.314 163.566 105.625 164.176 106.069 164.683C106.513 165.19 107.076 165.579 107.707 165.815H108.254C108.558 165.844 108.863 165.844 109.167 165.815H109.471C109.951 165.793 110.424 165.691 110.87 165.511C111.349 165.303 111.782 165.003 112.147 164.629L135.987 139.269C136.545 138.683 137.214 138.215 137.956 137.891C138.697 137.567 139.496 137.395 140.305 137.383C141.124 137.346 141.942 137.476 142.71 137.763C143.479 138.05 144.181 138.49 144.775 139.056C145.991 140.206 146.702 141.792 146.751 143.465C146.775 144.286 146.638 145.103 146.345 145.87C146.053 146.637 145.612 147.339 145.048 147.935L135.926 157.666L119.627 174.998C119.246 175.377 118.944 175.827 118.738 176.323C118.532 176.819 118.426 177.35 118.426 177.887C118.426 178.424 118.532 178.956 118.738 179.451C118.944 179.947 119.246 180.397 119.627 180.776C120.033 181.148 120.509 181.437 121.026 181.627C121.459 181.769 121.909 181.851 122.364 181.87H122.516C123.031 181.868 123.539 181.754 124.006 181.536C124.506 181.336 124.953 181.024 125.313 180.624L141.643 163.261C142.453 162.281 143.55 161.579 144.779 161.255C146.009 160.931 147.309 161 148.497 161.453C149.685 161.906 150.701 162.72 151.402 163.781C152.104 164.842 152.455 166.095 152.407 167.366C152.44 168.187 152.306 169.007 152.013 169.775C151.721 170.544 151.275 171.245 150.704 171.836L125.161 199.021L118.897 206.319L87.8203 229.155L38.164 182.479ZM289.79 266.435C289.79 269.661 288.509 272.755 286.228 275.036C283.947 277.317 280.853 278.598 277.627 278.598H120.843C117.618 278.598 114.524 277.317 112.243 275.036C109.962 272.755 108.68 269.661 108.68 266.435V224.077L124.219 212.674C124.436 212.497 124.639 212.304 124.827 212.096L131.517 204.616L156.999 177.522C158.306 176.141 159.328 174.514 160.006 172.737C160.683 170.959 161.003 169.065 160.947 167.163C160.89 165.262 160.459 163.39 159.677 161.656C158.895 159.922 157.778 158.359 156.39 157.057C154.799 155.639 152.907 154.599 150.856 154.017L151.13 153.713C153.754 150.92 155.164 147.2 155.05 143.37C154.936 139.539 153.308 135.91 150.522 133.278C148.904 131.784 146.971 130.672 144.866 130.025C147.073 127.366 148.231 123.991 148.119 120.537C148.068 118.643 147.64 116.779 146.863 115.051C146.085 113.323 144.972 111.767 143.589 110.472C141.992 109.044 140.088 108.004 138.024 107.432L147.146 97.6706C149.673 94.98 151.027 91.3967 150.913 87.7078C150.799 84.0189 149.226 80.5261 146.538 77.9966C143.848 75.4705 140.264 74.1156 136.575 74.2296C132.886 74.3437 129.394 75.9173 126.864 78.6048L108.559 97.8531V20.495C108.559 17.2691 109.84 14.1754 112.121 11.8943C114.402 9.61328 117.496 8.3318 120.722 8.3318H277.384C280.61 8.3318 283.704 9.61328 285.985 11.8943C288.266 14.1754 289.547 17.2691 289.547 20.495L289.79 266.435Z" fill="white" fill-opacity="0.07"/>
</svg>
