<svg width="270" height="270" viewBox="0 0 270 270" fill="none" xmlns="http://www.w3.org/2000/svg">
<path d="M171.675 58.5674L122.844 30.3768C118.775 28.022 113.903 28.022 109.823 30.3768C105.742 32.7316 103.312 36.9419 103.312 41.6514V98.0353C103.312 102.745 105.742 106.955 109.823 109.31C111.863 110.482 114.098 111.079 116.334 111.079C118.569 111.079 120.804 110.493 122.844 109.321L171.675 81.1302C175.755 78.7754 178.186 74.5542 178.186 69.8556C178.186 65.1461 175.755 60.9251 171.675 58.5702L171.675 58.5674ZM167.334 73.6075L118.504 101.798C116.55 102.927 114.814 102.178 114.163 101.798C113.512 101.418 111.993 100.301 111.993 98.0434V41.6594C111.993 39.4023 113.512 38.2737 114.163 37.9048C114.554 37.6769 115.346 37.3079 116.355 37.3079C116.995 37.3079 117.733 37.4599 118.504 37.9048L167.334 66.0953C169.288 67.2239 169.505 69.1011 169.505 69.85C169.505 70.5989 169.288 72.4788 167.334 73.6075ZM5.22736 139.778H265.66C268.058 139.778 270 137.836 270 135.438C270 133.039 268.058 131.097 265.66 131.097H226.596V18.243C226.596 8.67216 218.805 0.880859 209.234 0.880859H61.6558C52.0849 0.880859 44.2936 8.67216 44.2936 18.243V131.097H5.23014C2.83199 131.097 0.889597 133.039 0.889597 135.438C0.889597 137.836 2.82921 139.778 5.22736 139.778ZM52.9747 18.243C52.9747 13.4574 56.8702 9.56194 61.6558 9.56194H209.234C214.02 9.56194 217.915 13.4574 217.915 18.243V131.097H52.9747V18.243ZM265.66 261.313H256.979V248.292C256.979 235.14 247.169 224.267 234.495 222.52C240.311 216.986 243.957 209.194 243.957 200.546C243.957 183.791 230.328 170.16 213.572 170.16C196.816 170.16 183.186 183.79 183.186 200.546C183.186 209.183 186.832 216.986 192.649 222.52C185.085 223.561 178.553 227.837 174.505 233.925C170.458 227.837 163.925 223.561 156.362 222.52C162.178 216.986 165.824 209.194 165.824 200.546C165.824 183.791 152.195 170.16 135.439 170.16C118.683 170.16 105.054 183.79 105.054 200.546C105.054 209.183 108.7 216.986 114.516 222.52C106.953 223.561 100.42 227.837 96.3729 233.925C92.3254 227.837 85.7928 223.561 78.2295 222.52C84.046 216.986 87.6918 209.194 87.6918 200.546C87.6918 183.791 74.0626 170.16 57.3066 170.16C40.5506 170.16 26.9214 183.79 26.9214 200.546C26.9214 209.183 30.5675 216.986 36.3837 222.52C23.7093 224.267 13.8995 235.14 13.8995 248.292V261.313H5.21847C2.82032 261.313 0.87793 263.256 0.87793 265.654C0.87793 268.052 2.82032 269.994 5.21847 269.994H265.651C268.049 269.994 269.991 268.052 269.991 265.654C269.991 263.256 268.049 261.313 265.651 261.313H265.66ZM191.872 200.546C191.872 188.577 201.606 178.843 213.575 178.843C225.544 178.843 235.277 188.577 235.277 200.546C235.277 212.515 225.544 222.248 213.575 222.248C201.606 222.248 191.872 212.515 191.872 200.546ZM113.742 200.546C113.742 188.577 123.476 178.843 135.445 178.843C147.414 178.843 157.148 188.577 157.148 200.546C157.148 212.515 147.414 222.248 135.445 222.248C123.476 222.248 113.742 212.515 113.742 200.546ZM35.6125 200.546C35.6125 188.577 45.3462 178.843 57.3152 178.843C69.2843 178.843 79.0179 188.577 79.0179 200.546C79.0179 212.515 69.2843 222.248 57.3152 222.248C45.3462 222.248 35.6125 212.515 35.6125 200.546ZM22.5909 248.293C22.5909 238.722 30.3822 230.931 39.9531 230.931H74.6774C84.2482 230.931 92.0395 238.722 92.0395 248.293V261.315H22.5909V248.293ZM100.721 248.293C100.721 238.722 108.512 230.931 118.083 230.931H152.807C162.378 230.931 170.169 238.722 170.169 248.293V261.315H100.721V248.293ZM178.85 261.315V248.293C178.85 238.722 186.642 230.931 196.212 230.931H230.937C240.508 230.931 248.299 238.722 248.299 248.293V261.315H178.85Z" fill="white" fill-opacity="0.1"/>
</svg>
