<svg width="208" height="262" viewBox="0 0 208 262" fill="none" xmlns="http://www.w3.org/2000/svg">
<path d="M207.602 3.1908C207.602 1.41682 206.185 0.0115194 204.423 0.0115194L32.6687 0C14.6523 0 0 14.6528 0 32.6687V197.661C0 215.677 14.6528 230.329 32.6687 230.329H106.358C106.98 230.329 107.567 230.157 108.062 229.822V245.305C108.062 246.456 108.684 247.516 109.687 248.081L132.276 260.706C132.749 260.971 133.313 261.121 133.843 261.121C134.373 261.121 134.937 260.971 135.41 260.706L157.619 248.081C158.621 247.516 159.243 246.457 159.243 245.305V230.329H204.421C206.195 230.329 207.601 228.913 207.601 227.15V162.756C207.601 162.607 207.601 162.457 207.566 162.342C207.601 162.192 207.601 162.077 207.601 161.927L207.602 3.1908ZM6.37007 32.7041C6.37007 18.1896 18.166 6.37068 32.6805 6.37068H201.208V159.567H32.6687C21.8749 159.567 12.3255 164.819 6.35828 172.895L6.37007 32.7041ZM152.875 243.497L133.856 254.325L114.481 243.474V198.145H152.909L152.897 243.497L152.875 243.497ZM201.232 224.006H159.245V194.953C159.245 193.18 157.828 191.774 156.065 191.774H51.5509C49.777 191.774 48.3717 193.191 48.3717 194.953C48.3717 196.727 49.7886 198.133 51.5509 198.133H108.089V224.501C107.582 224.178 106.994 223.994 106.384 223.994L32.6713 224.005C18.1567 224.005 6.36087 212.209 6.36087 197.672V192.246C6.36087 177.732 18.1567 165.913 32.6713 165.913H201.199L201.211 224.005L201.232 224.006ZM75.5795 107.58C75.5795 109.354 76.9963 110.76 78.7587 110.76H81.823V116.45C81.823 118.224 83.2399 119.629 85.0023 119.629C86.7763 119.629 88.1816 118.213 88.1816 116.45V110.76H94.3443V122.878C94.3443 124.652 95.7612 126.057 97.5236 126.057C99.2976 126.057 100.703 124.64 100.703 122.878V110.76H106.831V116.45C106.831 118.224 108.248 119.629 110.01 119.629C111.784 119.629 113.19 118.213 113.19 116.45V110.76H119.352V122.878C119.352 124.652 120.769 126.057 122.532 126.057C124.306 126.057 125.711 124.64 125.711 122.878V110.76H128.775C130.549 110.76 131.955 109.343 131.955 107.58V104.516H144.073C145.847 104.516 147.252 103.099 147.252 101.337C147.333 99.5627 145.882 98.1459 144.119 98.1459H132.001V91.9831H137.691C139.465 91.9831 140.871 90.5662 140.871 88.8038C140.871 87.0299 139.454 85.6246 137.691 85.6246H132.001V79.4963H144.119C145.893 79.4963 147.298 78.0794 147.298 76.317C147.298 74.543 145.882 73.1377 144.119 73.1377H132.001V66.975H137.691C139.465 66.975 140.871 65.5581 140.871 63.7957C140.871 62.0217 139.454 60.6164 137.691 60.6164H132.001V57.5521C132.001 55.7781 130.584 54.3728 128.821 54.3728H125.757V42.2543C125.757 40.4804 124.34 39.0751 122.578 39.0751C120.804 39.0751 119.399 40.492 119.399 42.2543V54.3728L113.236 54.3268V48.6361C113.236 46.8622 111.819 45.4568 110.056 45.4568C108.282 45.4568 106.877 46.8737 106.877 48.6361V54.3268H100.749V42.2083C100.749 40.4343 99.332 39.029 97.5696 39.029C95.7957 39.029 94.3904 40.4459 94.3904 42.2083V54.3268H88.2276V48.6361C88.2276 46.8622 86.8107 45.4568 85.0483 45.4568C83.2743 45.4568 81.869 46.8737 81.869 48.6361V54.3268H78.8047C77.0308 54.3268 75.6255 55.7437 75.6255 57.5061V60.5703H69.9348C68.1609 60.5703 66.7556 61.9872 66.7556 63.7496C66.7556 65.5236 68.1724 66.9289 69.9348 66.9289H75.6255V73.0917H63.53C61.756 73.0917 60.3507 74.5085 60.3507 76.2709C60.3507 78.0449 61.7676 79.4502 63.53 79.4502H75.6255V85.5785H69.9348C68.1609 85.5785 66.7556 86.9954 66.7556 88.7578C66.7556 90.5317 68.1724 91.937 69.9348 91.937H75.6255L75.5794 98.1461H63.4839C61.7099 98.1461 60.3046 99.563 60.3046 101.325C60.3046 103.099 61.7215 104.505 63.4839 104.505H75.5794L75.5795 107.58ZM81.9498 60.7181H125.621V104.389L81.9498 104.401V60.7181ZM103.802 142.794C137.014 142.794 164.026 115.781 164.026 82.57C164.026 49.3593 137.013 22.3225 103.802 22.3225C70.5916 22.3225 43.5784 49.3357 43.5784 82.57C43.5784 115.781 70.5916 142.794 103.802 142.794ZM103.802 28.6953C133.498 28.6953 157.656 52.8745 157.656 82.573C157.656 112.271 133.5 136.427 103.802 136.427C74.1044 136.427 49.9482 112.271 49.9482 82.573C49.9251 52.8532 74.1044 28.6953 103.802 28.6953Z" fill="white" fill-opacity="0.1"/>
</svg>
