<svg width="259" height="232" viewBox="0 0 259 232" fill="none" xmlns="http://www.w3.org/2000/svg">
<path d="M254.534 222.857H4.46552C3.28119 222.857 2.14537 223.328 1.30792 224.165C0.470473 225.003 0 226.139 0 227.323C0 228.507 0.470473 229.643 1.30792 230.481C2.14537 231.318 3.28119 231.788 4.46552 231.788H254.534C255.719 231.788 256.855 231.318 257.692 230.481C258.53 229.643 259 228.507 259 227.323C259 226.139 258.53 225.003 257.692 224.165C256.855 223.328 255.719 222.857 254.534 222.857Z" fill="white" fill-opacity="0.1"/>
<path d="M17.862 143.752C17.2755 143.752 16.6947 143.867 16.1527 144.091C15.6108 144.315 15.1184 144.644 14.7036 145.059C14.2889 145.474 13.96 145.966 13.7357 146.508C13.5114 147.05 13.3961 147.631 13.3965 148.217V207.063C13.3961 207.649 13.5114 208.23 13.7357 208.772C13.96 209.314 14.2889 209.806 14.7036 210.221C15.1184 210.636 15.6108 210.965 16.1527 211.189C16.6947 211.413 17.2755 211.529 17.862 211.528H53.5861C54.1727 211.529 54.7535 211.413 55.2954 211.189C55.8374 210.965 56.3298 210.636 56.7445 210.221C57.1592 209.806 57.4881 209.314 57.7124 208.772C57.9367 208.23 58.052 207.649 58.0517 207.063V148.217C58.052 147.631 57.9367 147.05 57.7124 146.508C57.4881 145.966 57.1592 145.474 56.7445 145.059C56.3298 144.644 55.8374 144.315 55.2954 144.091C54.7535 143.867 54.1727 143.752 53.5861 143.752H17.862ZM49.1206 202.597H22.3275V152.683H49.1206V202.597Z" fill="white" fill-opacity="0.1"/>
<path d="M80.3786 128.211C79.7921 128.211 79.2113 128.326 78.6693 128.55C78.1274 128.774 77.635 129.103 77.2202 129.518C76.8055 129.933 76.4766 130.425 76.2523 130.967C76.028 131.509 75.9127 132.09 75.9131 132.676V207.073C75.9127 207.659 76.028 208.24 76.2523 208.782C76.4766 209.324 76.8055 209.816 77.2202 210.231C77.635 210.646 78.1274 210.975 78.6693 211.199C79.2113 211.423 79.7921 211.538 80.3786 211.538H116.103C116.689 211.538 117.27 211.423 117.812 211.199C118.354 210.975 118.846 210.646 119.261 210.231C119.676 209.816 120.005 209.324 120.229 208.782C120.453 208.24 120.569 207.659 120.568 207.073V132.676C120.569 132.09 120.453 131.509 120.229 130.967C120.005 130.425 119.676 129.933 119.261 129.518C118.846 129.103 118.354 128.774 117.812 128.55C117.27 128.326 116.689 128.211 116.103 128.211H80.3786ZM111.637 202.607H84.8441V137.142H111.637V202.607Z" fill="white" fill-opacity="0.1"/>
<path d="M142.897 108.115C142.311 108.115 141.73 108.23 141.188 108.454C140.646 108.679 140.154 109.008 139.739 109.422C139.324 109.837 138.995 110.33 138.771 110.871C138.547 111.413 138.431 111.994 138.432 112.581V207.072C138.431 207.658 138.547 208.239 138.771 208.781C138.995 209.323 139.324 209.815 139.739 210.23C140.154 210.645 140.646 210.974 141.188 211.198C141.73 211.422 142.311 211.538 142.897 211.537H178.621C179.208 211.538 179.789 211.422 180.331 211.198C180.873 210.974 181.365 210.645 181.78 210.23C182.194 209.815 182.523 209.323 182.748 208.781C182.972 208.239 183.087 207.658 183.087 207.072V112.581C183.087 111.994 182.972 111.413 182.748 110.871C182.523 110.33 182.194 109.837 181.78 109.422C181.365 109.008 180.873 108.679 180.331 108.454C179.789 108.23 179.208 108.115 178.621 108.115H142.897ZM174.156 202.606H147.363V117.046H174.156V202.606Z" fill="white" fill-opacity="0.1"/>
<path d="M200.948 80.5202V207.068C200.948 207.654 201.063 208.235 201.287 208.777C201.512 209.319 201.841 209.811 202.255 210.226C202.67 210.641 203.163 210.97 203.704 211.194C204.246 211.418 204.827 211.534 205.414 211.533H241.138C241.724 211.534 242.305 211.418 242.847 211.194C243.389 210.97 243.882 210.641 244.296 210.226C244.711 209.811 245.04 209.319 245.264 208.777C245.488 208.235 245.604 207.654 245.603 207.068V80.5202C245.604 79.9337 245.488 79.3529 245.264 78.8109C245.04 78.269 244.711 77.7766 244.296 77.3618C243.882 76.9471 243.389 76.6182 242.847 76.3939C242.305 76.1696 241.724 76.0543 241.138 76.0547H205.414C204.827 76.0543 204.246 76.1696 203.704 76.3939C203.163 76.6182 202.67 76.9471 202.255 77.3618C201.841 77.7766 201.512 78.269 201.287 78.8109C201.063 79.3529 200.948 79.9337 200.948 80.5202ZM209.879 84.9857H236.672V202.602H209.879V84.9857Z" fill="white" fill-opacity="0.1"/>
<path d="M13.5625 109.463C13.8244 110.403 14.3864 111.23 15.1629 111.82C15.9393 112.41 16.8874 112.729 17.8624 112.73C18.1641 112.729 18.4651 112.698 18.7608 112.638C23.2873 111.714 128.585 89.7915 195.384 43.3484L199.885 50.4653C200.307 51.1095 200.885 51.6373 201.565 52.0007C202.244 52.3641 203.004 52.5514 203.774 52.5455C204.547 52.5257 205.302 52.3055 205.964 51.9064C206.626 51.5074 207.173 50.9432 207.551 50.2691L230.192 9.97916C230.561 9.32219 230.758 8.58259 230.765 7.82914C230.771 7.07569 230.587 6.33285 230.229 5.66969C229.872 5.00652 229.352 4.44457 228.719 4.03607C228.086 3.62757 227.36 3.38579 226.608 3.33321L177.723 0.0146221C176.898 -0.0529814 176.071 0.11477 175.337 0.498398C174.604 0.882027 173.995 1.46579 173.58 2.18192C173.159 2.8898 172.942 3.70017 172.953 4.52356C172.964 5.34696 173.202 6.15138 173.641 6.84803L178.987 15.343C158.927 25.3294 73.8034 66.5089 10.0479 78.9068C9.44262 79.0238 8.86816 79.265 8.36086 79.6153C7.85356 79.9656 7.42445 80.4173 7.10067 80.9419C6.77689 81.4665 6.56547 82.0526 6.47978 82.6631C6.3941 83.2736 6.436 83.8953 6.60286 84.4887L13.5625 109.463ZM187.421 21.0908C187.972 20.8089 188.458 20.4152 188.849 19.9349C189.239 19.4546 189.525 18.8981 189.689 18.3011C189.852 17.7041 189.889 17.0795 189.797 16.4674C189.706 15.8552 189.488 15.2689 189.157 14.7457L185.869 9.52108L218.941 11.767L203.434 39.367L200.417 34.5918C200.09 34.0752 199.661 33.6311 199.157 33.2869C198.652 32.9427 198.082 32.7059 197.481 32.591C196.881 32.4761 196.264 32.4856 195.668 32.619C195.071 32.7524 194.509 33.0068 194.015 33.3664C136.138 75.4182 41.6815 98.3475 21.0284 103.001L16.4931 86.7085C89.6247 71.1794 186.436 21.601 187.421 21.0908Z" fill="white" fill-opacity="0.1"/>
</svg>
