<svg width="276" height="276" viewBox="0 0 276 276" fill="none" xmlns="http://www.w3.org/2000/svg">
<path d="M13.7476 0C6.2058 0 0 6.09817 0 13.7473V146.742C0 154.445 6.2058 160.48 13.7476 160.48H152.871C159.956 166.203 169.038 169.651 178.825 169.651C201.741 169.651 220.095 151.129 220.095 128.391C220.095 121.039 218.174 114.103 214.784 108.115L223.346 99.5534C226.249 96.6429 224.15 91.584 219.952 91.7169C218.763 91.7518 217.708 92.1987 216.88 93.0514L209.33 100.574C201.776 92.2939 190.88 87.1316 178.825 87.1316V13.7473C178.825 6.20562 172.736 0 165.087 0H13.7476ZM13.7476 9.17975H64.1791V50.4394C64.1773 53.9841 68.0261 56.1905 71.0842 54.3979L89.4352 43.839L107.777 54.3979C110.829 56.1593 114.645 53.9629 114.655 50.4394V9.17975H165.087C167.707 9.17975 169.655 11.253 169.655 13.7473V88.1615C151.175 92.3876 137.565 108.811 137.565 128.391C137.565 136.865 140.11 144.747 144.515 151.309H13.7476C11.2354 151.309 9.17992 149.361 9.17992 146.742V13.7473C9.17992 11.2172 11.1279 9.17975 13.7476 9.17975ZM73.3502 9.17975H105.475V42.5135L91.701 34.5965C90.2868 33.7837 88.5477 33.7837 87.1335 34.5965L73.3502 42.5135V9.17975ZM178.825 96.3023C188.408 96.3023 196.958 100.48 202.828 107.094L178.825 131.069L163.735 115.969C159.274 111.832 153.113 117.94 157.233 122.471L175.583 140.813C177.375 142.609 180.285 142.609 182.077 140.813L207.96 114.939C209.844 119.031 210.915 123.575 210.915 128.391C210.915 146.173 196.536 160.48 178.825 160.48C161.044 160.48 146.745 146.083 146.745 128.391C146.745 110.717 161.044 96.3023 178.825 96.3023ZM27.5131 105.455C25.2169 105.455 22.9218 106.985 22.9275 110.05V132.977C22.9163 139.103 32.1097 139.103 32.0985 132.977V110.05C32.1042 106.986 29.8092 105.455 27.5131 105.455ZM45.8551 105.455C43.5589 105.455 41.2638 106.985 41.2695 110.05V132.977C41.2581 139.103 50.4517 139.103 50.4405 132.977V110.05C50.446 106.986 48.1512 105.455 45.8551 105.455ZM64.1971 105.455C61.9009 105.455 59.6058 106.985 59.6115 110.05V132.977C59.6001 139.103 68.7937 139.103 68.7825 132.977V110.05C68.788 106.986 66.4932 105.455 64.1971 105.455ZM84.0165 240.599C96.3676 248.914 109.369 257.282 120.71 263.687C132.05 270.091 142.157 274.814 148.464 275.123C148.551 275.126 148.62 275.126 148.705 275.123C157.851 275.123 169.696 271.861 180.186 268.729C185.431 267.162 190.382 265.6 194.435 264.466C198.487 263.333 201.402 262.702 202.827 262.702H220.175C220.601 269.617 226.095 275.123 232.991 275.123H256.957C264.144 275.123 269.359 269.203 269.854 262.191L275.093 187.831C275.623 180.297 269.383 174.254 262.196 174.254H232.991C225.65 174.254 220.094 180.356 220.094 187.526V188.001H202.352L182.013 179.296C181.446 179.053 180.829 178.93 180.213 178.928H114.314C105.111 178.928 97.3756 185.474 95.9273 194.288L58.088 172.364C54.4437 170.251 50.3994 169.38 46.4724 169.651C45.1645 169.737 43.8671 169.956 42.604 170.296C37.5516 171.654 33.0281 174.969 30.2267 179.843C24.5866 189.655 28.5027 201.711 37.4765 207.65C37.4765 207.65 59.3147 223.969 84.0165 240.599ZM47.0812 178.786C49.2382 178.63 51.4768 179.096 53.5207 180.282L98.1129 206.155C101.339 211.723 107.392 215.523 114.314 215.523H159.802C165.918 215.523 165.918 206.343 159.802 206.343H114.314C108.876 206.343 104.803 202.092 104.803 197.244C104.803 192.396 108.876 188.1 114.314 188.1H179.273L199.648 196.796C200.214 197.039 200.823 197.171 201.439 197.172H220.094V253.532H202.827C200.034 253.532 196.239 254.431 191.963 255.627C187.688 256.823 182.745 258.384 177.58 259.926C167.299 262.995 156.498 265.918 148.84 265.918C144.717 265.687 136.196 261.881 125.25 255.699C114.271 249.499 101.402 241.225 89.1658 232.987C64.6929 216.511 42.5181 200.002 42.5181 200.002C37.1341 196.081 35.1092 189.766 38.1878 184.41C40.112 181.062 43.4863 179.051 47.0812 178.786ZM232.991 183.434H262.197C264.237 183.434 266.103 185.126 265.958 187.187L260.71 261.52C260.511 264.356 258.744 265.953 256.958 265.953H232.991C231.068 265.953 229.265 264.309 229.265 261.861V187.527C229.265 185.078 231.033 183.434 232.991 183.434ZM246.936 247.612C244.403 247.612 242.35 249.665 242.35 252.197C242.35 254.73 244.403 256.783 246.936 256.782C249.468 256.782 251.521 254.729 251.521 252.197C251.521 249.665 249.468 247.612 246.936 247.612Z" fill="white" fill-opacity="0.1"/>
</svg>
