<svg width="331" height="330" viewBox="0 0 331 330" fill="none" xmlns="http://www.w3.org/2000/svg">
<path fill-rule="evenodd" clip-rule="evenodd" d="M280.637 159.906C293.684 170.334 315.914 166.67 325.041 152.669C341.445 130.432 321.633 97.7679 294.18 102.68C277.097 105.228 267.367 120.477 267.772 135.503L246.445 144.552C231.256 118.349 202.981 99.8966 168.828 101.302L162.311 61.7168C166.359 59.4971 170.029 56.3186 172.955 52.05C189.894 29.0914 169.389 -4.61268 141.049 0.525021C123.261 3.49336 111.193 20.3973 114.145 38.2979C116.378 53.166 127.779 62.5702 140.474 64.9736L147.057 104.942C128.981 110.314 114.523 120.809 104.194 134.153L61.4753 108.265C64.8839 88.6558 47.8927 67.9167 25.8614 71.8709C-1.23864 75.9424 -9.41494 112.599 12.8274 128.019C23.2886 136.228 39.6138 135.296 50.0897 127.231L92.9789 153.237C80.7153 181.83 83.4709 216.557 104.42 242.562L60.3035 288.532C57.9526 288.072 55.3927 287.967 52.5849 288.335C25.4849 293.602 31.8715 333.347 59.2326 329.773C73.5333 327.002 78.4963 314.629 75.9887 304.069L120.342 257.864C120.786 258.192 121.191 258.547 121.635 258.875C155.42 284.408 206.254 278.537 234.696 248.079L262.475 268.529C261.313 272.758 260.999 277.289 261.757 281.899C265.845 309.127 302.242 317.309 317.588 294.955C333.678 273.165 314.206 241.157 287.302 246.029C282.94 246.751 278.956 248.38 275.482 250.652L247.625 230.15C259.418 208.925 261.09 185.702 255.121 164.872L276.122 155.954C277.48 157.373 278.943 158.713 280.641 159.908L280.637 159.906ZM295.33 108.945C317.284 105.163 332.983 131.234 319.883 148.991C312.557 160.221 294.834 163.071 284.346 154.771C266.258 142.017 273.18 112.099 295.33 108.945ZM161.697 11.3828C189.359 32.7655 160.065 73.9028 131.032 54.4615C103.384 33.1051 132.651 -8.04499 161.697 11.3828ZM146.979 65.5607C150.126 65.5476 153.261 65.101 156.291 64.1947L162.481 101.786C160.927 101.957 159.386 102.114 157.819 102.364C156.239 102.627 154.724 102.994 153.196 103.336L146.979 65.5607ZM27.0473 78.1172C59.2276 74.1506 66.8539 120.436 35.1186 127.107C2.52035 131.743 -5.28984 84.3039 27.0473 78.1172ZM54.7481 122.615C55.2182 122.024 55.6884 121.433 56.0932 120.789C57.5691 118.78 58.653 116.678 59.5543 114.537L100.458 139.335C98.7206 141.961 97.1403 144.667 95.7036 147.452L54.7481 122.615ZM58.0784 323.503C38.9845 325.802 34.8313 298.049 53.7423 294.581C72.8232 292.283 76.9894 320.036 58.0784 323.503ZM73.3457 297.642C71.7132 294.976 69.4931 292.664 66.7241 290.983L108.594 247.349C110.696 249.608 112.93 251.788 115.346 253.864L73.3457 297.642ZM306.719 256.597C332.656 276.496 305.086 315.267 277.973 296.973C252.049 276.943 279.501 238.38 306.719 256.597ZM270.4 254.798C268.179 257.031 266.325 259.592 264.875 262.403L238.846 243.24C240.008 241.769 241.197 240.324 242.268 238.761C243.012 237.723 243.652 236.66 244.331 235.609L270.4 254.798ZM185.052 267.656C141.391 274.933 100.123 245.249 92.8879 201.34C81.2512 130.428 161.311 81.1892 218.593 122.627C276.047 163.749 255.528 255.861 185.056 267.656H185.052ZM253.148 158.799C252.077 155.857 250.81 152.981 249.425 150.17L268.65 142.014C269.355 145.048 270.531 147.977 272.176 150.722L253.148 158.799ZM175.062 125.176C174.057 124.624 172.986 124.361 171.902 124.361C170.818 124.361 169.747 124.637 168.741 125.176L141.262 140.07L132.499 144.812L114.293 154.689C114.267 154.702 114.254 154.741 114.228 154.754C113.784 155.017 113.418 155.372 113.144 155.805C113.118 155.844 113.078 155.884 113.052 155.923C112.778 156.383 112.621 156.921 112.634 157.486V216.223C112.634 218.693 113.967 220.952 116.148 222.121L170.411 251.542C170.816 251.778 171.234 251.87 171.665 251.896C171.743 251.909 171.809 251.909 171.887 251.922C172.004 251.922 172.122 251.909 172.24 251.896C172.422 251.883 172.605 251.857 172.788 251.791C172.801 251.791 172.801 251.778 172.814 251.778C173.01 251.712 173.219 251.66 173.402 251.542L227.665 222.121C229.846 220.952 231.179 218.693 231.179 216.223V157.486C231.192 156.882 231.022 156.344 230.735 155.871C230.447 155.411 230.042 155.03 229.585 154.754C229.559 154.741 229.546 154.702 229.52 154.689L175.062 125.176ZM153.696 140.569L203.128 167.376L190.12 174.429L140.688 147.622L153.696 140.569ZM193.268 179.959L199.341 176.676L206.655 172.709V183.518L193.268 190.782V179.959ZM171.915 130.744C172.085 130.731 221.19 157.459 221.347 157.512L209.802 163.764L160.343 136.956C166.991 133.345 171.85 130.718 171.915 130.744ZM134.028 151.247L183.46 178.041L171.915 184.293L122.482 157.486C122.522 157.499 127.38 154.859 134.028 151.247ZM168.742 243.423L119.139 216.524C118.656 216.38 119.139 163.173 118.97 162.83L168.73 189.808L168.742 243.423ZM224.821 216.419C224.704 216.603 198.649 230.591 198.466 230.749L175.088 243.423L175.075 189.823L186.921 183.401V196.114C186.868 198.479 189.546 200.068 191.596 198.912L211.147 188.313C212.231 187.814 212.989 186.697 212.989 185.41C212.884 185.121 213.119 174.784 212.976 169.268L224.834 162.845C224.808 163.003 224.913 216.274 224.821 216.419Z" fill="white" fill-opacity="0.1"/>
</svg>
