<svg width="32" height="26" viewBox="0 0 32 26" fill="none" xmlns="http://www.w3.org/2000/svg">
<path d="M22.2415 19.0762H21.3771C21.2242 19.0762 21.0777 19.0155 20.9696 18.9074C20.8615 18.7993 20.8008 18.6527 20.8008 18.4999C20.8008 18.347 20.8615 18.2005 20.9696 18.0924C21.0777 17.9843 21.2242 17.9236 21.3771 17.9236H22.2415C22.3944 17.9236 22.541 17.9843 22.649 18.0924C22.7571 18.2005 22.8178 18.347 22.8178 18.4999C22.8178 18.6527 22.7571 18.7993 22.649 18.9074C22.541 19.0155 22.3944 19.0762 22.2415 19.0762Z" fill="white"/>
<path d="M25.3782 19.0762H24.5138C24.361 19.0762 24.2144 19.0155 24.1063 18.9074C23.9982 18.7993 23.9375 18.6527 23.9375 18.4999C23.9375 18.347 23.9982 18.2005 24.1063 18.0924C24.2144 17.9843 24.361 17.9236 24.5138 17.9236H25.3782C25.5311 17.9236 25.6777 17.9843 25.7858 18.0924C25.8938 18.2005 25.9545 18.347 25.9545 18.4999C25.9545 18.6527 25.8938 18.7993 25.7858 18.9074C25.6777 19.0155 25.5311 19.0762 25.3782 19.0762Z" fill="white"/>
<path d="M28.5183 19.0762H27.5919C27.4391 19.0762 27.2925 19.0155 27.1844 18.9074C27.0763 18.7993 27.0156 18.6527 27.0156 18.4999C27.0156 18.347 27.0763 18.2005 27.1844 18.0924C27.2925 17.9843 27.4391 17.9236 27.5919 17.9236H28.5169C28.6697 17.9236 28.8163 17.9843 28.9244 18.0924C29.0325 18.2005 29.0932 18.347 29.0932 18.4999C29.0932 18.6527 29.0325 18.7993 28.9244 18.9074C28.8163 19.0155 28.6697 19.0762 28.5169 19.0762H28.5183Z" fill="white"/>
<path d="M12.2619 25.2462C12.1134 25.2105 11.9851 25.1173 11.9053 24.9871C11.8255 24.8569 11.8006 24.7003 11.8361 24.5517L12.8785 20.1949C12.8962 20.1213 12.9281 20.0519 12.9726 19.9907C13.0171 19.9294 13.0732 19.8775 13.1377 19.838C13.2022 19.7984 13.2739 19.7719 13.3486 19.7601C13.4234 19.7482 13.4997 19.7512 13.5733 19.7688C13.6469 19.7865 13.7163 19.8184 13.7776 19.8629C13.8388 19.9073 13.8907 19.9634 13.9303 20.028C13.9698 20.0925 13.9963 20.1642 14.0082 20.2389C14.02 20.3137 14.0171 20.39 13.9994 20.4636L12.957 24.8176C12.9397 24.8914 12.9079 24.9611 12.8635 25.0227C12.8192 25.0842 12.7631 25.1364 12.6985 25.1763C12.6339 25.2161 12.5621 25.2428 12.4872 25.2548C12.4122 25.2668 12.3357 25.2638 12.2619 25.2462Z" fill="white"/>
<path d="M19.0251 24.801L18.1405 20.4471C18.1254 20.3729 18.1251 20.2965 18.1395 20.2222C18.1539 20.1479 18.1829 20.0772 18.2246 20.0141C18.2664 19.951 18.3202 19.8967 18.383 19.8544C18.4457 19.8121 18.5162 19.7825 18.5904 19.7674C18.6645 19.7523 18.7409 19.752 18.8152 19.7664C18.8895 19.7809 18.9602 19.8098 19.0234 19.8516C19.0865 19.8934 19.1407 19.9472 19.1831 20.0099C19.2254 20.0727 19.2549 20.1431 19.27 20.2173L20.1546 24.5712C20.1851 24.721 20.1548 24.8768 20.0705 25.0043C19.9861 25.1317 19.8546 25.2204 19.7048 25.2509C19.555 25.2814 19.3992 25.2511 19.2718 25.1667C19.1443 25.0824 19.0556 24.9508 19.0251 24.801Z" fill="white"/>
<path d="M22.072 25.2621H9.87317C9.72033 25.2621 9.57375 25.2014 9.46567 25.0933C9.35759 24.9852 9.29688 24.8386 9.29688 24.6858C9.29688 24.533 9.35759 24.3864 9.46567 24.2783C9.57375 24.1702 9.72033 24.1095 9.87317 24.1095H22.072C22.2248 24.1095 22.3714 24.1702 22.4795 24.2783C22.5876 24.3864 22.6483 24.533 22.6483 24.6858C22.6483 24.8386 22.5876 24.9852 22.4795 25.0933C22.3714 25.2014 22.2248 25.2621 22.072 25.2621Z" fill="white"/>
<path d="M30.346 20.9082H1.64124C0.682418 20.9082 -0.015625 20.213 -0.015625 19.2513V1.68712C-0.015625 0.740545 0.711953 0 1.64124 0H30.346C30.7888 0.00494241 31.2116 0.185357 31.5215 0.501653C31.8315 0.81795 32.0033 1.24429 31.9993 1.68712V19.2542C32.0017 19.472 31.9606 19.6881 31.8783 19.8898C31.7961 20.0915 31.6744 20.2748 31.5205 20.4288C31.3665 20.5829 31.1833 20.7046 30.9816 20.787C30.7799 20.8693 30.5638 20.9105 30.346 20.9082ZM1.64124 1.1526C1.29546 1.1526 1.13697 1.42922 1.13697 1.68712V19.2542C1.13697 19.5683 1.32499 19.7584 1.64124 19.7584H30.346C30.4125 19.7599 30.4785 19.7479 30.5402 19.723C30.6019 19.6982 30.6578 19.661 30.7046 19.6138C30.7515 19.5667 30.7882 19.5104 30.8126 19.4486C30.8371 19.3868 30.8486 19.3206 30.8467 19.2542V1.68712C30.8493 1.55037 30.7984 1.41801 30.7049 1.31818C30.6114 1.21836 30.4826 1.15895 30.346 1.1526H1.64124Z" fill="white"/>
<path d="M31.4215 17.2415H0.560675C0.407831 17.2415 0.261247 17.1807 0.153169 17.0727C0.0450922 16.9646 -0.015625 16.818 -0.015625 16.6652C-0.015625 16.5123 0.0450922 16.3657 0.153169 16.2577C0.261247 16.1496 0.407831 16.0889 0.560675 16.0889H31.4215C31.5744 16.0889 31.721 16.1496 31.829 16.2577C31.9371 16.3657 31.9978 16.5123 31.9978 16.6652C31.9978 16.818 31.9371 16.9646 31.829 17.0727C31.721 17.1807 31.5744 17.2415 31.4215 17.2415Z" fill="white"/>
<path d="M25.599 5.16932H12.4161C12.2633 5.16932 12.1167 5.10861 12.0086 5.00053C11.9006 4.89245 11.8398 4.74587 11.8398 4.59302C11.8398 4.44018 11.9006 4.2936 12.0086 4.18552C12.1167 4.07744 12.2633 4.01672 12.4161 4.01672H25.599C25.7518 4.01672 25.8984 4.07744 26.0065 4.18552C26.1146 4.2936 26.1753 4.44018 26.1753 4.59302C26.1753 4.74587 26.1146 4.89245 26.0065 5.00053C25.8984 5.10861 25.7518 5.16932 25.599 5.16932Z" fill="white"/>
<path d="M25.599 8.24684H12.4161C12.2633 8.24684 12.1167 8.18612 12.0086 8.07804C11.9006 7.96997 11.8398 7.82338 11.8398 7.67054C11.8398 7.51769 11.9006 7.37111 12.0086 7.26303C12.1167 7.15495 12.2633 7.09424 12.4161 7.09424H25.599C25.7518 7.09424 25.8984 7.15495 26.0065 7.26303C26.1146 7.37111 26.1753 7.51769 26.1753 7.67054C26.1753 7.82338 26.1146 7.96997 26.0065 8.07804C25.8984 8.18612 25.7518 8.24684 25.599 8.24684Z" fill="white"/>
<path d="M25.599 11.3235H12.4161C12.2633 11.3235 12.1167 11.2628 12.0086 11.1547C11.9006 11.0466 11.8398 10.9 11.8398 10.7472C11.8398 10.5944 11.9006 10.4478 12.0086 10.3397C12.1167 10.2316 12.2633 10.1709 12.4161 10.1709H25.599C25.7518 10.1709 25.8984 10.2316 26.0065 10.3397C26.1146 10.4478 26.1753 10.5944 26.1753 10.7472C26.1753 10.9 26.1146 11.0466 26.0065 11.1547C25.8984 11.2628 25.7518 11.3235 25.599 11.3235Z" fill="white"/>
<path d="M25.599 14.4003H12.4161C12.2633 14.4003 12.1167 14.3396 12.0086 14.2315C11.9006 14.1234 11.8398 13.9768 11.8398 13.824C11.8398 13.6711 11.9006 13.5246 12.0086 13.4165C12.1167 13.3084 12.2633 13.2477 12.4161 13.2477H25.599C25.7518 13.2477 25.8984 13.3084 26.0065 13.4165C26.1146 13.5246 26.1753 13.6711 26.1753 13.824C26.1753 13.9768 26.1146 14.1234 26.0065 14.2315C25.8984 14.3396 25.7518 14.4003 25.599 14.4003Z" fill="white"/>
<path d="M7.64661 14.4002C7.49377 14.4002 7.34718 14.3395 7.23911 14.2314C7.13103 14.1234 7.07031 13.9768 7.07031 13.8239V3.41956C7.07031 3.26672 7.13103 3.12013 7.23911 3.01206C7.34718 2.90398 7.49377 2.84326 7.64661 2.84326C7.79946 2.84326 7.94604 2.90398 8.05412 3.01206C8.16219 3.12013 8.22291 3.26672 8.22291 3.41956V13.8239C8.22291 13.9768 8.16219 14.1234 8.05412 14.2314C7.94604 14.3395 7.79946 14.4002 7.64661 14.4002Z" fill="white"/>
<path d="M9.86126 6.95371L7.65043 4.31714L5.43888 6.95371C5.39112 7.01424 5.3317 7.06457 5.26414 7.10172C5.19658 7.13887 5.12226 7.16208 5.04556 7.16999C4.96887 7.1779 4.89137 7.17034 4.81765 7.14775C4.74393 7.12517 4.67549 7.08802 4.61638 7.03851C4.55728 6.989 4.50871 6.92813 4.47356 6.85951C4.4384 6.79089 4.41737 6.71592 4.41171 6.63902C4.40605 6.56213 4.41588 6.48488 4.44061 6.41186C4.46535 6.33883 4.50448 6.27151 4.5557 6.21388L7.20668 3.05C7.26077 2.98549 7.32834 2.93362 7.40463 2.89803C7.48092 2.86244 7.56409 2.84399 7.64827 2.84399C7.73246 2.84399 7.81562 2.86244 7.89191 2.89803C7.9682 2.93362 8.03577 2.98549 8.08986 3.05L10.7423 6.2146C10.7935 6.27223 10.8326 6.33955 10.8574 6.41258C10.8821 6.4856 10.8919 6.56285 10.8863 6.63974C10.8806 6.71664 10.8596 6.79161 10.8244 6.86023C10.7893 6.92885 10.7407 6.98972 10.6816 7.03923C10.6225 7.08874 10.5541 7.12589 10.4803 7.14847C10.4066 7.17106 10.3291 7.17862 10.2524 7.17071C10.1757 7.1628 10.1014 7.13959 10.0338 7.10244C9.96628 7.06529 9.90686 7.01496 9.8591 6.95443L9.86126 6.95371Z" fill="white"/>
</svg>
