<svg width="31" height="32" viewBox="0 0 31 32" fill="none" xmlns="http://www.w3.org/2000/svg">
<path d="M27.9807 25.5945L26.6147 24.9115L25.1828 22.4062C25.0861 22.2368 24.9055 22.1322 24.7106 22.1322H20.3342V21.1626C20.3342 20.8623 20.091 20.6188 19.7904 20.6188H6.0712C5.77059 20.6188 5.52734 20.8623 5.52734 21.1626V30.2409C5.52734 30.5413 5.77059 30.7848 6.0712 30.7848H7.92592C8.57535 32.782 11.5159 32.7784 12.1629 30.7848C12.8562 30.7844 20.4696 30.7849 20.891 30.7864C21.5413 32.7815 24.4788 32.7779 25.1267 30.7864H27.7374C28.038 30.7864 28.2813 30.5429 28.2813 30.2425V26.081C28.2813 25.8749 28.165 25.6867 27.9807 25.5945ZM10.0439 31.2121C8.52619 31.1764 8.50891 28.937 10.044 28.8948C11.5709 28.9339 11.5713 31.1742 10.0439 31.2121ZM19.2465 29.6971H12.2634C11.7843 27.1975 8.30314 27.1992 7.826 29.6971H6.61506V21.7065H19.2465V29.6971ZM23.0084 31.2121C21.4872 31.1753 21.4764 28.9349 23.0084 28.8948C24.5355 28.934 24.5356 31.1742 23.0084 31.2121ZM27.1936 29.6987H25.2263C24.7505 27.1982 21.2651 27.2002 20.7899 29.6987H20.3364V23.2199H24.3951L25.7521 25.594C25.8052 25.6872 25.8849 25.7626 25.981 25.8107L27.1936 26.4172V29.6987Z" fill="white"/>
<path d="M30.7743 1.40842C30.6314 1.30565 30.4492 1.27856 30.2841 1.33353L20.4946 4.59669C20.2726 4.67078 20.1228 4.87845 20.1228 5.11267V15.446H15.7719V7.83197C15.7719 7.53162 15.5287 7.28811 15.2281 7.28811H9.78947V0.217932C9.78947 -0.0824124 9.54622 -0.325928 9.24561 -0.325928H0.54386C0.24325 -0.325928 0 -0.0824124 0 0.217932V27.9548C0 28.2551 0.24325 28.4986 0.54386 28.4986H3.89412C4.60696 28.4896 4.60551 27.4176 3.89409 27.4109L1.08772 27.4109V0.761792H8.70175C8.70175 4.96777 8.70176 14.6921 8.70175 18.9867C8.70403 19.6947 9.78657 19.7004 9.78947 18.9866L9.78947 8.37583H14.6842C14.6842 10.5 14.6842 16.9732 14.6842 18.9867C14.6869 19.6968 15.7691 19.6987 15.7719 18.9866L15.7719 16.5337H20.1228V19.1662C20.1256 19.8761 21.2076 19.8784 21.2105 19.1661C21.2105 17.051 21.2105 7.79674 21.2105 5.50463L29.9123 2.60396V26.3232C29.1988 26.3324 29.1971 27.4005 29.9123 27.4109L30.4561 27.4109C30.7568 27.4109 31 27.1674 31 26.8671V1.84951C31 1.67477 30.9161 1.51066 30.7743 1.40842Z" fill="white"/>
<path d="M27.7385 10.5536H23.3876C23.087 10.5536 22.8438 10.7971 22.8438 11.0974V17.0746C22.8438 17.3749 23.087 17.6185 23.3876 17.6185H27.7385C28.0391 17.6185 28.2823 17.3749 28.2823 17.0746V11.0974C28.2823 10.7971 28.0391 10.5536 27.7385 10.5536ZM27.1946 16.5307H23.9315V11.6413H27.1946V16.5307Z" fill="white"/>
<path d="M2.17578 13.2706C2.17578 13.5709 2.41903 13.8144 2.71964 13.8144H7.07052C7.37113 13.8144 7.61438 13.5709 7.61438 13.2706V11.0951C7.61438 10.7948 7.37113 10.5513 7.07052 10.5513H2.71964C2.41903 10.5513 2.17578 10.7948 2.17578 11.0951V13.2706ZM3.2635 11.639H6.52666V12.7267H3.2635V11.639Z" fill="white"/>
<path d="M2.71964 9.46348H7.07052C7.37113 9.46348 7.61438 9.21996 7.61438 8.91962V6.74418C7.61438 6.44383 7.37113 6.20032 7.07052 6.20032H2.71964C2.41903 6.20032 2.17578 6.44383 2.17578 6.74418V8.91962C2.17578 9.21996 2.41903 9.46348 2.71964 9.46348ZM3.2635 7.28804H6.52666V8.37576H3.2635V7.28804Z" fill="white"/>
</svg>
