<svg width="30" height="29" viewBox="0 0 30 29" fill="none" xmlns="http://www.w3.org/2000/svg">
<path d="M7.48397 6.28855C7.38193 6.11312 7.44195 5.8882 7.61753 5.78775L8.33486 5.37392C8.51044 5.27197 8.73555 5.33194 8.83609 5.50737C8.93813 5.6828 8.87811 5.90772 8.70253 6.00817L7.9852 6.42199C7.92668 6.45498 7.86365 6.47148 7.80212 6.47148C7.67607 6.47148 7.5515 6.4055 7.48397 6.28855ZM11.5028 4.33635C11.5643 4.33635 11.6288 4.32136 11.6859 4.28687L12.4032 3.87305C12.5788 3.77109 12.6388 3.54768 12.5368 3.37225C12.4347 3.19682 12.2111 3.13684 12.0355 3.2388L11.3182 3.65262C11.1426 3.75458 11.0826 3.97799 11.1846 4.15342C11.2522 4.27038 11.3752 4.33635 11.5028 4.33635ZM8.33488 7.48357L7.61755 7.89739C7.44197 7.99935 7.38194 8.22276 7.48399 8.39819C7.55152 8.51515 7.67457 8.58112 7.80213 8.58112C7.86366 8.58112 7.92818 8.56613 7.98521 8.53164L8.70254 8.11781C8.87811 8.01586 8.93814 7.79245 8.8361 7.61701C8.73405 7.44158 8.51046 7.38161 8.33488 7.48357ZM12.0355 5.34844L11.3182 5.76226C11.1426 5.86421 11.0826 6.08763 11.1846 6.26306C11.2522 6.38001 11.3752 6.44598 11.5028 6.44598C11.5643 6.44598 11.6288 6.43099 11.6859 6.3965L12.4032 5.98268C12.5788 5.88072 12.6388 5.65731 12.5367 5.48188C12.4347 5.30645 12.2111 5.24648 12.0355 5.34844ZM11.5028 8.55714C11.5643 8.55714 11.6288 8.54215 11.6859 8.50766L12.4032 8.09384C12.5788 7.99188 12.6388 7.76847 12.5368 7.59304C12.4347 7.41761 12.2111 7.35763 12.0355 7.45959L11.3182 7.87341C11.1426 7.97537 11.0826 8.19878 11.1846 8.37421C11.2522 8.49117 11.3752 8.55714 11.5028 8.55714ZM7.80214 10.6938C7.86367 10.6938 7.9282 10.6788 7.98522 10.6443L8.70255 10.2305C8.87813 10.1285 8.93815 9.9051 8.83611 9.72967C8.73407 9.55424 8.51046 9.49427 8.33488 9.59622L7.61756 10.01C7.44198 10.112 7.38195 10.3354 7.484 10.5108C7.55153 10.6278 7.67459 10.6938 7.80214 10.6938ZM11.5028 10.6683C11.5643 10.6683 11.6288 10.6533 11.6859 10.6188L12.4032 10.205C12.5788 10.103 12.6388 9.87961 12.5368 9.70418C12.4347 9.52875 12.2111 9.46878 12.0355 9.57073L11.3182 9.98455C11.1426 10.0865 11.0826 10.3099 11.1846 10.4854C11.2522 10.6023 11.3752 10.6683 11.5028 10.6683ZM7.80214 12.8049C7.86367 12.8049 7.9282 12.7899 7.98522 12.7554L8.70255 12.3416C8.87813 12.2397 8.93815 12.0162 8.83611 11.8408C8.73407 11.6654 8.51046 11.6054 8.33488 11.7074L7.61756 12.1212C7.44198 12.2231 7.38195 12.4466 7.484 12.622C7.55153 12.7389 7.67459 12.8049 7.80214 12.8049ZM12.0357 11.6789L11.3184 12.0927C11.1428 12.1946 11.0828 12.4181 11.1848 12.5935C11.2524 12.7104 11.3754 12.7764 11.503 12.7764C11.5645 12.7764 11.629 12.7614 11.6861 12.7269L12.4034 12.3131C12.579 12.2112 12.639 11.9877 12.5369 11.8123C12.4349 11.6369 12.2113 11.5769 12.0357 11.6789ZM7.80214 14.9131C7.86367 14.9131 7.9267 14.8981 7.98522 14.8636L8.70255 14.4513C8.87813 14.3493 8.93816 14.1259 8.83761 13.9505C8.73706 13.775 8.51196 13.7151 8.33638 13.8155L7.61906 14.2278C7.44348 14.3298 7.38345 14.5532 7.484 14.7286C7.55153 14.8471 7.67459 14.9131 7.80214 14.9131ZM3.56281 11.37C3.36022 11.37 3.19514 11.5349 3.19514 11.7373V17.0916C3.19514 17.294 3.36022 17.4589 3.56281 17.4589C3.7654 17.4589 3.93047 17.294 3.93047 17.0916V11.7373C3.93047 11.5349 3.7654 11.37 3.56281 11.37ZM29.9984 28.2653V28.9985L0 29V28.2668H0.666307V20.4264C0.666307 20.2959 0.736838 20.1745 0.849388 20.1085L1.62223 19.6632V10.9307C1.62223 10.8003 1.69276 10.6788 1.80531 10.6128L4.27991 9.1854C4.39396 9.11943 4.53502 9.11943 4.64908 9.1869L5.66652 9.77768V4.73665C5.66652 4.60621 5.73705 4.48475 5.8496 4.41878L13.422 0.0494814C13.5361 -0.0164938 13.6756 -0.0164938 13.7897 0.0494814L24.4865 6.22093L25.6255 6.87615C25.7396 6.94213 25.8101 7.06208 25.8101 7.19402V21.7187L29.1506 23.6454C29.2647 23.7114 29.3337 23.8313 29.3337 23.9633V28.2665H30L29.9984 28.2653ZM24.1187 6.8556L20.4045 4.71298V18.602L25.073 21.2949V7.40588L24.1187 6.8556ZM19.6692 18.1775V4.28845L14.1829 1.12323V15.0123L19.6692 18.1775ZM6.4003 4.94674V16.9043L11.7487 13.82C11.8628 13.754 12.0024 13.754 12.1164 13.82L13.449 14.5892V0.880177L6.4003 4.94674ZM2.35766 19.2373L5.66665 17.3285V10.6247L4.46311 9.92597L2.35616 11.142V19.2403L2.35766 19.2373ZM1.40023 20.6362V24.0398L11.5658 21.1085V14.7735L2.17318 20.1923C2.17018 20.1938 2.16718 20.1953 2.16418 20.1983L1.40183 20.6376L1.40023 20.6362ZM1.40023 28.2651H11.5658V21.8718L1.40023 24.8031V28.2651ZM26.0533 24.782L23.3566 23.485V28.2651H26.0533V24.782ZM22.6228 23.1312L19.9261 21.8342V28.2651H22.6228V23.1312ZM28.5986 28.2651V24.1733L19.8675 19.1369C19.8615 19.1339 19.854 19.1294 19.848 19.1264L12.2998 14.7721V28.265H19.191V21.2494C19.191 21.1235 19.2556 21.005 19.3621 20.9391C19.4687 20.8716 19.6037 20.8641 19.7163 20.9196L26.5787 24.2212C26.7063 24.2827 26.7858 24.4102 26.7858 24.5511V28.2651L28.5986 28.2651Z" fill="white"/>
</svg>
