<svg width="29" height="31" viewBox="0 0 29 31" fill="none" xmlns="http://www.w3.org/2000/svg">
<path d="M28.9997 12.5977C28.9997 10.0213 27.167 7.80779 24.6779 7.29744C24.489 3.45946 21.3046 0.395874 17.4208 0.395874C15.2222 0.395874 13.1858 1.3624 11.8002 3.05934C11.5361 3.02098 11.2675 2.99884 10.999 2.99884C9.69895 2.99884 8.4447 3.46662 7.4634 4.31362C6.57954 5.07649 5.96716 6.10058 5.71776 7.22943C3.03956 7.56586 0.988281 9.85894 0.988281 12.5977V12.76C1.02222 13.9803 1.53572 15.1166 2.427 15.9665C3.31087 16.8091 4.47514 17.2739 5.69397 17.2739H7.83213V17.9157C7.83213 18.2743 8.12282 18.565 8.48141 18.565H9.7283L9.94374 19.1582L9.1233 20.141C8.99492 20.2915 8.9536 20.4848 8.98312 20.6692V24.5265H6.94385C6.75054 23.827 6.11309 23.3062 5.35316 23.3062C4.43828 23.3062 3.6946 24.0499 3.6946 24.9647C3.6946 25.8796 4.43832 26.6233 5.35316 26.6233C6.11309 26.6233 6.75055 26.1053 6.94385 25.4074H9.08201C9.51288 25.4074 9.86408 25.0562 9.86408 24.6253V21.7316L10.7701 22.6539C11.0195 22.9106 11.4356 22.9151 11.6879 22.6657L12.6028 21.7744L13.0071 21.9825L13.0558 23.4448C13.0676 23.8004 13.3539 24.0764 13.7051 24.0764H14.5432V27.3743C13.8438 27.5677 13.3229 28.2051 13.3229 28.965C13.3229 29.8799 14.0666 30.6236 14.9815 30.6236C15.8964 30.6236 16.64 29.8799 16.64 28.965C16.64 28.2051 16.1221 27.5676 15.4197 27.3743V24.0764H16.2579C16.6135 24.0764 16.8968 23.8004 16.9072 23.4448L16.9559 21.9825L17.3602 21.7744L18.275 22.6657C18.5318 22.9151 18.9435 22.9106 19.1929 22.6583L20.0989 21.7361V24.6297C20.0989 25.0606 20.4501 25.4118 20.8809 25.4118H23.0191C23.2124 26.1112 23.8499 26.6277 24.6098 26.6277C25.5247 26.6277 26.2684 25.884 26.2684 24.9691C26.2684 24.0543 25.5246 23.3106 24.6098 23.3106C23.8469 23.3106 23.2124 23.8285 23.0191 24.5309H20.9798V20.6782C21.0138 20.4967 20.968 20.3004 20.8397 20.1455L20.0192 19.1627L20.2347 18.5695H21.4815C21.8401 18.5695 22.1308 18.2788 22.1308 17.9203V17.2784H24.269C25.4923 17.2784 26.6521 16.8135 27.5404 15.971C28.4317 15.1211 28.9422 13.9834 28.9791 12.7675V12.6051L28.9997 12.5977ZM5.36366 25.7394C4.93279 25.7394 4.58601 25.3912 4.58601 24.9618C4.58601 24.5309 4.93426 24.1841 5.36366 24.1841C5.79452 24.1841 6.1413 24.5324 6.1413 24.9618C6.1413 25.3926 5.79306 25.7394 5.36366 25.7394ZM15.7742 28.9577C15.7742 29.3885 15.4259 29.7353 14.9965 29.7353C14.5657 29.7353 14.2189 29.3871 14.2189 28.9577C14.2189 28.5268 14.5671 28.18 14.9965 28.18C15.4274 28.18 15.7742 28.5283 15.7742 28.9577ZM24.6291 24.1825C25.06 24.1825 25.4068 24.5307 25.4068 24.9601C25.4068 25.391 25.0585 25.7378 24.6291 25.7378C24.1983 25.7378 23.8515 25.3895 23.8515 24.9601C23.8515 24.5293 24.1997 24.1825 24.6291 24.1825ZM21.2751 17.681H20.0961C19.8246 17.681 19.5781 17.8507 19.4837 18.1074L19.1664 18.9765C19.0868 19.1949 19.1281 19.4414 19.2756 19.6184L20.0459 20.5436L18.7385 21.8702L17.8694 21.0202C17.6687 20.824 17.3633 20.7782 17.1139 20.9066L16.4455 21.2549C16.2374 21.3641 16.1016 21.5765 16.0943 21.8141L16.0485 23.1894H13.937L13.8912 21.8141C13.8838 21.5795 13.7481 21.3641 13.54 21.2549L12.8716 20.9066C12.6222 20.7782 12.3197 20.824 12.1161 21.0202L11.2469 21.8702L9.93957 20.5436L10.7098 19.6184C10.8574 19.4414 10.9032 19.1949 10.819 18.9765L10.5018 18.1074C10.4073 17.8507 10.1624 17.681 9.88941 17.681H8.7104V15.7095H9.96466C10.2185 15.7095 10.4516 15.562 10.5578 15.3318L10.822 14.7607C10.9312 14.5261 10.8899 14.2502 10.7202 14.0539L9.85843 13.083L11.3429 11.6443L12.1028 12.4868C12.2917 12.6949 12.5898 12.7584 12.8465 12.6492L13.5268 12.354C13.7644 12.2522 13.9193 12.0176 13.9193 11.7579V10.4771H16.0693V11.7579C16.0693 12.0191 16.2242 12.2522 16.4618 12.354L17.1421 12.6492C17.3988 12.7584 17.6969 12.6949 17.8858 12.4868L18.6457 11.6443L20.1302 13.083L19.2729 14.0539C19.1032 14.2472 19.0618 14.5261 19.1666 14.7607L19.4307 15.3318C19.537 15.562 19.7701 15.7095 20.0239 15.7095H21.2782V17.681H21.2751ZM28.1204 12.7316C28.0599 14.7488 26.3452 16.3882 24.2941 16.3882H22.1559V15.4777C22.1559 15.1191 21.8652 14.8284 21.5066 14.8284H20.1697L20.0296 14.5259L20.9356 13.5063C21.1658 13.2451 21.151 12.8496 20.9016 12.6077L19.0925 10.8517C18.9686 10.7307 18.7944 10.6628 18.6159 10.6673C18.4388 10.6746 18.2721 10.7499 18.1555 10.8827L17.3469 11.7784L16.9544 11.6087V10.2482C16.9544 9.8896 16.6637 9.59889 16.3051 9.59889H13.6992C13.3406 9.59889 13.0499 9.88958 13.0499 10.2482V11.6087L12.6574 11.7784L11.8487 10.8827C11.7322 10.7499 11.561 10.6746 11.3883 10.6673C11.2113 10.6628 11.0401 10.7278 10.9117 10.8517L9.10262 12.6077C8.85324 12.8497 8.83848 13.2466 9.06868 13.5063L9.97468 14.5259L9.8345 14.8284H8.49759C8.13902 14.8284 7.84831 15.1191 7.84831 15.4777V16.3882H5.71015C3.65905 16.3882 1.94439 14.7488 1.88387 12.7272V12.5944C1.88387 10.2069 3.75051 8.22077 6.13361 8.07306C6.34167 8.06126 6.51136 7.90632 6.54086 7.70269C6.88468 5.48485 8.76901 3.87641 11.018 3.87641C11.3161 3.87641 11.6186 3.90593 11.9137 3.96643C12.0804 4.00036 12.2501 3.93691 12.352 3.79968C13.5723 2.19423 15.4271 1.27198 17.4399 1.27198C20.9607 1.27198 23.8232 4.13464 23.8232 7.65527V7.66707C23.8232 7.88546 23.9856 8.07433 24.2054 8.10534C26.4454 8.40046 28.1378 10.3305 28.1378 12.5927V12.7284L28.1204 12.7316Z" fill="white"/>
<path d="M14.9964 13.6366C13.236 13.6366 11.8047 15.0679 11.8047 16.8283C11.8047 18.5887 13.236 20.02 14.9964 20.02C16.7568 20.02 18.1881 18.5887 18.1881 16.8283C18.1881 15.0679 16.7568 13.6366 14.9964 13.6366ZM14.9964 19.1435C13.72 19.1435 12.6841 18.1047 12.6841 16.8312C12.6841 15.5578 13.723 14.519 14.9964 14.519C16.2699 14.519 17.3087 15.5578 17.3087 16.8312C17.3087 18.1047 16.2699 19.1435 14.9964 19.1435Z" fill="white"/>
</svg>
