<svg width="254" height="269" viewBox="0 0 254 269" fill="none" xmlns="http://www.w3.org/2000/svg">
<path fill-rule="evenodd" clip-rule="evenodd" d="M13.3673 179.45C13.3674 177.38 15.5498 176.06 17.3703 176.963L55.4884 192.332C56.5862 192.818 57.2533 193.736 57.2394 194.959V214.678C57.2394 216.748 55.0579 218.068 53.2375 217.165L15.1183 201.796C14.0207 201.351 13.3535 200.364 13.3673 199.169V179.45ZM18.9123 197.363L51.6662 210.564V196.766L18.9123 183.563V197.363Z" fill="white" fill-opacity="0.07"/>
<path fill-rule="evenodd" clip-rule="evenodd" d="M126.71 1.10934C127.169 0.942776 128.169 0.970591 128.655 1.165L189.406 21.9658C189.504 21.9931 189.599 22.0259 189.693 22.0634L250.24 42.7959C250.522 42.8571 250.792 42.9667 251.041 43.1132C251.992 43.6285 252.549 44.6607 252.483 45.7285V218.613C252.483 219.878 251.649 220.935 250.495 221.282L127.719 267.572C127.411 267.692 127.094 267.747 126.78 267.753C126.777 267.753 126.773 267.753 126.77 267.753C126.353 267.759 125.943 267.673 125.57 267.502L2.98745 221.278C1.83425 220.945 1.00018 219.875 1.00015 218.61V45.5996C0.969817 44.1943 2.02831 43.0312 3.29214 42.791L126.71 1.10934ZM129.526 93.8095V260.955L246.938 216.696V49.5507L129.526 93.8095ZM6.55874 216.693L123.953 260.944V93.7998L64.5636 71.4121C64.3805 71.3638 64.2033 71.2968 64.0343 71.2129L6.55874 49.5478V216.693ZM73.3214 68.7968L126.744 88.9394L241.513 45.6689L188.676 27.5742L73.3214 68.7968ZM12.0236 45.6865L65.3009 65.7734L180.258 24.6914L127.584 6.6523L12.0236 45.6865Z" fill="white" fill-opacity="0.07"/>
<path d="M126.777 268.253C126.298 268.26 125.826 268.163 125.394 267.97L2.81689 221.748C1.46806 221.343 0.500537 220.087 0.500488 218.61V45.5996C0.47043 43.9561 1.68848 42.6127 3.1499 42.3105L126.55 0.635742V0.636719C126.867 0.524382 127.301 0.491021 127.687 0.501953C128.071 0.512863 128.497 0.571008 128.817 0.693359L128.818 0.692383L189.561 21.4902C189.664 21.5199 189.765 21.554 189.863 21.5928L250.39 42.3184C250.705 42.3919 251.004 42.5144 251.279 42.6738H251.28C252.396 43.2786 253.049 44.4813 252.983 45.7285V218.613C252.983 220.094 252.011 221.33 250.67 221.749L250.671 221.75L127.895 268.04L127.894 268.039C127.62 268.145 127.341 268.209 127.066 268.236L126.79 268.253H126.777ZM130.026 94.1543V260.231L246.438 216.35V50.2725L130.026 94.1543ZM7.05908 216.348L123.454 260.222V94.1455L64.4028 71.8857C64.2099 71.8327 64.023 71.7623 63.8442 71.6758L7.05908 50.2705V216.348ZM12.8677 179.45C12.8677 177.016 15.4199 175.463 17.563 176.501L55.6753 191.868L55.6831 191.871L55.6909 191.875C56.9494 192.433 57.754 193.518 57.7397 194.959V214.678C57.7397 217.112 55.1877 218.664 53.0444 217.626L14.9312 202.26L14.9302 202.259C13.644 201.737 12.8514 200.566 12.8677 199.163V179.45ZM19.4126 197.025L51.1665 209.823V197.104L19.4126 184.304V197.025ZM74.771 68.8086L126.744 88.4043L240.036 45.6904L188.679 28.1035L74.771 68.8086ZM13.5093 45.7119L65.3052 65.2402L178.745 24.7012L127.583 7.17969L13.5093 45.7119Z" stroke="white" stroke-opacity="0.07"/>
</svg>
