<svg width="271" height="261" viewBox="0 0 271 261" fill="none" xmlns="http://www.w3.org/2000/svg">
<path d="M266.361 155.59H246.084V76.5791C246.084 75.6823 245.49 74.4943 244.593 73.9003L125.039 1.44549C124.142 0.851503 122.954 0.851503 122.057 1.44549L2.49078 74.2015C1.59399 74.4926 1 75.6923 1 76.5774V238.768C1 240.562 2.18797 241.75 3.98156 241.75H148.587V256.96C148.587 258.754 149.775 259.942 151.569 259.942H266.359C268.152 259.942 269.34 258.754 269.34 256.96V158.569C269.34 157.078 268.152 155.588 266.359 155.588L266.361 155.59ZM6.9655 78.374L123.55 7.40992L240.135 78.0699V155.59H211.811L211.799 102.226C211.799 100.433 210.611 99.2449 208.817 99.2449H38.2751C36.4815 99.2449 35.2936 100.433 35.2936 102.226V235.803H6.96876L6.9655 78.374ZM197.192 161.553H220.741V194.944L210.306 189.878C209.409 189.575 208.512 189.575 207.627 189.878L197.192 194.944L197.192 161.553ZM41.2534 173.48H148.59V201.805H41.2534V173.48ZM205.832 133.533H41.2534V105.208H206.137V133.533H205.832ZM41.2534 235.803V207.478H148.59V235.803H41.2534ZM148.59 158.575V167.52H41.2534V139.498H206.137V155.896H151.571C149.777 155.593 148.59 157.084 148.59 158.575ZM263.38 253.985H154.553V161.556H191.229V199.723C191.229 200.62 191.823 201.808 192.72 202.111C193.616 202.705 194.804 202.705 195.701 202.111L209.118 195.554L222.535 202.111C222.838 202.414 223.432 202.414 223.723 202.414C224.317 202.414 224.911 202.111 225.214 201.82C226.111 201.226 226.705 200.329 226.705 199.432V161.557H263.381L263.38 253.985Z" fill="white" fill-opacity="0.07"/>
<path d="M121.797 1.01855C122.853 0.327853 124.24 0.32777 125.297 1.01758H125.298L244.853 73.4727L244.861 73.4775L244.869 73.4834C245.399 73.8345 245.824 74.3482 246.115 74.8887C246.405 75.427 246.584 76.0297 246.584 76.5791V155.091H265.293L265.29 155.088H266.358C268.461 155.088 269.84 156.836 269.84 158.569V256.961C269.84 257.97 269.504 258.85 268.876 259.478C268.248 260.106 267.368 260.442 266.358 260.442H151.568C150.559 260.442 149.68 260.106 149.052 259.478C148.424 258.85 148.087 257.97 148.087 256.961V242.25H3.98145C2.97196 242.25 2.09291 241.913 1.46484 241.285C0.836823 240.657 0.500078 239.778 0.5 238.769V76.5771C0.500058 76.0347 0.678536 75.4279 0.977539 74.915C1.26241 74.4265 1.69446 73.9646 2.26367 73.7539L121.797 1.01855ZM155.053 253.484H262.88L262.881 162.058H227.205V199.433C227.205 200.538 226.489 201.563 225.515 202.218C225.122 202.572 224.435 202.914 223.723 202.914C223.58 202.914 223.319 202.915 223.05 202.869C222.815 202.829 222.508 202.742 222.258 202.532L209.118 196.109L195.931 202.555C194.889 203.22 193.537 203.221 192.494 202.558C191.926 202.343 191.493 201.883 191.206 201.392C190.907 200.878 190.729 200.271 190.729 199.724V162.057H155.053V253.484ZM41.7539 235.304H148.09V207.979H41.7539V235.304ZM7.46582 78.6543L7.46875 235.304H34.7939V102.227C34.7939 101.217 35.13 100.338 35.7578 99.71C36.3859 99.0819 37.2658 98.7451 38.2754 98.7451H208.817C209.827 98.7451 210.706 99.0819 211.334 99.71C211.962 100.338 212.299 101.217 212.299 102.227L212.311 155.091H239.636V78.3506L123.55 7.99512L7.46582 78.6543ZM41.7539 201.305H148.09V173.979H41.7539V201.305ZM197.691 194.146L207.409 189.428L207.437 189.414L207.466 189.404C208.394 189.087 209.34 189.068 210.278 189.345L210.466 189.404L210.496 189.414L210.524 189.428L220.241 194.145V162.054H197.692L197.691 194.146ZM41.7539 167.02H148.09V158.575C148.09 157.703 148.435 156.828 149.054 156.209C149.674 155.589 150.562 155.236 151.605 155.396H205.637V139.998H41.7539V167.02ZM41.7539 133.033H205.637V105.708H41.7539V133.033Z" stroke="white" stroke-opacity="0.07"/>
</svg>
